<svg width="36" height="36" viewBox="0 0 36 36" fill="none" xmlns="http://www.w3.org/2000/svg">
<rect width="36" height="36" rx="8.5" fill="white"/>
<path d="M27.4883 0H8.51167C6.25423 0 4.08926 0.898718 2.49301 2.49845C0.896762 4.09817 0 6.26787 0 8.53023L0 27.4698C0 29.7321 0.896762 31.9018 2.49301 33.5016C4.08926 35.1013 6.25423 36 8.51167 36H15.3833C15.3833 31.7257 15.3833 27.4514 15.3833 23.1771V23.0101H11.1C10.91 23.0101 10.9092 23.0101 10.9092 22.8272C10.9092 21.2195 10.9092 19.6118 10.9092 18.005C10.9092 17.858 10.9533 17.8213 11.095 17.8221C12.4617 17.8271 13.8283 17.8221 15.195 17.8221H15.3867C15.3867 17.7662 15.3867 17.7169 15.3867 17.6668C15.3867 16.3305 15.3783 14.9943 15.3975 13.6581C15.3992 12.5898 15.635 11.5349 16.0883 10.568C16.6886 9.27702 17.7568 8.26353 19.0758 7.73349C19.973 7.35973 20.9377 7.17632 21.9092 7.19482C23.0283 7.21152 24.1475 7.26247 25.2658 7.30256C25.4742 7.31007 25.6825 7.34515 25.8892 7.35601C26.005 7.36185 26.0442 7.40528 26.0433 7.52304C26.0433 8.19116 26.0433 8.85427 26.0433 9.51988C26.0433 10.3049 26.0433 11.0891 26.0433 11.8742C26.0433 12.0111 26.005 12.0521 25.8675 12.0512C25.0183 12.0454 24.1683 12.0354 23.3192 12.0512C22.9314 12.0589 22.5452 12.1036 22.1658 12.1848C21.4383 12.3452 21.0083 12.8262 20.8642 13.5503C20.8031 13.8458 20.7701 14.1464 20.7658 14.4481C20.7542 15.5338 20.7608 16.6262 20.7608 17.7152C20.7608 17.7478 20.765 17.7804 20.7683 17.8296H25.6517C25.8567 17.8296 25.86 17.8296 25.8342 18.0251C25.7233 18.8819 25.6092 19.7371 25.5008 20.594C25.4092 21.3094 25.3203 22.0251 25.2342 22.7411C25.2017 23.0142 25.2083 23.0151 24.9342 23.0151H20.7608V35.9599C20.7608 35.9733 20.7608 35.9866 20.7608 36H27.4892C29.7465 35.9998 31.9112 35.101 33.5073 33.5013C35.1034 31.9016 36 29.732 36 27.4698V8.53023C36 6.26787 35.1032 4.09817 33.507 2.49845C31.9107 0.898718 29.7458 0 27.4883 0Z" fill="#707070"/>
</svg>
