<svg width="42" height="37" viewBox="0 0 42 37" fill="none" xmlns="http://www.w3.org/2000/svg">
<path d="M37.1017 17.9348H35.4013C35.4013 9.46744 28.6942 2.53024 20.5701 2.53024C12.4461 2.53024 5.73901 9.46744 5.73901 17.9348H4.03857C4.03857 8.44728 11.4069 1 20.5701 1C29.7334 1 37.1017 8.65131 37.1017 17.9348Z" fill="#B6B6B6" stroke="#B6B6B6" stroke-width="0.7"/>
<path d="M31.9563 35.0083H23.3789V33.4766H31.9563C33.488 33.4766 34.8154 32.3534 34.8154 30.9238V27.9626H36.6534V30.9238C36.6534 33.1702 34.5091 35.0083 31.9563 35.0083Z" fill="#B6B6B6" stroke="#B6B6B6" stroke-width="0.7"/>
<path d="M22.6693 32.2495H18.9932C17.9721 32.2495 17.2573 33.1686 17.2573 34.0876V34.4959C17.2573 35.517 18.0742 36.334 18.9932 36.334H22.6693C23.6904 36.334 24.4051 35.4149 24.4051 34.4959V34.0876C24.4051 33.1686 23.6904 32.2495 22.6693 32.2495Z" fill="#787878"/>
<path d="M40.4312 19.791H39.41V26.2239H40.4312C41.248 26.2239 41.7587 25.7133 41.7587 24.9986V21.1183C41.7587 20.3014 41.0438 19.791 40.4312 19.791Z" fill="#BE373D"/>
<path d="M0 20.912V24.7923C0 25.5071 0.510609 26.0176 1.3275 26.0176H2.34862V19.5845H1.3275C0.612721 19.7887 0 20.2993 0 20.912Z" fill="#BE373D"/>
<path d="M36.8606 17.8508H33.8994V27.96H36.8606C38.2901 27.96 39.4134 26.8367 39.4134 25.5092V20.4036C39.4134 18.9741 38.2901 17.8508 36.8606 17.8508Z" fill="#EF6167"/>
<path d="M2.24121 20.3004V25.4059C2.24121 26.8355 3.36444 27.8565 4.79401 27.8565H7.75515V17.7476H4.79401C3.46655 17.8497 2.24121 18.9729 2.24121 20.3004Z" fill="#EF6167"/>
</svg>
