<svg width="36" height="36" viewBox="0 0 36 36" fill="none" xmlns="http://www.w3.org/2000/svg">
<path d="M24.75 0H11.25C5.03775 0 0 5.03775 0 11.25V24.75C0 30.9622 5.03775 36 11.25 36H24.75C30.9622 36 36 30.9622 36 24.75V11.25C36 5.03775 30.9622 0 24.75 0ZM32.625 24.75C32.625 29.0925 29.0925 32.625 24.75 32.625H11.25C6.9075 32.625 3.375 29.0925 3.375 24.75V11.25C3.375 6.9075 6.9075 3.375 11.25 3.375H24.75C29.0925 3.375 32.625 6.9075 32.625 11.25V24.75Z" fill="#707070"/>
<path d="M18.1463 9.07318C13.1357 9.07318 9.07317 13.1357 9.07317 18.1464C9.07317 23.157 13.1357 27.2195 18.1463 27.2195C23.157 27.2195 27.2195 23.157 27.2195 18.1464C27.2195 13.1357 23.157 9.07318 18.1463 9.07318ZM18.1463 23.8171C15.0206 23.8171 12.4756 21.2721 12.4756 18.1464C12.4756 15.0184 15.0206 12.4756 18.1463 12.4756C21.272 12.4756 23.8171 15.0184 23.8171 18.1464C23.8171 21.2721 21.272 23.8171 18.1463 23.8171Z" fill="#707070"/>
<path d="M27.8049 9.36588C28.4515 9.36588 28.9756 8.84172 28.9756 8.19515C28.9756 7.54857 28.4515 7.02441 27.8049 7.02441C27.1583 7.02441 26.6342 7.54857 26.6342 8.19515C26.6342 8.84172 27.1583 9.36588 27.8049 9.36588Z" fill="#707070"/>
</svg>
