<svg width="38" height="42" viewBox="0 0 38 42" fill="none" xmlns="http://www.w3.org/2000/svg">
<path d="M5.16586 22.0254L19.153 35.3509L24.4234 31.2371L34.7167 22.946L34.9526 17.9403L33.4739 13.2799V6.07629H4.83215V17.06L4.55597 21.1566L5.16586 22.0254Z" fill="#F5F5F5"/>
<path d="M0.741089 16.9738V41.0011L14.5499 29.6951L0.741089 16.9738Z" fill="#FFD14A"/>
<path d="M14.5499 29.6952L0.741089 41.0011H19.1528V34.0047L14.5499 29.6952Z" fill="#F7B444"/>
<path d="M23.756 29.7239L37.5648 41.0011V16.9738L23.756 29.7239Z" fill="#FFD14A"/>
<path d="M19.1526 34.0047V41.0011H37.5643L23.7555 29.6952L19.1526 34.0047Z" fill="#F7B444"/>
<path d="M4.83194 13.2345L0.741089 16.9744H4.83194V13.2345Z" fill="#FFD14A"/>
<path d="M37.5643 16.9744L33.4734 13.2345V16.9744H37.5643Z" fill="#FFD14A"/>
<path d="M19.1518 0L12.5984 6.07587H25.6304L19.1518 0Z" fill="#FFD14A"/>
<path d="M33.4734 20.7482L37.5643 16.9738H33.4734V20.7482Z" fill="#F5B542"/>
<path d="M4.83194 20.7482V16.9738H0.741089L4.83194 20.7482Z" fill="#F5B542"/>
<path d="M28.358 11.904H9.94629V14.9189H28.358V11.904Z" fill="#2D4054"/>
<path d="M28.3586 17.9391H9.94685V20.9541H28.3586V17.9391Z" fill="#2D4054"/>
</svg>
