<svg width="36" height="36" viewBox="0 0 36 36" fill="none" xmlns="http://www.w3.org/2000/svg">
<rect width="36" height="36" rx="8.5" fill="#707070"/>
<path d="M28.5 11.9238C27.7563 12.25 26.9637 12.4663 26.1375 12.5713C26.9875 12.0638 27.6363 11.2663 27.9413 10.305C27.1488 10.7775 26.2738 11.1113 25.3412 11.2975C24.5887 10.4962 23.5163 10 22.3463 10C20.0763 10 18.2487 11.8425 18.2487 14.1012C18.2487 14.4262 18.2762 14.7387 18.3438 15.0363C14.935 14.87 11.9188 13.2363 9.8925 10.7475C9.53875 11.3613 9.33125 12.0638 9.33125 12.82C9.33125 14.24 10.0625 15.4988 11.1525 16.2275C10.4938 16.215 9.8475 16.0238 9.3 15.7225C9.3 15.735 9.3 15.7513 9.3 15.7675C9.3 17.76 10.7212 19.415 12.585 19.7963C12.2513 19.8875 11.8875 19.9313 11.51 19.9313C11.2475 19.9313 10.9825 19.9163 10.7338 19.8612C11.265 21.485 12.7725 22.6788 14.565 22.7175C13.17 23.8088 11.3988 24.4663 9.48125 24.4663C9.145 24.4663 8.8225 24.4513 8.5 24.41C10.3162 25.5813 12.4688 26.25 14.79 26.25C22.335 26.25 26.46 20 26.46 14.5825C26.46 14.4013 26.4538 14.2263 26.445 14.0525C27.2587 13.475 27.9425 12.7538 28.5 11.9238Z" fill="white"/>
</svg>
