<svg width="41" height="40" viewBox="0 0 41 40" fill="none" xmlns="http://www.w3.org/2000/svg">
<g clip-path="url(#clip0_4563_100268)">
<path d="M0.758667 40L3.51726 30C1.72421 26.8966 0.758667 23.4483 0.758667 19.862C0.758667 8.96555 9.72421 0 20.6897 0C31.6552 0 40.7587 8.96555 40.7587 19.862C40.7587 30.7585 31.6552 40 20.6897 40C17.2414 40 13.9311 38.8966 10.9655 37.2414L0.758667 40Z" fill="#44E880" fill-opacity="0.5"/>
<path d="M10.9455 34.4998L11.6047 34.8659C14.3142 36.5502 17.4633 37.5755 20.7587 37.5755C30.3521 37.5755 38.3345 29.5932 38.3345 19.8533C38.3345 10.1134 30.3521 2.42401 20.6855 2.42401C11.0188 2.42401 3.18295 10.1866 3.18295 19.8533C3.18295 23.222 4.13498 26.5174 5.89254 29.3002L6.33197 29.9594L4.64767 36.1109L10.9455 34.4998Z" fill="#26D366"/>
<path d="M15.3801 10.6204L14.0698 10.5514C13.656 10.5514 13.2422 10.6894 12.9664 10.9652C12.3457 11.5169 11.3112 12.5514 11.0354 13.9308C10.5526 15.9997 11.3112 18.4825 13.1043 20.9652C14.8975 23.448 18.3457 27.4479 24.4147 29.1721C26.3457 29.7238 27.8629 29.379 29.1043 28.6204C30.0699 27.9997 30.6905 27.0342 30.8975 25.9997L31.1043 25.0341C31.1733 24.7583 31.0354 24.4134 30.7595 24.2755L26.4147 22.2755C26.1388 22.1376 25.794 22.2065 25.5871 22.4824L23.8629 24.6893C23.725 24.8272 23.5181 24.8962 23.3112 24.8272C22.1388 24.4134 18.2078 22.7583 16.0698 18.6204C16.0008 18.4135 16.0008 18.2065 16.1388 18.0687L17.794 16.2066C17.9319 15.9997 18.0008 15.7239 17.9319 15.5169L15.9319 11.0342C15.8629 10.8273 15.656 10.6204 15.3801 10.6204Z" fill="white"/>
</g>
<defs>
<clipPath id="clip0_4563_100268">
<rect width="40" height="40" fill="white" transform="translate(0.758667)"/>
</clipPath>
</defs>
</svg>
