<svg width="808" height="673" viewBox="0 0 808 673" fill="none" xmlns="http://www.w3.org/2000/svg">
<g clip-path="url(#clip0_24_11421)">
<path d="M345.68 433.207L344.192 442.292L342.607 452.056L328.047 541.072H304.25L318.793 452.056L320.395 442.292L321.883 433.207H345.68Z" fill="#EBEBEB"/>
<path d="M342.234 433.207C340.989 442.228 339.63 451.233 338.271 460.238L334.081 487.22L329.681 514.171L327.416 527.63L325.054 541.089L326.995 527.565L329.017 514.058L333.224 487.075L337.624 460.125C339.096 451.136 340.617 442.163 342.234 433.207Z" fill="#C7C7C7"/>
<path d="M344.192 442.292L342.606 452.056H318.793L320.395 442.292H344.192Z" fill="#C7C7C7"/>
<path d="M463.193 433.207L464.666 442.292L466.267 452.056L480.827 541.072H504.624L490.08 452.056L488.479 442.292L486.99 433.207H463.193Z" fill="#EBEBEB"/>
<path d="M466.72 433.207C467.966 442.228 469.325 451.233 470.684 460.238L474.874 487.22L479.274 514.171L481.539 527.63L483.901 541.089L481.959 527.565L479.937 514.058L475.731 487.075L471.331 460.125C469.842 451.136 468.322 442.163 466.72 433.207Z" fill="#C7C7C7"/>
<path d="M464.666 442.292H488.479L490.08 452.056H466.267L464.666 442.292Z" fill="#C7C7C7"/>
<path d="M344.807 408.161H325.944L328.289 390.602H342.461L344.807 408.161Z" fill="#C7C7C7"/>
<path d="M352.709 381.121C354.397 371.58 348.012 362.481 338.448 360.797C328.884 359.113 319.762 365.483 318.074 375.024C316.386 384.564 322.771 393.664 332.335 395.348C341.9 397.031 351.021 390.662 352.709 381.121Z" fill="#DBDBDB"/>
<path d="M348.422 381.139C350.126 373.966 345.678 366.774 338.488 365.074C331.298 363.375 324.088 367.811 322.384 374.984C320.68 382.156 325.127 389.349 332.318 391.048C339.508 392.748 346.718 388.312 348.422 381.139Z" fill="white"/>
<path d="M346.554 377.289C346.311 374.029 344.661 371.027 342.186 369.107C339.711 367.17 336.443 366.283 333.191 366.751C330.053 367.219 327.206 369.074 325.458 371.769C323.679 374.464 323.08 377.999 324.051 381.388C324.827 384.18 326.769 386.584 329.276 387.988C331.768 389.408 334.76 389.844 337.462 389.247C340.18 388.682 342.639 387.149 344.321 385.051C346.02 382.969 347.039 380.323 347.152 377.628C347.152 377.498 347.12 377.385 347.039 377.385C346.974 377.385 346.926 377.482 346.91 377.611C346.861 378.709 346.619 379.79 346.279 380.823C345.907 381.856 345.405 382.824 344.807 383.712C344.176 384.599 343.448 385.39 342.623 386.116C341.781 386.81 340.859 387.407 339.84 387.907C337.009 389.263 333.628 389.36 330.716 388.117C327.804 386.907 325.475 384.389 324.52 381.339C323.501 378.112 324.002 374.658 325.685 371.995C327.351 369.333 330.15 367.493 333.207 367.057C337.43 366.444 341.701 367.993 344.289 371.463C344.92 372.318 345.405 373.254 345.777 374.239C346.133 375.223 346.36 376.272 346.473 377.337C346.473 377.369 346.505 377.385 346.521 377.369C346.554 377.369 346.554 377.321 346.554 377.289Z" fill="#EBEBEB"/>
<path d="M344.985 377.305C344.742 374.497 343.302 371.963 341.199 370.317C339.08 368.671 336.297 367.896 333.515 368.284C330.829 368.655 328.354 370.22 326.833 372.544C325.28 374.852 324.73 377.918 325.539 380.871C326.186 383.308 327.885 385.422 330.069 386.632C332.253 387.859 334.858 388.23 337.203 387.698C339.565 387.181 341.684 385.858 343.14 384.018C344.613 382.195 345.486 379.935 345.583 377.579C345.583 377.466 345.551 377.369 345.47 377.369C345.405 377.369 345.357 377.45 345.341 377.563C345.146 381.404 342.687 384.777 339.242 386.455C336.815 387.649 333.871 387.746 331.347 386.681C328.823 385.632 326.785 383.437 325.992 380.807C325.135 378.015 325.604 375.029 327.06 372.754C328.516 370.478 330.943 368.929 333.547 368.59C337.155 368.122 340.746 369.397 342.995 372.334C343.529 373.06 343.949 373.851 344.289 374.69C344.613 375.53 344.807 376.417 344.92 377.337C344.92 377.369 344.952 377.369 344.968 377.369C344.985 377.369 345.001 377.337 344.985 377.305Z" fill="#EBEBEB"/>
<path d="M343.415 377.321C343.173 374.981 341.959 372.899 340.196 371.527C338.433 370.172 336.152 369.526 333.822 369.817C331.59 370.091 329.487 371.382 328.176 373.303C326.833 375.223 326.332 377.821 326.995 380.355C327.513 382.437 328.969 384.26 330.845 385.293C332.706 386.342 334.938 386.649 336.944 386.164C338.95 385.713 340.746 384.567 341.959 383.001C343.189 381.452 343.917 379.548 344.014 377.547C344.014 377.45 343.965 377.369 343.901 377.369C343.836 377.369 343.787 377.434 343.771 377.531C343.577 380.774 341.523 383.566 338.627 385.019C336.588 386.035 334.097 386.148 331.962 385.261C329.826 384.389 328.095 382.517 327.448 380.274C326.753 377.902 327.173 375.4 328.419 373.512C329.665 371.624 331.703 370.365 333.854 370.123C335.359 369.962 336.831 370.123 338.174 370.64C339.517 371.156 340.746 372.012 341.684 373.206C342.137 373.803 342.493 374.464 342.784 375.142C343.059 375.836 343.237 376.579 343.351 377.337C343.367 377.353 343.383 377.369 343.399 377.353C343.415 377.369 343.432 377.337 343.415 377.321Z" fill="#EBEBEB"/>
<path d="M341.862 377.321C341.62 375.433 340.633 373.819 339.225 372.738C337.818 371.673 336.038 371.156 334.162 371.334C332.382 371.511 330.668 372.512 329.551 374.061C328.435 375.594 327.982 377.724 328.484 379.822C328.888 381.549 330.085 383.082 331.638 383.921C333.175 384.777 335.035 385.019 336.686 384.599C338.336 384.212 339.792 383.243 340.778 381.952C341.765 380.661 342.364 379.128 342.461 377.498C342.461 377.418 342.412 377.353 342.348 377.353C342.283 377.353 342.234 377.418 342.218 377.482C342.04 380.113 340.358 382.34 338.045 383.55C336.411 384.405 334.356 384.535 332.609 383.808C330.862 383.098 329.438 381.549 328.937 379.725C328.403 377.789 328.775 375.739 329.81 374.255C330.846 372.754 332.512 371.786 334.21 371.624C335.408 371.527 336.556 371.673 337.608 372.06C338.659 372.447 339.646 373.109 340.406 374.045C340.778 374.513 341.053 375.029 341.312 375.578C341.539 376.127 341.701 376.708 341.814 377.337C341.814 377.353 341.846 377.369 341.862 377.353C341.862 377.369 341.862 377.353 341.862 377.321Z" fill="#EBEBEB"/>
<path d="M482.525 408.161H463.646L465.992 390.602H480.18L482.525 408.161Z" fill="#C7C7C7"/>
<path d="M490.507 380.696C491.972 371.118 485.377 362.169 475.776 360.707C466.175 359.245 457.203 365.824 455.738 375.402C454.272 384.98 460.867 393.929 470.469 395.391C480.07 396.853 489.041 390.274 490.507 380.696Z" fill="#DBDBDB"/>
<path d="M486.349 380.076C487.463 372.789 482.445 365.981 475.14 364.869C467.836 363.758 461.011 368.764 459.897 376.051C458.782 383.337 463.801 390.146 471.105 391.257C478.41 392.369 485.235 387.363 486.349 380.076Z" fill="white"/>
<path d="M484.273 377.289C484.03 374.029 482.38 371.027 479.905 369.107C477.43 367.17 474.162 366.282 470.91 366.75C467.772 367.218 464.924 369.074 463.177 371.769C461.398 374.464 460.799 377.999 461.77 381.388C462.546 384.179 464.488 386.584 466.995 387.988C469.486 389.408 472.479 389.844 475.181 389.247C477.899 388.682 480.358 387.149 482.056 385.051C483.755 382.969 484.774 380.323 484.887 377.627C484.887 377.498 484.855 377.385 484.774 377.385C484.709 377.385 484.661 377.482 484.645 377.611C484.596 378.709 484.354 379.79 484.014 380.823C483.642 381.856 483.14 382.824 482.542 383.711C481.911 384.599 481.183 385.39 480.358 386.116C479.516 386.81 478.594 387.407 477.575 387.907C474.744 389.263 471.363 389.36 468.451 388.117C465.539 386.907 463.21 384.389 462.255 381.339C461.236 378.112 461.737 374.658 463.42 371.995C465.086 369.333 467.885 367.493 470.942 367.057C475.165 366.444 479.436 367.993 482.024 371.463C482.655 372.318 483.14 373.254 483.512 374.238C483.868 375.223 484.095 376.272 484.208 377.337C484.208 377.369 484.24 377.385 484.256 377.369C484.273 377.369 484.273 377.321 484.273 377.289Z" fill="#EBEBEB"/>
<path d="M482.703 377.305C482.461 374.497 481.021 371.963 478.918 370.317C476.799 368.671 474.016 367.896 471.234 368.284C468.548 368.655 466.073 370.22 464.552 372.544C462.999 374.852 462.449 377.918 463.258 380.871C463.905 383.308 465.604 385.422 467.788 386.632C469.972 387.859 472.576 388.23 474.922 387.698C477.284 387.181 479.403 385.858 480.859 384.018C482.331 382.195 483.205 379.935 483.302 377.579C483.302 377.466 483.27 377.369 483.189 377.369C483.124 377.369 483.059 377.45 483.059 377.563C482.865 381.404 480.406 384.777 476.96 386.455C474.534 387.649 471.59 387.746 469.066 386.681C466.542 385.632 464.504 383.437 463.711 380.807C462.854 378.015 463.307 375.029 464.779 372.754C466.235 370.478 468.661 368.929 471.266 368.59C474.874 368.122 478.465 369.397 480.714 372.334C481.247 373.06 481.668 373.851 482.008 374.69C482.331 375.53 482.525 376.417 482.639 377.337C482.639 377.369 482.671 377.369 482.687 377.369C482.703 377.369 482.703 377.337 482.703 377.305Z" fill="#EBEBEB"/>
<path d="M481.134 377.321C480.892 374.981 479.678 372.899 477.915 371.527C476.152 370.172 473.871 369.526 471.541 369.817C469.309 370.091 467.222 371.382 465.895 373.303C464.552 375.223 464.051 377.821 464.714 380.355C465.232 382.437 466.688 384.26 468.548 385.293C470.409 386.342 472.641 386.649 474.647 386.164C476.653 385.713 478.449 384.567 479.662 383.001C480.892 381.452 481.619 379.548 481.717 377.547C481.717 377.45 481.668 377.369 481.603 377.369C481.539 377.369 481.49 377.434 481.474 377.531C481.28 380.774 479.225 383.566 476.33 385.019C474.291 386.035 471.8 386.148 469.664 385.261C467.529 384.389 465.798 382.517 465.151 380.274C464.455 377.902 464.876 375.4 466.122 373.512C467.367 371.624 469.406 370.365 471.557 370.123C473.062 369.962 474.534 370.123 475.877 370.64C477.219 371.156 478.449 372.011 479.387 373.206C479.84 373.803 480.196 374.464 480.487 375.142C480.762 375.836 480.94 376.579 481.053 377.337C481.069 377.353 481.086 377.369 481.102 377.353C481.134 377.369 481.134 377.337 481.134 377.321Z" fill="#EBEBEB"/>
<path d="M479.565 377.321C479.322 375.433 478.335 373.819 476.928 372.738C475.521 371.673 473.741 371.156 471.864 371.334C470.085 371.511 468.37 372.512 467.254 374.061C466.138 375.594 465.685 377.724 466.186 379.822C466.591 381.549 467.788 383.082 469.341 383.921C470.878 384.777 472.738 385.019 474.388 384.599C476.038 384.212 477.494 383.243 478.481 381.952C479.468 380.661 480.066 379.128 480.164 377.498C480.164 377.418 480.115 377.353 480.05 377.353C479.986 377.353 479.937 377.418 479.921 377.482C479.743 380.113 478.06 382.34 475.747 383.55C474.113 384.405 472.059 384.534 470.311 383.808C468.564 383.098 467.141 381.549 466.639 379.725C466.105 377.789 466.477 375.739 467.513 374.255C468.548 372.754 470.214 371.786 471.913 371.624C473.11 371.527 474.259 371.673 475.31 372.06C476.362 372.447 477.349 373.109 478.109 374.045C478.481 374.513 478.756 375.029 479.015 375.578C479.241 376.127 479.403 376.708 479.516 377.337C479.533 377.353 479.549 377.369 479.565 377.353C479.565 377.369 479.581 377.353 479.565 377.321Z" fill="#EBEBEB"/>
<path d="M523.018 399.204H285.84V444.455H523.018V399.204Z" fill="#DFD9B8"/>
<path d="M334.599 399.204L317.386 444.471H286.746L303.959 399.204H334.599Z" fill="#EBEBEB"/>
<path d="M397.383 399.204L380.171 444.471H349.53L366.743 399.204H397.383Z" fill="#EBEBEB"/>
<path d="M460.168 399.204L442.939 444.471H412.315L429.528 399.204H460.168Z" fill="#EBEBEB"/>
<path d="M522.953 399.204L505.74 444.471H475.1L492.313 399.204H522.953Z" fill="#EBEBEB"/>
<path d="M518.229 486.3H290.644V514.945H518.229V486.3Z" fill="#DFD9B8"/>
<path d="M337.414 486.3L320.912 514.945H291.518L308.035 486.3H337.414Z" fill="#EBEBEB"/>
<path d="M397.675 486.3L381.157 514.945H351.747L368.264 486.3H397.675Z" fill="#EBEBEB"/>
<path d="M457.903 486.3L441.386 514.945H411.992L428.509 486.3H457.903Z" fill="#EBEBEB"/>
<path d="M518.148 486.3L501.631 514.945H472.237L488.754 486.3H518.148Z" fill="#EBEBEB"/>
<path d="M58.0933 541.492L143.866 541.089L229.639 540.959L401.201 540.685L572.763 540.959L658.536 541.089L744.309 541.492L658.536 541.879L572.763 542.025L401.201 542.299L229.639 542.025L143.866 541.879L58.0933 541.492Z" fill="#D3D3D3"/>
<path d="M404.437 668.675C592.143 668.675 744.309 650.98 744.309 629.153C744.309 607.326 592.143 589.631 404.437 589.631C216.73 589.631 64.5643 607.326 64.5643 629.153C64.5643 650.98 216.73 668.675 404.437 668.675Z" fill="#F5F5F5"/>
<path d="M448.876 636.512C452.241 637.642 548.562 637.981 552.25 635.689C553.658 634.818 554.515 620.826 555.081 603.897C555.211 600.234 555.308 596.458 555.389 592.633L563.203 541.379L498.8 540.959L492.717 592.23L492.96 603.51C492.96 603.51 456.027 619.842 452.257 622.795C448.537 625.732 445.528 635.383 448.876 636.512Z" fill="#EFBFA5"/>
<path d="M448.877 636.512C452.241 637.642 548.562 637.981 552.251 635.689C553.949 634.624 554.887 614.193 555.405 592.617L492.75 592.214L492.992 603.494C492.992 603.494 456.059 619.826 452.29 622.779C448.537 625.732 445.528 635.383 448.877 636.512Z" fill="white"/>
<path d="M448.876 636.512C452.241 637.642 548.562 637.981 552.25 635.689C553.658 634.818 554.515 620.826 555.081 603.897L492.976 603.494C492.976 603.494 456.043 619.826 452.273 622.779C448.536 625.732 445.527 635.383 448.876 636.512Z" fill="#2D4054"/>
<path d="M450.284 632.671C466.429 632.332 531.592 632.478 547.591 633.381C547.721 633.381 547.721 633.478 547.591 633.478C531.592 634.156 466.429 633.478 450.284 632.929C449.928 632.929 449.928 632.687 450.284 632.671Z" fill="#17222F"/>
<path d="M657.841 304.458C657.841 304.458 583.052 431.367 581.062 440.275C577.989 453.96 561.682 589.18 561.682 589.18L483.868 587.776C483.868 587.776 497.279 468.565 509.979 429.285C519.135 400.995 585.123 307.169 585.123 307.169L657.841 304.458Z" fill="#384E65"/>
<path d="M490.922 575.882C502.1 575.801 541.687 575.349 556.57 576.737C556.683 576.753 556.683 576.931 556.57 576.947C551.458 577.673 502.084 576.544 490.922 576.189C490.711 576.189 490.711 575.882 490.922 575.882Z" fill="#263238"/>
<path d="M645.077 316.11C640.175 323.775 634.998 331.279 629.999 338.88C624.984 346.481 619.985 354.098 615.067 361.764C605.215 377.063 595.622 392.539 586.207 408.096C581.79 415.39 577.584 422.765 574.543 430.721C571.534 438.613 569.496 446.811 567.975 455.073C566.454 463.401 565.451 471.808 564.497 480.216C563.494 489.173 562.491 498.129 561.488 507.07C559.433 525.386 557.395 543.719 555.34 562.036C555.081 564.279 554.839 566.538 554.612 568.781C554.58 569.104 555.179 569.169 555.211 568.846C557.492 550.642 559.401 532.374 561.488 514.154C562.523 505.085 563.558 495.999 564.594 486.93C565.564 478.49 566.47 470.049 567.781 461.641C569.075 453.395 570.741 445.181 573.265 437.209C575.886 428.865 579.623 421.038 584.023 413.454C593.034 397.945 602.578 382.695 612.123 367.477C621.749 352.13 631.455 336.831 641.534 321.774C642.779 319.918 644.025 318.062 645.319 316.239C645.416 316.094 645.174 315.948 645.077 316.11Z" fill="#263238"/>
<path d="M591.723 647.196C595.266 647.422 690.843 622.295 693.819 619.132C693.916 619.019 693.997 618.809 694.046 618.486C694.434 615.372 689.532 603.655 686.103 588.663C685.892 587.711 684.097 583.16 681.573 577.012C674.649 560.131 662.273 531.164 662.273 531.164L599.86 547.124L622.849 593.198L625.955 604.043C625.955 604.043 594.392 629.218 591.513 633.043C588.649 636.851 588.196 646.937 591.723 647.196Z" fill="#EFBFA5"/>
<path d="M591.723 647.196C595.266 647.422 690.843 622.295 693.819 619.132C693.917 619.019 693.997 618.809 694.046 618.486C694.434 615.372 689.532 603.655 686.103 588.663C685.892 587.711 684.097 583.16 681.573 577.012L622.849 593.198L625.955 604.043C625.955 604.043 594.393 629.218 591.513 633.043C588.65 636.851 588.197 646.937 591.723 647.196Z" fill="white"/>
<path d="M591.723 647.179C595.266 647.421 690.827 622.278 693.803 619.115C694.936 617.921 692.46 605.027 686.103 588.647L625.939 604.027C625.939 604.027 594.376 629.202 591.497 633.01C588.633 636.851 588.197 646.937 591.723 647.179Z" fill="#2D4054"/>
<path d="M592.095 643.113C607.626 638.691 670.686 622.279 686.378 619.083C686.507 619.051 686.523 619.148 686.41 619.18C671.106 623.908 607.917 639.788 592.176 643.371C591.837 643.451 591.772 643.209 592.095 643.113Z" fill="#17222F"/>
<path d="M618.562 590.245L688.465 571.944C688.465 571.944 621.539 440.533 622.072 431.464C622.558 423.427 671.106 352.904 673.792 339.703C678.192 318.095 667.628 298.794 657.404 286.836L585.091 307.169C585.091 307.169 590.85 319.644 601.43 327.519C601.43 327.519 555.987 403.206 554.823 428.123C553.674 453.169 618.562 590.245 618.562 590.245Z" fill="#2D4054"/>
<path d="M617.235 577.254C627.378 574.349 624.418 575.043 634.594 572.267C639.576 570.911 672.303 561.987 677.157 561.519C677.27 561.503 677.302 561.681 677.205 561.729C672.74 563.73 639.867 572.073 634.869 573.348C624.644 575.93 627.556 575.075 617.3 577.56C617.122 577.593 617.041 577.302 617.235 577.254Z" fill="#263238"/>
<path d="M583.618 152.213C585.172 144.838 593.454 128.135 609.68 131.411C632.846 136.075 636.195 180.6 647.73 194.478C668.615 219.621 669.294 244.506 652.179 248.492C632.992 252.946 614.323 232.418 615.019 187.975C615.456 160.185 607.593 147.872 602.045 148.695C596.496 149.518 593.454 156.538 593.454 156.538L583.618 152.213Z" fill="#17222F"/>
<path d="M584.395 149.437C585.527 146.016 587.08 142.74 589.038 139.658C590.995 136.591 593.487 133.783 596.609 131.718C599.699 129.62 603.517 128.49 607.319 128.619C611.056 128.748 614.792 129.733 618.077 131.589C621.361 133.477 624.062 136.172 626.214 139.157C628.349 142.175 630.032 145.451 631.407 148.808C634.076 155.586 635.678 162.654 636.761 169.755C634.901 162.816 632.782 155.941 629.935 149.421C628.414 146.21 626.764 143.079 624.645 140.287C622.558 137.479 620.034 135.026 617.041 133.332C614.081 131.605 610.651 130.685 607.221 130.507C603.808 130.281 600.395 131.234 597.45 133.025C594.49 134.816 591.95 137.35 589.847 140.19C588.747 141.594 587.808 143.095 586.886 144.644C585.997 146.226 585.172 147.823 584.395 149.437Z" fill="#17222F"/>
<path d="M614.89 172.66C615.132 177.065 614.873 181.487 614.793 185.893C614.647 190.298 614.517 194.688 614.517 199.077C614.534 203.467 614.647 207.84 615.084 212.181C615.504 216.523 616.2 220.831 617.446 224.963C618.659 229.094 620.455 233.064 623.092 236.421C625.745 239.713 629.126 242.601 632.798 244.796C636.503 246.991 640.676 248.411 645.012 248.702C647.18 248.863 649.364 248.766 651.515 248.347C652.583 248.153 653.651 247.879 654.686 247.524C655.721 247.169 656.757 246.781 657.663 246.136C655.932 247.524 653.764 248.298 651.628 248.863C649.461 249.428 647.228 249.686 644.963 249.686C642.715 249.654 640.466 249.315 638.282 248.734C636.098 248.137 633.995 247.249 632.021 246.168C630.032 245.087 628.155 243.812 626.424 242.376L625.146 241.278L623.917 240.116C623.092 239.342 622.315 238.486 621.603 237.599C618.724 234.032 616.831 229.82 615.521 225.528C613.013 216.861 612.673 207.857 612.948 199.045C613.094 194.623 613.434 190.218 613.822 185.828C614.226 181.439 614.663 177.065 614.89 172.66Z" fill="#17222F"/>
<path d="M582.292 152.342C582.033 150.293 583.279 147.501 584.573 147C585.867 146.5 596.188 149.808 597.272 152.261C598.356 154.714 594.166 157.377 594.166 157.377L582.292 152.342Z" fill="#EF6167"/>
<path d="M594.651 225.027C588.294 234.081 542.301 271.521 517.242 272.908C505.934 273.538 461.624 268.729 451.756 264.678C439.639 259.691 463.582 229.772 471.185 231.047C480.681 232.628 514.298 236.195 520.979 236.372C531.721 236.663 564.626 218.62 586.854 213.924C598.291 211.52 599.569 218.056 594.651 225.027Z" fill="#EFBFA5"/>
<path d="M594.15 226.738C587.129 238.954 562.345 259.885 562.345 259.885L558.123 252.123L544.129 226.447C544.129 226.447 567.619 217.104 583.198 212.569C585.301 211.956 587.161 211.536 588.795 211.342C598.874 210.067 600.2 216.232 594.15 226.738Z" fill="#DBDBDB"/>
<path d="M594.15 226.738C587.129 238.938 562.345 259.901 562.345 259.901L558.107 252.123L555.227 246.829L544.129 226.463C544.129 226.463 567.635 217.119 583.214 212.585C585.317 211.988 587.178 211.568 588.811 211.358C589.022 211.342 589.216 211.31 589.41 211.31C598.922 210.325 600.087 216.458 594.15 226.738Z" fill="#00665F"/>
<path d="M564.853 220.137C565.16 221.267 565.241 222.397 565.257 223.526C565.241 224.656 565.176 225.786 564.853 226.915C564.529 225.786 564.464 224.656 564.448 223.526C564.464 222.397 564.529 221.267 564.853 220.137Z" fill="#04413C"/>
<path d="M561.601 233.839C560.469 234.145 559.336 234.226 558.204 234.242C557.071 234.226 555.939 234.161 554.806 233.839C555.939 233.516 557.071 233.451 558.204 233.435C559.336 233.451 560.469 233.516 561.601 233.839Z" fill="#04413C"/>
<path d="M595.946 214.893C594.813 215.199 593.681 215.28 592.548 215.296C591.416 215.28 590.284 215.215 589.151 214.893C590.284 214.57 591.416 214.505 592.548 214.489C593.681 214.505 594.813 214.57 595.946 214.893Z" fill="white"/>
<path d="M577.228 228.642C578.247 229.223 579.105 229.965 579.914 230.756C580.706 231.563 581.451 232.418 582.033 233.435C581.014 232.854 580.156 232.112 579.348 231.321C578.555 230.514 577.794 229.675 577.228 228.642Z" fill="white"/>
<path d="M564.173 244.796C565.192 245.377 566.05 246.12 566.859 246.91C567.651 247.717 568.396 248.572 568.978 249.589C567.959 249.008 567.101 248.266 566.292 247.475C565.5 246.668 564.739 245.813 564.173 244.796Z" fill="white"/>
<path d="M594.15 226.738C587.129 238.938 562.345 259.901 562.345 259.901L558.107 252.123L555.227 246.83C568.67 233.597 584.88 217.313 589.41 211.294C598.922 210.326 600.087 216.458 594.15 226.738Z" fill="#03413C"/>
<path d="M571.227 282.995L574.899 323.323C574.899 323.323 579.898 323.243 589.669 321.855C598.55 320.58 611.363 318.24 627.961 313.899C640.466 310.623 655.123 306.217 671.866 300.278C671.866 300.278 633.979 232.08 607.82 213.263C607.221 212.827 606.623 212.424 606.04 212.052C605.927 211.956 605.814 211.891 605.701 211.826C593.81 204.322 583.133 210.18 577.083 218.588C575.594 220.67 561.035 253.704 561.747 264.759C562.426 274.506 571.227 282.995 571.227 282.995Z" fill="#06847B"/>
<path d="M592.257 239.81C592.565 240.939 592.646 242.069 592.662 243.199C592.646 244.328 592.581 245.458 592.257 246.588C591.934 245.458 591.869 244.328 591.853 243.199C591.869 242.069 591.95 240.939 592.257 239.81Z" fill="white"/>
<path d="M601.478 278.686C601.786 279.815 601.867 280.945 601.883 282.075C601.867 283.204 601.802 284.334 601.478 285.464C601.155 284.334 601.09 283.204 601.074 282.075C601.09 280.945 601.171 279.815 601.478 278.686Z" fill="white"/>
<path d="M629.757 254.64C630.064 255.77 630.145 256.9 630.161 258.029C630.145 259.159 630.08 260.289 629.757 261.418C629.433 260.289 629.368 259.159 629.352 258.029C629.368 256.9 629.433 255.77 629.757 254.64Z" fill="#04413C"/>
<path d="M577.956 273.538C578.264 274.667 578.345 275.797 578.361 276.927C578.345 278.056 578.28 279.186 577.956 280.316C577.633 279.186 577.568 278.056 577.552 276.927C577.568 275.797 577.633 274.667 577.956 273.538Z" fill="#04413C"/>
<path d="M613.563 247.588C612.43 247.895 611.298 247.975 610.166 247.992C609.033 247.975 607.901 247.911 606.768 247.588C607.901 247.265 609.033 247.201 610.166 247.185C611.298 247.201 612.43 247.281 613.563 247.588Z" fill="white"/>
<path d="M637.635 277.669C636.503 277.976 635.37 278.056 634.238 278.073C633.105 278.056 631.973 277.992 630.841 277.669C631.973 277.346 633.105 277.282 634.238 277.266C635.37 277.282 636.503 277.363 637.635 277.669Z" fill="#04413C"/>
<path d="M601.042 301.537C599.909 301.844 598.777 301.924 597.644 301.941C596.512 301.924 595.38 301.86 594.247 301.537C595.38 301.214 596.512 301.15 597.644 301.134C598.777 301.15 599.909 301.214 601.042 301.537Z" fill="white"/>
<path d="M643.653 296.938C642.521 297.244 641.388 297.325 640.256 297.341C639.123 297.325 637.991 297.261 636.858 296.938C637.991 296.615 639.123 296.551 640.256 296.534C641.388 296.551 642.521 296.631 643.653 296.938Z" fill="#04413C"/>
<path d="M595.946 214.893C594.813 215.199 593.681 215.28 592.548 215.296C591.416 215.28 590.284 215.215 589.151 214.893C590.284 214.57 591.416 214.505 592.548 214.489C593.681 214.505 594.813 214.57 595.946 214.893Z" fill="white"/>
<path d="M607.771 219.282C608.791 219.863 609.648 220.605 610.457 221.396C611.25 222.203 611.994 223.058 612.576 224.075C611.557 223.494 610.7 222.752 609.891 221.961C609.098 221.154 608.338 220.299 607.771 219.282Z" fill="white"/>
<path d="M643.119 257.029C644.138 257.61 644.996 258.352 645.805 259.143C646.597 259.95 647.342 260.805 647.924 261.822C646.905 261.241 646.047 260.498 645.238 259.708C644.446 258.885 643.685 258.045 643.119 257.029Z" fill="#04413C"/>
<path d="M586.579 261.063C587.598 261.644 588.456 262.387 589.264 263.177C590.057 263.984 590.801 264.84 591.384 265.856C590.365 265.275 589.507 264.533 588.698 263.742C587.906 262.935 587.161 262.08 586.579 261.063Z" fill="white"/>
<path d="M619.015 288.336C620.034 288.917 620.891 289.66 621.7 290.45C622.493 291.257 623.237 292.113 623.819 293.129C622.8 292.548 621.943 291.806 621.134 291.015C620.341 290.208 619.597 289.353 619.015 288.336Z" fill="white"/>
<path d="M577.228 228.642C578.247 229.223 579.105 229.965 579.914 230.756C580.706 231.563 581.451 232.418 582.033 233.435C581.014 232.854 580.156 232.112 579.348 231.321C578.555 230.514 577.794 229.675 577.228 228.642Z" fill="#04413C"/>
<path d="M574.349 254.64C574.931 253.624 575.675 252.768 576.468 251.961C577.277 251.171 578.134 250.428 579.154 249.847C578.571 250.864 577.827 251.719 577.034 252.526C576.225 253.317 575.368 254.059 574.349 254.64Z" fill="#04413C"/>
<path d="M651.111 283.479C651.693 282.462 652.437 281.607 653.23 280.8C654.039 280.009 654.896 279.267 655.916 278.686C655.333 279.702 654.589 280.558 653.796 281.365C652.988 282.155 652.13 282.898 651.111 283.479Z" fill="#04413C"/>
<path d="M578.539 295.017C579.121 294.001 579.865 293.145 580.658 292.339C581.467 291.548 582.324 290.805 583.343 290.224C582.761 291.241 582.017 292.096 581.224 292.903C580.415 293.71 579.558 294.453 578.539 295.017Z" fill="white"/>
<path d="M621.862 239.406C622.444 238.39 623.188 237.534 623.981 236.727C624.79 235.937 625.647 235.194 626.667 234.613C626.084 235.63 625.34 236.485 624.547 237.292C623.739 238.083 622.881 238.825 621.862 239.406Z" fill="#04413C"/>
<path d="M611.12 311.865C611.703 310.849 612.447 309.993 613.239 309.187C614.048 308.396 614.906 307.653 615.925 307.073C615.343 308.089 614.598 308.945 613.806 309.751C612.997 310.542 612.139 311.284 611.12 311.865Z" fill="#04413C"/>
<path d="M611.153 268.245C611.735 267.228 612.479 266.373 613.272 265.566C614.081 264.775 614.938 264.033 615.957 263.452C615.375 264.468 614.631 265.324 613.838 266.131C613.029 266.921 612.188 267.664 611.153 268.245Z" fill="white"/>
<path d="M598.275 211.149C598.049 212.714 591.61 223.236 584.573 223.51C582.292 223.591 581.257 211.165 581.257 211.165L580.965 210.261L576.97 197.657L591.27 186.667L593.341 185.199C593.341 185.199 594.199 188.717 595.234 193.123C595.282 193.332 595.331 193.526 595.379 193.752C595.444 193.994 595.509 194.236 595.557 194.462C595.719 195.124 595.881 195.785 596.027 196.463C596.14 196.98 596.253 197.464 596.366 198.012C596.48 198.545 596.577 199.077 596.706 199.61C597.758 204.919 598.372 210.487 598.275 211.149Z" fill="#EFBFA5"/>
<path d="M595.266 193.122C592.451 203.677 584.621 208.55 580.981 210.277L576.986 197.673L591.287 186.683L593.357 185.215C593.373 185.199 594.231 188.717 595.266 193.122Z" fill="#EFBFA5"/>
<path d="M559.255 178.631C559.142 201.837 573.071 204.516 578.086 204.548C582.632 204.564 598.146 204.048 600.67 180.971C603.177 157.893 592.403 150.518 581.985 149.921C571.566 149.324 559.369 155.424 559.255 178.631Z" fill="#EFBFA5"/>
<path d="M599.392 182.585C595.59 182.972 594.506 175.016 594.506 175.016C594.506 175.016 586.757 175.226 583.926 164.171C583.926 164.171 584.217 169.351 587.582 173.289C587.582 173.289 573.88 172.176 567.845 160.911C567.845 160.911 570.288 166.673 572.488 168.674C572.488 168.674 566.713 167.221 563.801 162.638C563.801 162.638 561.568 169.287 559.773 171.143C559.773 171.143 557.12 159.443 561.989 153.359C572.246 140.545 589.086 151.68 589.086 151.68C589.086 151.68 598.502 153.101 601.867 160.137C607.044 171.014 599.392 182.585 599.392 182.585Z" fill="#17222F"/>
<path d="M596.949 182.73C596.949 182.73 601.414 175.096 604.843 176.63C608.273 178.163 605.329 188.943 601.592 190.686C597.855 192.429 596.172 189.007 596.172 189.007L596.949 182.73Z" fill="#EFBFA5"/>
<path d="M594.862 208.373C597.709 208.357 602.498 209.083 608.952 213.989C608.952 213.989 595.476 224.801 582.907 224.817C578.425 224.817 577.083 218.572 577.083 218.572C577.083 218.572 583.133 208.47 594.862 208.373Z" fill="#EFBFA5"/>
<path d="M808 673H755.148C716.743 673 693.269 646.518 689.031 598.443C686.944 574.752 685.666 546.059 684.323 515.671C680.182 422.362 674.504 294.566 638.088 294.566H596.237V284.883H638.088C683.773 284.883 688.982 401.996 694.014 515.252C695.356 545.526 696.634 574.123 698.689 597.604C701.326 627.588 713.265 663.317 755.132 663.317H807.984V673H808Z" fill="#D3D3D3"/>
<path opacity="0.2" d="M626.974 284.883L624.903 294.566H596.237V284.883H626.974Z" fill="#696352"/>
<path d="M517.356 231.773H500.434V349.725H517.356V231.773Z" fill="#EF6167"/>
<path d="M500.45 240.487H436.112V339.8H500.45V240.487Z" fill="#BE373D"/>
<path opacity="0.2" d="M500.434 240.487V339.816H484.451L477.284 240.487H500.434Z" fill="#EB5757"/>
<path d="M436.112 273.167H386.755C383.228 273.167 380.381 270.31 380.381 266.808V264.694C380.381 261.176 383.244 258.336 386.755 258.336H436.112V273.167Z" fill="#D3D3D3"/>
<path d="M436.096 258.32H418.77V273.151H436.096V258.32Z" fill="#999999"/>
<path d="M436.112 321.968H386.755C383.228 321.968 380.381 319.111 380.381 315.609V313.495C380.381 309.977 383.244 307.137 386.755 307.137H436.112V321.968Z" fill="#D3D3D3"/>
<path d="M436.096 307.137H418.77V321.968H436.096V307.137Z" fill="#999999"/>
<path d="M617.348 280.671H567.085V300.472H617.348V280.671Z" fill="#FFC727"/>
<path d="M617.348 280.687H567.085V300.488H617.348V280.687Z" fill="#787878"/>
<path opacity="0.2" d="M584.735 280.687L583.085 300.472H567.085V280.687H584.735Z" fill="#6B4A4C"/>
<path d="M557.136 336.056H517.356V244.215H557.136C562.636 244.215 567.085 248.653 567.085 254.14V326.131C567.085 331.618 562.62 336.056 557.136 336.056Z" fill="#BE373D"/>
<path opacity="0.2" d="M538.516 244.231L531.365 336.072H517.356V244.231H538.516Z" fill="#EB5757"/>
<g opacity="0.2">
<path opacity="0.2" d="M534.811 262.79H531.64V317.498H534.811V262.79Z" fill="#BB9022"/>
<path opacity="0.2" d="M543.806 262.79H540.635V317.498H543.806V262.79Z" fill="#BB9022"/>
<path opacity="0.2" d="M552.8 262.79H549.63V317.498H552.8V262.79Z" fill="#BB9022"/>
</g>
<path d="M612.69 225.269C618.255 240.842 610.295 297.938 600.864 309.977C586.838 327.874 559.174 344.367 548.578 349.499C543.968 351.742 523.228 318.692 527.758 315.593C537.448 308.961 568.379 293.129 571 289.982C573.621 286.836 587.728 256.609 593.374 239.616C600.945 216.813 609.858 217.394 612.69 225.269Z" fill="#EFBFA5"/>
<path d="M548.546 349.612C533.857 357.971 504.672 356.745 500.677 355.519C497.279 354.502 495.532 353.937 495.532 353.937C489.401 352.226 487.751 348.837 487.751 348.837C487.751 348.837 480.083 348.934 479.258 344.319C478.319 339.139 489.271 340.026 495.597 336.831C510.076 329.504 528.615 315.061 532.579 312.543L548.546 349.612Z" fill="#EFBFA5"/>
<path d="M512.502 326.906C514.007 325.212 513.133 324.405 509.154 325.131C505.125 325.857 490.048 332.07 488.317 326.632C486.57 321.161 508.07 312.705 514.783 312.011C521.497 311.301 532.967 312.543 532.967 312.543C529.1 315.028 519.976 321.936 512.502 326.906Z" fill="#EFBFA5"/>
<path d="M597.078 229.191C606.865 208.647 615.795 214.086 616.653 234.403C617.446 253.398 614.776 276.653 614.776 276.653L579.299 266.502C579.283 266.502 590.817 242.343 597.078 229.191Z" fill="#00665F"/>
<path d="M605.911 217.216C606.93 217.797 607.788 218.54 608.597 219.331C609.389 220.137 610.133 220.993 610.716 222.009C609.697 221.428 608.839 220.686 608.03 219.895C607.238 219.088 606.493 218.233 605.911 217.216Z" fill="#04413C"/>
<path d="M592.257 239.81C592.565 240.939 592.646 242.069 592.662 243.199C592.646 244.328 592.581 245.458 592.257 246.588C591.934 245.458 591.869 244.328 591.853 243.199C591.869 242.069 591.95 240.939 592.257 239.81Z" fill="#04413C"/>
<path d="M613.563 247.588C612.43 247.895 611.298 247.975 610.166 247.992C609.033 247.975 607.901 247.911 606.768 247.588C607.901 247.265 609.033 247.201 610.166 247.185C611.298 247.201 612.43 247.281 613.563 247.588Z" fill="#04413C"/>
<path d="M586.579 261.063C587.598 261.644 588.456 262.387 589.264 263.177C590.057 263.984 590.801 264.84 591.384 265.856C590.365 265.275 589.507 264.533 588.698 263.742C587.906 262.935 587.161 262.08 586.579 261.063Z" fill="#04413C"/>
<path d="M611.153 268.245C611.735 267.228 612.479 266.373 613.272 265.566C614.081 264.775 614.938 264.033 615.957 263.452C615.375 264.468 614.631 265.324 613.838 266.131C613.029 266.921 612.188 267.664 611.153 268.245Z" fill="#04413C"/>
<path d="M439.38 265.727C444.282 267.212 443.23 260.611 443.23 260.611C443.23 260.611 447.032 269.778 452.678 269.358C458.114 268.955 456.577 260.999 456.48 260.434C456.69 260.918 460.395 269.245 466.024 268.245C471.881 267.212 468.952 259.498 468.775 258.998C469.114 259.385 473.66 264.549 477.769 262.822C484.823 259.853 473.563 246.362 474.388 240.229L484.305 240.52C484.628 240.471 484.968 240.439 485.276 240.374L485.664 235.323C482.833 234.323 479.63 232.467 476.507 230.724C472.77 228.626 469.163 226.722 466.477 226.673C462.061 226.593 460.896 230.369 460.896 230.369C460.896 230.369 457.984 225.786 453.535 226.431C451.254 226.77 449.75 230.724 449.75 230.724C449.75 230.724 447.275 227.157 443.344 227.98C440.205 228.626 439.186 232.483 439.186 232.483C439.186 232.483 435.206 230.159 432.214 231.854C426.147 235.259 428.897 262.532 439.38 265.727Z" fill="#EFBFA5"/>
<path d="M475.666 239.729L484.305 240.52C484.629 240.471 484.968 240.439 485.276 240.374C496.195 238.406 502.974 225.947 495.079 225.06C489.061 224.366 482.574 232.322 476.507 230.724V230.74L475.666 239.729Z" fill="#EFBFA5"/>
<path d="M332.771 627.378C329.406 628.492 233.538 628.217 229.882 625.893C228.507 625.022 227.73 611.079 227.277 594.231C227.18 590.584 227.099 586.84 227.035 582.999C226.954 578.48 226.905 573.897 226.873 569.443C226.76 549.464 227.035 531.874 227.035 531.874H289.447L289.415 569.443L289.399 582.999L289.075 594.231C289.075 594.231 325.733 610.724 329.454 613.693C333.191 616.646 336.119 626.281 332.771 627.378Z" fill="#AD6359"/>
<path d="M332.771 627.378C329.406 628.492 233.538 628.217 229.882 625.893C228.507 625.022 227.73 611.079 227.277 594.231C227.18 590.584 227.099 586.84 227.035 582.999C226.954 578.48 226.905 573.897 226.873 569.443H289.431L289.415 582.999L289.091 594.231C289.091 594.231 325.75 610.724 329.47 613.693C333.191 616.646 336.119 626.281 332.771 627.378Z" fill="white"/>
<path d="M333.062 627.523C330.878 628.233 290.03 628.395 260.295 627.765C253.42 627.62 247.127 627.426 242.047 627.217C235.042 626.894 230.351 626.507 229.591 626.039C227.908 624.957 227.099 604.494 226.711 582.918H289.431L289.108 594.199C289.108 594.199 325.976 610.772 329.729 613.758C333.482 616.743 336.427 626.394 333.062 627.523Z" fill="#2D4054"/>
<path d="M331.687 623.666C315.525 623.231 250.298 622.956 234.298 623.747C234.169 623.747 234.169 623.844 234.298 623.844C250.314 624.635 315.525 624.36 331.687 623.925C332.026 623.925 332.043 623.682 331.687 623.666Z" fill="#17222F"/>
<path d="M298.329 578.512L220.968 579.9C220.968 579.9 210.437 511.621 203.496 469.13C200.876 453.169 198.805 440.856 197.964 437.128C195.958 428.268 156.744 287.642 156.744 287.642L212.993 287.562L232.195 287.546C232.195 287.546 230.966 311.059 231.694 313.528C241.724 347.562 262.221 407.918 268.627 428.946C278.479 461.319 298.329 578.512 298.329 578.512Z" fill="#283B50"/>
<path d="M236.822 642.612C233.457 643.726 137.589 643.452 133.933 641.128C132.558 640.272 131.782 626.313 131.329 609.465C131.232 605.818 131.151 602.074 131.086 598.233C131.005 593.714 130.957 589.131 130.924 584.677C130.811 564.698 131.086 547.108 131.086 547.108H193.499L193.466 584.677L193.45 598.233L193.127 609.465C193.127 609.465 229.785 625.958 233.506 628.927C237.243 631.881 240.171 641.515 236.822 642.612Z" fill="#AD6359"/>
<path d="M236.822 642.612C233.457 643.726 137.589 643.452 133.933 641.128C132.558 640.272 131.782 626.313 131.329 609.465C131.232 605.818 131.151 602.074 131.086 598.233C131.005 593.714 130.957 589.131 130.924 584.677H193.483L193.466 598.233L193.143 609.465C193.143 609.465 229.801 625.958 233.522 628.927C237.243 631.881 240.171 641.515 236.822 642.612Z" fill="white"/>
<path d="M237.113 642.758C234.929 643.468 194.081 643.613 164.347 643C157.472 642.854 151.178 642.661 146.099 642.451C139.094 642.128 134.402 641.741 133.642 641.273C131.96 640.192 131.151 619.729 130.763 598.152H193.483L193.159 609.433C193.159 609.433 230.027 626.006 233.781 628.992C237.518 631.961 240.478 641.628 237.113 642.758Z" fill="#2D4054"/>
<path d="M235.738 638.901C219.577 638.465 154.349 638.191 138.35 638.981C138.22 638.981 138.22 639.078 138.35 639.078C154.365 639.869 219.577 639.595 235.738 639.159C236.078 639.159 236.078 638.917 235.738 638.901Z" fill="#17222F"/>
<path d="M202.267 592.811H126.524C126.524 592.811 142.96 358.698 140.307 345.561C135.955 324.082 138.867 299.407 149.043 287.529H216.39C216.39 287.529 217.733 306.379 210.776 317.643C210.776 317.643 204.467 321.629 201.393 323.388L202.267 592.811Z" fill="#2D4054"/>
<path d="M206.408 313.673C206.004 314.964 205.713 316.303 205.486 317.643C205.308 318.676 205.049 319.805 205.276 320.838C205.324 321.032 205.599 321.032 205.697 320.87C206.295 319.934 206.473 318.724 206.748 317.659C207.072 316.433 207.411 315.206 207.703 313.963C207.913 313.14 206.667 312.866 206.408 313.673Z" fill="#263238"/>
<path d="M205.81 307.202C205.988 306.072 206.166 304.958 206.376 303.845C206.586 302.683 206.878 301.537 206.991 300.359C207.007 300.182 207.314 300.23 207.282 300.424C207.104 301.553 207.088 302.699 206.991 303.845C206.894 304.991 206.797 306.12 206.683 307.25C206.473 309.364 206.101 311.494 205.68 313.592C206.78 313.334 207.897 313.027 208.77 312.317C209.725 311.543 210.129 310.236 210.42 309.09C210.744 307.799 211.035 306.508 211.375 305.233C211.763 303.813 212.232 302.409 212.362 300.94C212.378 300.763 212.669 300.811 212.653 301.005C212.281 304.055 211.925 307.105 210.938 310.058C210.55 311.22 210.291 312.398 209.239 313.043C208.107 313.754 206.764 313.963 205.47 314.157C205.324 314.238 205.098 314.173 205.114 313.979C205.26 311.704 205.454 309.412 205.81 307.202Z" fill="#263238"/>
<path d="M206.813 209.148C208.204 220.121 229.752 260.902 252.692 278.992C261.104 285.625 305.706 289.547 316.852 288.691C329.923 287.691 331.881 256.674 324.552 254.253C315.412 251.235 273.14 247.507 264.825 244.506C254.73 240.859 236.353 217.442 218.897 202.951C209.919 195.495 205.745 200.707 206.813 209.148Z" fill="#AD6359"/>
<path d="M316.868 288.691C320.993 288.578 339.889 286.416 345.001 284.641C350.129 282.866 364.479 276.685 363.524 272.634C362.553 268.584 358.202 270.052 358.202 270.052C358.202 270.052 363.848 266.486 362.505 262.5C361.162 258.513 354.465 261.031 354.465 261.031C354.465 261.031 359.997 256.948 358.38 253.059C356.762 249.17 350.453 252.833 350.453 252.833C350.453 252.833 355.694 249.331 352.992 246.7C349.757 243.521 340.843 251.074 335.035 252.607C333.725 252.962 307.841 257.787 307.841 257.787L316.868 288.691Z" fill="#AD6359"/>
<path d="M351.003 252.542C344.435 258.062 340.601 259.353 332.204 260.515C332.043 260.531 332.043 260.789 332.204 260.773C340.52 260.385 345.567 259.466 351.278 252.849C351.569 252.51 351.31 252.268 351.003 252.542Z" fill="#263238"/>
<path d="M354.982 260.595C347.654 265.743 343.496 267.163 334.809 269.019C334.68 269.051 334.712 269.261 334.841 269.245C343.529 268.132 348.527 267.115 355.176 261.015C355.484 260.724 355.322 260.353 354.982 260.595Z" fill="#263238"/>
<path d="M357.749 270.149C350.291 274.619 345.81 276.378 337.139 277.104C336.928 277.12 336.944 277.427 337.139 277.427C346.052 277.556 351.65 275.394 357.846 270.391C358.282 270.052 358.218 269.858 357.749 270.149Z" fill="#263238"/>
<path d="M301.791 254.398C301.791 254.398 310.882 248.621 315.428 246.959C319.974 245.296 339.225 245.345 339.452 249.492C339.743 254.85 328.629 256.996 323.048 257.352C323.048 257.352 323.727 269.745 316.092 273.005C308.456 276.265 301.791 254.398 301.791 254.398Z" fill="#AD6359"/>
<path d="M339.064 250.993C335.796 256.06 328.435 256.044 323.048 256.787C322.643 256.835 322.546 257.19 322.643 257.497C322.579 262.709 320.977 270.036 316.415 273.134C316.286 273.231 316.399 273.425 316.545 273.36C321.883 270.714 324.051 263.629 323.76 257.916C329.292 257.239 336.686 256.932 339.128 251.025C339.128 250.993 339.08 250.961 339.064 250.993Z" fill="#263238"/>
<path d="M278.333 288.094C278.333 288.094 255.491 281.865 252.708 279.686C249.683 277.314 246.787 274.748 244.037 272.037C223.265 251.655 210.695 223.898 207.298 214.134C203.723 203.822 207.023 193.962 216.649 200.611C217.361 201.111 218.105 201.692 218.881 202.37C230.222 212.214 260.49 242.15 264.146 243.699C267.802 245.216 285.629 247.54 285.629 247.54L278.333 288.094Z" fill="#00665F"/>
<path d="M278.236 246.862C277.088 249.912 276.376 253.188 275.599 256.351C274.807 259.546 274.014 262.742 273.318 265.953C271.943 272.279 270.665 278.702 270.018 285.157C270.002 285.319 270.261 285.367 270.309 285.206C272.057 278.88 273.351 272.408 274.693 265.985C275.357 262.822 275.955 259.643 276.619 256.48C277.282 253.317 278.075 250.106 278.43 246.894C278.414 246.797 278.269 246.781 278.236 246.862Z" fill="#263238"/>
<path d="M231.548 298.519C228.345 301.424 224.365 305.668 201.652 307.25C200.229 307.347 198.789 307.379 197.317 307.331C175.445 306.717 144.756 289.531 142.928 288.223C142.928 288.223 166.499 224.608 197.673 200.191C202.121 196.705 211.666 198.432 217.636 202.015C219.771 203.306 226.824 215.07 228.232 225.786C229.639 236.485 234.767 295.631 231.548 298.519Z" fill="#06847B"/>
<path d="M213.834 217.894C208.333 218.33 200.471 208.841 197.883 201.74C197.705 201.256 199.128 196.625 200.584 190.912C201.458 187.442 202.348 183.553 202.898 179.954C203.011 179.212 205.324 180.955 205.324 180.955L209.822 182.794L224.705 188.894C224.705 188.894 221.324 196.108 220.386 202.386C220.321 202.918 220.289 203.402 220.321 203.887C220.321 203.951 220.321 204.048 220.321 204.129C220.321 207.033 219.14 217.475 213.834 217.894Z" fill="#C1796B"/>
<path d="M220.305 203.903C220.305 203.967 220.305 204.064 220.305 204.145C219.577 204.145 218.8 204.064 217.959 203.919C202.768 201.24 203.836 181.616 203.836 181.616L209.822 182.794L224.705 188.894C224.705 188.894 221.324 196.108 220.386 202.386C220.305 202.934 220.272 203.435 220.305 203.903Z" fill="#C1796B"/>
<path d="M201.345 156.344C198.449 164.316 201.539 187.91 207.039 193.413C215.015 201.401 228.669 202.821 235.625 193.106C242.355 183.698 237.793 153.02 231.597 147.953C222.456 140.497 205.616 144.58 201.345 156.344Z" fill="#C1796B"/>
<path d="M203.06 176.016C207.136 175.726 206.619 165.785 206.619 165.785C206.619 165.785 212.831 164.591 215.759 156.054C215.759 156.054 223.815 160.96 230.513 159.669C241.012 157.635 240.559 144.015 236.596 141.271C230.966 137.398 221.098 143.256 221.098 143.256C221.098 143.256 206.004 139.254 201.652 149.453C201.652 149.453 194.955 149.825 194.583 157.216C194.211 164.607 200.034 176.226 203.06 176.016Z" fill="#17222F"/>
<path d="M205.179 166.963C208.156 166.334 210.987 164.93 212.976 162.59C215.031 160.169 216.196 156.489 215.257 153.375C215.209 153.213 215.484 153.133 215.532 153.31C216.325 156.764 216.163 160.33 213.979 163.284C211.99 165.995 208.592 167.689 205.195 167.253C205.049 167.253 205.001 167.011 205.179 166.963Z" fill="#17222F"/>
<path d="M194 152.907C196.039 150.26 199.193 149.808 202.315 149.889C202.493 149.889 202.477 150.18 202.299 150.163C199.226 149.857 196.152 151.939 194.566 154.472C193.03 156.957 193.418 160.056 194.081 162.767C195.359 167.964 198.498 172.644 202.963 175.645C203.043 175.694 202.963 175.807 202.882 175.758C197.818 172.627 194.097 167.512 192.916 161.67C192.382 158.797 192.124 155.344 194 152.907Z" fill="#17222F"/>
<path d="M220.693 143.757C222.084 141.594 223.961 140.013 226.42 139.27C229.251 138.415 232.503 138.754 235.156 140.045C237.404 141.142 238.666 143.402 238.86 145.887C239.087 148.727 237.776 151.422 236.207 153.665C236.159 153.73 236.062 153.665 236.11 153.601C237.388 151.471 238.359 149.082 238.181 146.549C238.003 144.031 236.644 141.933 234.347 140.965C230.011 139.109 223.702 139.496 220.936 143.918C220.839 144.047 220.596 143.902 220.693 143.757Z" fill="#263238"/>
<path d="M205.373 175.645C205.373 175.645 200.309 167.915 196.799 169.69C193.305 171.465 196.945 182.568 200.94 184.182C204.936 185.812 206.522 182.149 206.522 182.149L205.373 175.645Z" fill="#C1796B"/>
<path d="M52.8518 673H0V663.317H52.8518C94.7353 663.317 106.658 627.572 109.295 597.604C111.366 574.123 112.628 545.51 113.97 515.236C119.001 401.98 124.211 284.867 169.896 284.867H211.747V294.549H169.896C133.497 294.549 127.818 422.346 123.661 515.655C122.318 546.043 121.04 574.736 118.953 598.427C114.731 646.534 91.2571 673 52.8518 673Z" fill="#D3D3D3"/>
<path opacity="0.2" d="M211.763 284.883V294.566H178.373L176.302 284.883H211.763Z" fill="#747474"/>
<path d="M357.012 352.264H374.84V228.034H357.012V352.264Z" fill="#EF6167"/>
<path d="M357.004 233.935H289.253V345.093H357.004V233.935Z" fill="#BE373D"/>
<path opacity="0.2" d="M357.004 233.935V345.093H340.18L332.625 233.935H357.004Z" fill="#EB5757"/>
<path d="M186.623 299.63H236.886V279.829H186.623V299.63Z" fill="#FFC61A"/>
<path d="M236.887 279.816H186.623V299.617H236.887V279.816Z" fill="#787878"/>
<path d="M246.836 241.794H289.253V338.525H246.836C241.336 338.525 236.887 334.087 236.887 328.6V251.719C236.887 246.232 241.336 241.794 246.836 241.794Z" fill="#BE373D"/>
<path opacity="0.2" d="M266.961 338.509L274.516 241.778H289.253V338.509H266.961Z" fill="#EB5757"/>
<g opacity="0.2">
<path opacity="0.2" d="M270.864 318.965H274.213V261.352H270.864V318.965Z" fill="#F1BB1B"/>
<path opacity="0.2" d="M261.4 318.965H264.749V261.352H261.4V318.965Z" fill="#F1BB1B"/>
<path opacity="0.2" d="M251.92 318.965H255.269V261.352H251.92V318.965Z" fill="#F1BB1B"/>
</g>
<path d="M183.533 222.477C181.835 245.781 180.071 293.258 190.393 307.169C203.933 325.437 242.128 336.524 253.42 339.849C258.338 341.301 269.905 309.235 267.025 304.571C264.146 299.923 224.689 289.999 221.583 287.336C218.477 284.673 208.706 246.797 203.966 227.529C197.98 203.241 184.197 213.295 183.533 222.477Z" fill="#C1796B"/>
<path d="M296.242 316.9C302.486 318.385 311.934 315.206 312.241 319.951C312.516 324.179 305.754 325.76 305.754 325.76C305.754 325.76 313.94 326.438 312.937 331.07C311.934 335.701 304.169 335.927 304.169 335.927C304.169 335.927 311.675 336.944 310.332 341.511C308.99 346.062 301.775 346.691 301.775 346.691C301.775 346.691 303.684 348.111 301.289 350.903C297.86 354.905 286.487 354.437 280.598 352.775C274.71 351.129 254.391 340.736 251.317 339.09L261.622 301.327C261.622 301.327 273.448 299.455 279.563 299.229C285.678 299.003 306.013 303.845 305.156 308.961C304.298 314.076 289.981 310.413 286.293 310.284C282.588 310.155 281.941 310.978 283.559 312.333C284.594 313.205 293.476 316.255 296.242 316.9Z" fill="#C1796B"/>
<path d="M223.637 332.296C223.637 332.296 192.787 316.852 188.112 304.991C182.288 290.208 179.91 247.104 182.174 224.995C184.439 202.886 199.873 205.565 204.904 225.189C209.789 244.248 220.709 282.365 221.842 284.14C223.298 286.448 240.883 290.789 240.883 290.789" fill="#00665F"/>
<path d="M404.696 207.259C404.243 207.259 403.887 206.904 403.887 206.453V183.746C403.887 183.295 404.243 182.94 404.696 182.94C405.149 182.94 405.505 183.295 405.505 183.746V206.453C405.505 206.888 405.149 207.259 404.696 207.259Z" fill="#FFDCDE"/>
<path d="M363.508 218.12C363.233 218.12 362.958 217.975 362.812 217.717L351.423 198.061C351.197 197.673 351.326 197.189 351.714 196.963C352.103 196.737 352.588 196.867 352.814 197.254L364.203 216.91C364.43 217.297 364.3 217.781 363.912 218.007C363.783 218.088 363.637 218.12 363.508 218.12Z" fill="#FFDCDE"/>
<path d="M351.666 380.032C351.537 380.032 351.391 380 351.262 379.919C350.873 379.693 350.744 379.209 350.97 378.822L362.359 359.166C362.586 358.778 363.071 358.649 363.459 358.875C363.847 359.101 363.977 359.585 363.75 359.973L352.362 379.629C352.216 379.887 351.941 380.032 351.666 380.032Z" fill="#FFDCDE"/>
<path d="M404.178 394.201C403.725 394.201 403.369 393.846 403.369 393.394V370.688C403.369 370.236 403.725 369.881 404.178 369.881C404.631 369.881 404.987 370.236 404.987 370.688V393.394C404.987 393.846 404.615 394.201 404.178 394.201Z" fill="#FFDCDE"/>
<path d="M456.755 380.29C456.48 380.29 456.205 380.145 456.059 379.887L444.686 360.231C444.46 359.843 444.589 359.359 444.978 359.133C445.366 358.907 445.851 359.037 446.078 359.424L457.45 379.08C457.677 379.467 457.547 379.951 457.159 380.177C457.03 380.258 456.884 380.29 456.755 380.29Z" fill="#FFDCDE"/>
<path d="M445.819 218.395C445.673 218.395 445.544 218.362 445.414 218.282C445.026 218.056 444.897 217.572 445.123 217.184L456.512 197.528C456.739 197.141 457.224 197.012 457.612 197.238C458 197.464 458.13 197.948 457.903 198.335L446.514 217.991C446.369 218.249 446.094 218.395 445.819 218.395Z" fill="#FFDCDE"/>
</g>
<defs>
<clipPath id="clip0_24_11421">
<rect width="808" height="673" fill="white"/>
</clipPath>
</defs>
</svg>
