<svg width="1038" height="820" viewBox="0 0 1038 820" fill="none" xmlns="http://www.w3.org/2000/svg">
<path d="M274.978 67.6533C236.557 122.028 281.619 210.161 224.645 251.05C169.139 290.846 100.966 225.61 48.6616 259.866C-28.963 310.689 -14.73 543.237 98.645 687.763C132.76 731.208 161.254 748.121 173.879 797.259C200.989 902.789 105.72 965.552 123.853 1017.74C164.679 1135.2 792.513 1233.86 1044.43 880.694C1162.08 715.759 1179.7 477.587 1074.57 296.691C884.622 -30.2217 361.201 -54.2794 274.978 67.6533Z" fill="#E9E9E9"/>
<path d="M481.68 450.207L480.192 459.292L478.607 469.056L464.047 558.072H440.25L454.793 469.056L456.395 459.292L457.883 450.207H481.68Z" fill="#EBEBEB"/>
<path d="M478.234 450.207C476.989 459.228 475.63 468.233 474.271 477.238L470.081 504.22L465.681 531.171L463.416 544.63L461.054 558.089L462.995 544.565L465.017 531.058L469.224 504.075L473.624 477.125C475.096 468.136 476.617 459.163 478.234 450.207Z" fill="#C7C7C7"/>
<path d="M480.192 459.292L478.607 469.056H454.793L456.395 459.292H480.192Z" fill="#C7C7C7"/>
<path d="M599.193 450.207L600.666 459.292L602.267 469.056L616.827 558.072H640.624L626.08 469.056L624.479 459.292L622.99 450.207H599.193Z" fill="#EBEBEB"/>
<path d="M602.72 450.207C603.966 459.228 605.325 468.233 606.684 477.238L610.874 504.22L615.274 531.171L617.539 544.63L619.901 558.089L617.959 544.565L615.937 531.058L611.731 504.075L607.331 477.125C605.842 468.136 604.322 459.163 602.72 450.207Z" fill="#C7C7C7"/>
<path d="M600.666 459.292H624.479L626.08 469.056H602.267L600.666 459.292Z" fill="#C7C7C7"/>
<path d="M480.807 425.161H461.944L464.289 407.602H478.461L480.807 425.161Z" fill="#C7C7C7"/>
<path d="M488.709 398.121C490.397 388.58 484.012 379.481 474.448 377.797C464.884 376.113 455.762 382.483 454.074 392.024C452.386 401.564 458.771 410.664 468.335 412.348C477.9 414.031 487.021 407.662 488.709 398.121Z" fill="#DBDBDB"/>
<path d="M484.422 398.139C486.126 390.966 481.678 383.774 474.488 382.074C467.298 380.375 460.088 384.811 458.384 391.984C456.68 399.156 461.127 406.349 468.318 408.048C475.508 409.748 482.718 405.311 484.422 398.139Z" fill="white"/>
<path d="M482.554 394.289C482.311 391.029 480.661 388.027 478.186 386.107C475.711 384.17 472.443 383.283 469.191 383.751C466.053 384.219 463.206 386.074 461.458 388.769C459.679 391.464 459.08 394.999 460.051 398.388C460.827 401.179 462.769 403.584 465.276 404.988C467.768 406.408 470.76 406.844 473.462 406.247C476.18 405.682 478.639 404.149 480.321 402.051C482.02 399.969 483.039 397.323 483.152 394.628C483.152 394.498 483.12 394.385 483.039 394.385C482.974 394.385 482.926 394.482 482.91 394.611C482.861 395.709 482.619 396.79 482.279 397.823C481.907 398.856 481.405 399.824 480.807 400.712C480.176 401.599 479.448 402.39 478.623 403.116C477.781 403.81 476.859 404.407 475.84 404.907C473.009 406.263 469.628 406.36 466.716 405.117C463.804 403.907 461.475 401.389 460.52 398.339C459.501 395.112 460.002 391.658 461.685 388.995C463.351 386.333 466.15 384.493 469.207 384.057C473.43 383.444 477.701 384.993 480.289 388.463C480.92 389.318 481.405 390.254 481.777 391.239C482.133 392.223 482.36 393.272 482.473 394.337C482.473 394.369 482.505 394.385 482.521 394.369C482.554 394.369 482.554 394.321 482.554 394.289Z" fill="#EBEBEB"/>
<path d="M480.985 394.305C480.742 391.497 479.302 388.963 477.199 387.317C475.08 385.671 472.297 384.896 469.515 385.284C466.829 385.655 464.354 387.22 462.833 389.544C461.28 391.852 460.73 394.918 461.539 397.871C462.186 400.308 463.885 402.422 466.069 403.632C468.253 404.859 470.858 405.23 473.203 404.698C475.565 404.181 477.684 402.858 479.14 401.018C480.613 399.195 481.486 396.935 481.583 394.579C481.583 394.466 481.551 394.369 481.47 394.369C481.405 394.369 481.357 394.45 481.341 394.563C481.146 398.404 478.687 401.777 475.242 403.455C472.815 404.649 469.871 404.746 467.347 403.681C464.823 402.632 462.785 400.437 461.992 397.807C461.135 395.015 461.604 392.029 463.06 389.754C464.516 387.478 466.943 385.929 469.547 385.59C473.155 385.122 476.746 386.397 478.995 389.334C479.529 390.06 479.949 390.851 480.289 391.69C480.613 392.53 480.807 393.417 480.92 394.337C480.92 394.369 480.952 394.369 480.968 394.369C480.985 394.369 481.001 394.337 480.985 394.305Z" fill="#EBEBEB"/>
<path d="M479.415 394.321C479.173 391.981 477.959 389.899 476.196 388.527C474.433 387.172 472.152 386.526 469.822 386.817C467.59 387.091 465.487 388.382 464.176 390.303C462.833 392.223 462.332 394.821 462.995 397.355C463.513 399.437 464.969 401.26 466.845 402.293C468.706 403.342 470.938 403.649 472.944 403.164C474.95 402.713 476.746 401.567 477.959 400.001C479.189 398.452 479.917 396.548 480.014 394.547C480.014 394.45 479.965 394.369 479.901 394.369C479.836 394.369 479.787 394.434 479.771 394.531C479.577 397.774 477.523 400.566 474.627 402.019C472.588 403.035 470.097 403.148 467.962 402.261C465.826 401.389 464.095 399.517 463.448 397.274C462.753 394.902 463.173 392.4 464.419 390.512C465.665 388.624 467.703 387.365 469.854 387.123C471.359 386.962 472.831 387.123 474.174 387.64C475.517 388.156 476.746 389.011 477.684 390.206C478.137 390.803 478.493 391.464 478.784 392.142C479.059 392.836 479.237 393.579 479.351 394.337C479.367 394.353 479.383 394.369 479.399 394.353C479.415 394.369 479.432 394.337 479.415 394.321Z" fill="#EBEBEB"/>
<path d="M477.862 394.321C477.62 392.433 476.633 390.819 475.225 389.738C473.818 388.673 472.039 388.156 470.162 388.334C468.382 388.511 466.668 389.512 465.551 391.061C464.435 392.594 463.982 394.724 464.484 396.822C464.888 398.549 466.085 400.082 467.638 400.921C469.175 401.777 471.035 402.019 472.686 401.599C474.336 401.212 475.792 400.243 476.778 398.952C477.765 397.661 478.364 396.128 478.461 394.498C478.461 394.418 478.412 394.353 478.348 394.353C478.283 394.353 478.234 394.418 478.218 394.482C478.04 397.113 476.358 399.34 474.044 400.55C472.411 401.405 470.356 401.535 468.609 400.808C466.862 400.098 465.438 398.549 464.937 396.725C464.403 394.789 464.775 392.739 465.81 391.255C466.846 389.754 468.512 388.786 470.21 388.624C471.408 388.527 472.556 388.673 473.608 389.06C474.659 389.447 475.646 390.109 476.406 391.045C476.778 391.513 477.053 392.029 477.312 392.578C477.539 393.127 477.701 393.708 477.814 394.337C477.814 394.353 477.846 394.369 477.862 394.353C477.862 394.369 477.862 394.353 477.862 394.321Z" fill="#EBEBEB"/>
<path d="M618.525 425.161H599.646L601.992 407.602H616.18L618.525 425.161Z" fill="#C7C7C7"/>
<path d="M626.507 397.696C627.972 388.118 621.377 379.169 611.776 377.707C602.175 376.245 593.203 382.824 591.738 392.402C590.272 401.98 596.867 410.929 606.469 412.391C616.07 413.853 625.041 407.274 626.507 397.696Z" fill="#DBDBDB"/>
<path d="M622.349 397.076C623.463 389.789 618.445 382.981 611.14 381.869C603.836 380.758 597.011 385.764 595.896 393.051C594.782 400.337 599.801 407.146 607.105 408.257C614.41 409.369 621.235 404.363 622.349 397.076Z" fill="white"/>
<path d="M620.273 394.289C620.03 391.029 618.38 388.027 615.905 386.107C613.43 384.17 610.162 383.283 606.91 383.751C603.772 384.219 600.924 386.074 599.177 388.769C597.398 391.464 596.799 394.999 597.77 398.388C598.546 401.179 600.488 403.584 602.995 404.988C605.486 406.408 608.479 406.844 611.181 406.247C613.899 405.682 616.358 404.149 618.056 402.051C619.755 399.969 620.774 397.323 620.887 394.628C620.887 394.498 620.855 394.385 620.774 394.385C620.709 394.385 620.661 394.482 620.645 394.611C620.596 395.709 620.354 396.79 620.014 397.823C619.642 398.856 619.14 399.824 618.542 400.712C617.911 401.599 617.183 402.39 616.358 403.116C615.516 403.81 614.594 404.407 613.575 404.907C610.744 406.263 607.363 406.36 604.451 405.117C601.539 403.907 599.21 401.389 598.255 398.339C597.236 395.112 597.737 391.658 599.42 388.995C601.086 386.333 603.885 384.493 606.942 384.057C611.165 383.444 615.436 384.993 618.024 388.463C618.655 389.318 619.14 390.254 619.512 391.239C619.868 392.223 620.095 393.272 620.208 394.337C620.208 394.369 620.24 394.385 620.256 394.369C620.273 394.369 620.273 394.321 620.273 394.289Z" fill="#EBEBEB"/>
<path d="M618.703 394.305C618.461 391.497 617.021 388.963 614.918 387.317C612.799 385.671 610.016 384.896 607.234 385.284C604.548 385.655 602.073 387.22 600.552 389.544C598.999 391.852 598.449 394.918 599.258 397.871C599.905 400.308 601.604 402.422 603.788 403.632C605.972 404.859 608.576 405.23 610.922 404.698C613.284 404.181 615.403 402.858 616.859 401.018C618.331 399.195 619.205 396.935 619.302 394.579C619.302 394.466 619.27 394.369 619.189 394.369C619.124 394.369 619.059 394.45 619.059 394.563C618.865 398.404 616.406 401.777 612.96 403.455C610.534 404.649 607.59 404.746 605.066 403.681C602.542 402.632 600.504 400.437 599.711 397.807C598.854 395.015 599.307 392.029 600.779 389.754C602.235 387.478 604.661 385.929 607.266 385.59C610.873 385.122 614.465 386.397 616.714 389.334C617.247 390.06 617.668 390.851 618.008 391.69C618.331 392.53 618.525 393.417 618.639 394.337C618.639 394.369 618.671 394.369 618.687 394.369C618.703 394.369 618.703 394.337 618.703 394.305Z" fill="#EBEBEB"/>
<path d="M617.134 394.321C616.892 391.981 615.678 389.899 613.915 388.527C612.152 387.172 609.871 386.526 607.541 386.817C605.309 387.091 603.222 388.382 601.895 390.303C600.552 392.223 600.051 394.821 600.714 397.355C601.232 399.437 602.688 401.26 604.548 402.293C606.409 403.342 608.641 403.649 610.647 403.164C612.653 402.713 614.449 401.567 615.662 400.001C616.892 398.452 617.619 396.548 617.717 394.547C617.717 394.45 617.668 394.369 617.603 394.369C617.539 394.369 617.49 394.434 617.474 394.531C617.28 397.774 615.225 400.566 612.33 402.019C610.291 403.035 607.8 403.148 605.664 402.261C603.529 401.389 601.798 399.517 601.151 397.274C600.455 394.902 600.876 392.4 602.122 390.512C603.367 388.624 605.406 387.365 607.557 387.123C609.062 386.962 610.534 387.123 611.877 387.64C613.219 388.156 614.449 389.011 615.387 390.206C615.84 390.803 616.196 391.464 616.487 392.142C616.762 392.836 616.94 393.579 617.053 394.337C617.069 394.353 617.086 394.369 617.102 394.353C617.134 394.369 617.134 394.337 617.134 394.321Z" fill="#EBEBEB"/>
<path d="M615.565 394.321C615.322 392.433 614.335 390.819 612.928 389.738C611.521 388.673 609.741 388.156 607.865 388.334C606.085 388.511 604.37 389.512 603.254 391.061C602.138 392.594 601.685 394.724 602.186 396.822C602.591 398.549 603.788 400.082 605.341 400.921C606.878 401.777 608.738 402.019 610.388 401.599C612.038 401.212 613.494 400.243 614.481 398.952C615.468 397.661 616.067 396.128 616.164 394.498C616.164 394.418 616.115 394.353 616.05 394.353C615.986 394.353 615.937 394.418 615.921 394.482C615.743 397.113 614.06 399.34 611.747 400.55C610.113 401.405 608.059 401.535 606.311 400.808C604.564 400.098 603.141 398.549 602.639 396.725C602.105 394.789 602.477 392.739 603.513 391.255C604.548 389.754 606.214 388.786 607.913 388.624C609.11 388.527 610.259 388.673 611.31 389.06C612.362 389.447 613.349 390.109 614.109 391.045C614.481 391.513 614.756 392.029 615.015 392.578C615.241 393.127 615.403 393.708 615.516 394.337C615.533 394.353 615.549 394.369 615.565 394.353C615.565 394.369 615.581 394.353 615.565 394.321Z" fill="#EBEBEB"/>
<path d="M659.018 416.204H421.84V461.455H659.018V416.204Z" fill="#DFD9B8"/>
<path d="M470.599 416.204L453.386 461.471H422.746L439.959 416.204H470.599Z" fill="#EBEBEB"/>
<path d="M533.383 416.204L516.171 461.471H485.53L502.743 416.204H533.383Z" fill="#EBEBEB"/>
<path d="M596.168 416.204L578.939 461.471H548.315L565.528 416.204H596.168Z" fill="#EBEBEB"/>
<path d="M658.953 416.204L641.74 461.471H611.1L628.313 416.204H658.953Z" fill="#EBEBEB"/>
<path d="M654.229 503.3H426.644V531.945H654.229V503.3Z" fill="#DFD9B8"/>
<path d="M473.414 503.3L456.913 531.945H427.518L444.035 503.3H473.414Z" fill="#EBEBEB"/>
<path d="M533.675 503.3L517.157 531.945H487.747L504.264 503.3H533.675Z" fill="#EBEBEB"/>
<path d="M593.903 503.3L577.386 531.945H547.992L564.509 503.3H593.903Z" fill="#EBEBEB"/>
<path d="M654.148 503.3L637.631 531.945H608.237L624.754 503.3H654.148Z" fill="#EBEBEB"/>
<path d="M194.093 558.492L279.866 558.089L537.201 557.685L794.536 558.089L880.309 558.492L794.536 558.879L537.201 559.299L279.866 558.879L194.093 558.492Z" fill="#D3D3D3"/>
<path d="M540.437 685.675C728.143 685.675 880.309 667.981 880.309 646.153C880.309 624.326 728.143 606.631 540.437 606.631C352.73 606.631 200.564 624.326 200.564 646.153C200.564 667.981 352.73 685.675 540.437 685.675Z" fill="#F5F5F5"/>
<path d="M584.876 653.512C588.241 654.642 684.562 654.981 688.25 652.689C689.658 651.818 690.515 637.826 691.081 620.897C691.211 617.234 691.308 613.458 691.389 609.633L699.203 558.379L634.8 557.959L628.717 609.23L628.96 620.51C628.96 620.51 592.027 636.842 588.257 639.795C584.537 642.732 581.528 652.383 584.876 653.512Z" fill="#EFBFA5"/>
<path d="M584.876 653.512C588.241 654.642 684.562 654.981 688.25 652.689C689.949 651.624 690.887 631.193 691.405 609.617L628.75 609.214L628.992 620.494C628.992 620.494 592.059 636.826 588.29 639.779C584.537 642.732 581.528 652.383 584.876 653.512Z" fill="white"/>
<path d="M584.876 653.512C588.241 654.642 684.562 654.981 688.25 652.689C689.658 651.818 690.515 637.826 691.081 620.897L628.976 620.494C628.976 620.494 592.043 636.826 588.273 639.779C584.536 642.732 581.528 652.383 584.876 653.512Z" fill="#2D4054"/>
<path d="M586.284 649.671C602.429 649.332 667.592 649.478 683.591 650.381C683.721 650.381 683.721 650.478 683.591 650.478C667.592 651.156 602.429 650.478 586.284 649.93C585.928 649.93 585.928 649.687 586.284 649.671Z" fill="#17222F"/>
<path d="M793.841 321.458C793.841 321.458 719.052 448.367 717.062 457.275C713.989 470.96 697.682 606.18 697.682 606.18L619.868 604.776C619.868 604.776 633.279 485.565 645.979 446.285C655.135 417.995 721.123 324.169 721.123 324.169L793.841 321.458Z" fill="#384E65"/>
<path d="M626.922 592.882C638.1 592.801 677.686 592.349 692.57 593.737C692.683 593.753 692.683 593.931 692.57 593.947C687.458 594.673 638.084 593.544 626.922 593.189C626.711 593.189 626.711 592.882 626.922 592.882Z" fill="#263238"/>
<path d="M781.077 333.11C776.175 340.775 770.998 348.279 765.999 355.88C760.984 363.481 755.985 371.098 751.068 378.764C741.215 394.063 731.622 409.539 722.207 425.096C717.79 432.39 713.584 439.765 710.543 447.721C707.534 455.613 705.496 463.811 703.975 472.073C702.454 480.401 701.451 488.808 700.497 497.216C699.494 506.173 698.491 515.129 697.488 524.07C695.433 542.386 693.395 560.719 691.34 579.036C691.081 581.279 690.839 583.538 690.612 585.781C690.58 586.104 691.179 586.169 691.211 585.846C693.492 567.642 695.401 549.374 697.488 531.154C698.523 522.085 699.558 512.999 700.594 503.93C701.564 495.49 702.47 487.049 703.781 478.642C705.075 470.395 706.741 462.181 709.265 454.209C711.886 445.865 715.623 438.039 720.023 430.454C729.034 414.945 738.578 399.695 748.123 384.477C757.749 369.13 767.455 353.831 777.534 338.774C778.779 336.918 780.025 335.062 781.319 333.239C781.416 333.094 781.174 332.948 781.077 333.11Z" fill="#263238"/>
<path d="M727.723 664.196C731.266 664.421 826.843 639.295 829.819 636.132C829.916 636.019 829.997 635.809 830.046 635.486C830.434 632.372 825.532 620.655 822.103 605.663C821.892 604.711 820.097 600.16 817.573 594.012C810.649 577.131 798.273 548.164 798.273 548.164L735.86 564.124L758.849 610.198L761.955 621.043C761.955 621.043 730.392 646.218 727.513 650.043C724.649 653.851 724.196 663.937 727.723 664.196Z" fill="#EFBFA5"/>
<path d="M727.723 664.196C731.266 664.421 826.843 639.295 829.819 636.132C829.916 636.019 829.997 635.809 830.046 635.486C830.434 632.372 825.532 620.655 822.103 605.663C821.892 604.711 820.097 600.16 817.573 594.012L758.849 610.198L761.955 621.043C761.955 621.043 730.392 646.218 727.513 650.043C724.649 653.851 724.196 663.937 727.723 664.196Z" fill="white"/>
<path d="M727.723 664.179C731.266 664.421 826.827 639.279 829.803 636.115C830.936 634.921 828.46 622.027 822.103 605.647L761.939 621.026C761.939 621.026 730.376 646.202 727.497 650.01C724.633 653.851 724.197 663.937 727.723 664.179Z" fill="#2D4054"/>
<path d="M728.095 660.113C743.626 655.691 806.686 639.278 822.378 636.083C822.507 636.051 822.523 636.148 822.41 636.18C807.106 640.908 743.917 656.788 728.176 660.371C727.837 660.451 727.772 660.209 728.095 660.113Z" fill="#17222F"/>
<path d="M754.562 607.245L824.465 588.944C824.465 588.944 757.539 457.533 758.072 448.464C758.558 440.427 807.106 369.904 809.792 356.703C814.192 335.095 803.628 315.794 793.404 303.836L721.091 324.169C721.091 324.169 726.85 336.644 737.43 344.519C737.43 344.519 691.987 420.206 690.823 445.123C689.674 470.169 754.562 607.245 754.562 607.245Z" fill="#2D4054"/>
<path d="M753.235 594.254C763.378 591.349 760.418 592.043 770.594 589.267C775.576 587.911 808.303 578.987 813.156 578.519C813.27 578.503 813.302 578.681 813.205 578.729C808.74 580.73 775.867 589.073 770.869 590.348C760.644 592.93 763.556 592.075 753.3 594.56C753.122 594.593 753.041 594.302 753.235 594.254Z" fill="#263238"/>
<path d="M719.618 169.213C721.172 161.838 729.454 145.135 745.68 148.411C768.846 153.075 772.195 197.6 783.73 211.478C804.615 236.621 805.294 261.506 788.179 265.492C768.992 269.946 750.323 249.418 751.019 204.975C751.456 177.185 743.593 164.872 738.045 165.695C732.496 166.518 729.454 173.538 729.454 173.538L719.618 169.213Z" fill="#17222F"/>
<path d="M720.395 166.437C721.527 163.016 723.08 159.74 725.038 156.658C726.995 153.591 729.487 150.783 732.609 148.718C735.699 146.62 739.517 145.49 743.319 145.619C747.056 145.748 750.793 146.733 754.077 148.589C757.361 150.477 760.062 153.172 762.214 156.157C764.349 159.175 766.032 162.451 767.407 165.808C770.076 172.586 771.678 179.654 772.761 186.755C770.901 179.816 768.782 172.941 765.935 166.421C764.414 163.21 762.764 160.079 760.645 157.287C758.558 154.479 756.034 152.026 753.041 150.332C750.081 148.605 746.651 147.685 743.221 147.507C739.808 147.282 736.395 148.234 733.45 150.025C730.49 151.816 727.95 154.35 725.847 157.19C724.747 158.594 723.808 160.095 722.886 161.644C721.997 163.226 721.172 164.823 720.395 166.437Z" fill="#17222F"/>
<path d="M750.89 189.66C751.132 194.065 750.873 198.487 750.792 202.893C750.647 207.298 750.517 211.688 750.517 216.077C750.534 220.467 750.647 224.84 751.084 229.181C751.504 233.523 752.2 237.831 753.446 241.963C754.659 246.094 756.455 250.064 759.092 253.421C761.745 256.713 765.126 259.602 768.798 261.796C772.503 263.991 776.676 265.411 781.012 265.702C783.18 265.863 785.364 265.766 787.515 265.347C788.583 265.153 789.651 264.879 790.686 264.524C791.721 264.169 792.757 263.781 793.663 263.136C791.932 264.524 789.764 265.298 787.628 265.863C785.461 266.428 783.228 266.686 780.963 266.686C778.715 266.654 776.466 266.315 774.282 265.734C772.098 265.137 769.995 264.249 768.021 263.168C766.032 262.087 764.155 260.812 762.424 259.376L761.146 258.278L759.917 257.116C759.092 256.342 758.315 255.486 757.603 254.599C754.724 251.032 752.831 246.82 751.521 242.528C749.013 233.862 748.673 224.857 748.948 216.045C749.094 211.623 749.434 207.218 749.822 202.828C750.226 198.439 750.663 194.065 750.89 189.66Z" fill="#17222F"/>
<path d="M718.292 169.342C718.033 167.293 719.279 164.501 720.573 164C721.867 163.5 732.188 166.808 733.272 169.261C734.356 171.714 730.166 174.377 730.166 174.377L718.292 169.342Z" fill="#EF6167"/>
<path d="M730.651 242.027C724.294 251.081 678.301 288.521 653.242 289.909C641.934 290.538 597.624 285.729 587.756 281.678C575.639 276.692 599.582 246.772 607.185 248.047C616.681 249.628 650.298 253.195 656.979 253.372C667.721 253.663 700.626 235.62 722.854 230.924C734.291 228.52 735.569 235.056 730.651 242.027Z" fill="#EFBFA5"/>
<path d="M730.15 243.738C723.129 255.954 698.345 276.885 698.345 276.885L680.129 243.447C680.129 243.447 703.619 234.104 719.198 229.569C721.301 228.956 723.161 228.536 724.795 228.342C734.874 227.067 736.2 233.232 730.15 243.738Z" fill="#DBDBDB"/>
<path d="M730.15 243.738C723.129 255.938 698.345 276.901 698.345 276.901L691.227 263.829L680.129 243.463C680.129 243.463 703.635 234.119 719.214 229.585C721.317 228.988 723.177 228.568 724.811 228.358C725.022 228.342 725.216 228.31 725.41 228.31C734.922 227.325 736.087 233.458 730.15 243.738Z" fill="#00665F"/>
<path d="M700.853 237.137C701.16 238.267 701.241 239.397 701.257 240.526C701.241 241.656 701.176 242.786 700.853 243.915C700.529 242.786 700.464 241.656 700.448 240.526C700.464 239.397 700.529 238.267 700.853 237.137Z" fill="#04413C"/>
<path d="M697.601 250.839C696.469 251.145 695.336 251.226 694.204 251.242C693.071 251.226 691.939 251.161 690.806 250.839C691.939 250.516 693.071 250.451 694.204 250.435C695.336 250.451 696.469 250.516 697.601 250.839Z" fill="#04413C"/>
<path d="M731.946 231.893C730.813 232.199 729.681 232.28 728.548 232.296C727.416 232.28 726.284 232.215 725.151 231.893C726.284 231.57 727.416 231.505 728.548 231.489C729.681 231.505 730.813 231.57 731.946 231.893Z" fill="white"/>
<path d="M713.228 245.642C714.247 246.223 715.105 246.966 715.914 247.756C716.706 248.563 717.451 249.418 718.033 250.435C717.014 249.854 716.156 249.112 715.348 248.321C714.555 247.514 713.794 246.675 713.228 245.642Z" fill="white"/>
<path d="M700.173 261.796C701.192 262.377 702.05 263.12 702.859 263.91C703.651 264.717 704.396 265.573 704.978 266.589C703.959 266.008 703.101 265.266 702.292 264.475C701.5 263.668 700.739 262.813 700.173 261.796Z" fill="white"/>
<path d="M730.15 243.738C723.129 255.938 698.345 276.901 698.345 276.901L691.227 263.829C704.671 250.596 720.88 234.313 725.41 228.294C734.922 227.326 736.087 233.458 730.15 243.738Z" fill="#03413C"/>
<path d="M707.227 299.995L710.899 340.323C710.899 340.323 715.898 340.243 725.669 338.855C734.55 337.58 747.363 335.24 763.961 330.899C776.466 327.623 791.123 323.217 807.866 317.278C807.866 317.278 769.979 249.08 743.82 230.263C743.221 229.827 742.623 229.424 742.04 229.052C741.927 228.956 741.814 228.891 741.701 228.826C729.81 221.322 719.133 227.18 713.083 235.588C711.594 237.67 697.035 270.704 697.747 281.759C698.426 291.506 707.227 299.995 707.227 299.995Z" fill="#06847B"/>
<path d="M728.257 256.81C728.565 257.939 728.646 259.069 728.662 260.199C728.646 261.328 728.581 262.458 728.257 263.588C727.934 262.458 727.869 261.328 727.853 260.199C727.869 259.069 727.95 257.939 728.257 256.81Z" fill="white"/>
<path d="M737.478 295.686C737.786 296.816 737.867 297.945 737.883 299.075C737.867 300.204 737.802 301.334 737.478 302.464C737.155 301.334 737.09 300.204 737.074 299.075C737.09 297.945 737.171 296.816 737.478 295.686Z" fill="white"/>
<path d="M765.757 271.64C766.064 272.77 766.145 273.9 766.161 275.029C766.145 276.159 766.08 277.289 765.757 278.418C765.433 277.289 765.368 276.159 765.352 275.029C765.368 273.9 765.433 272.77 765.757 271.64Z" fill="#04413C"/>
<path d="M713.956 290.538C714.264 291.668 714.345 292.797 714.361 293.927C714.345 295.057 714.28 296.186 713.956 297.316C713.633 296.186 713.568 295.057 713.552 293.927C713.568 292.797 713.633 291.668 713.956 290.538Z" fill="#04413C"/>
<path d="M749.563 264.588C748.43 264.895 747.298 264.975 746.166 264.992C745.033 264.975 743.901 264.911 742.768 264.588C743.901 264.265 745.033 264.201 746.166 264.185C747.298 264.201 748.43 264.281 749.563 264.588Z" fill="white"/>
<path d="M773.635 294.669C772.503 294.976 771.37 295.057 770.238 295.073C769.105 295.057 767.973 294.992 766.841 294.669C767.973 294.346 769.105 294.282 770.238 294.266C771.37 294.282 772.503 294.363 773.635 294.669Z" fill="#04413C"/>
<path d="M737.042 318.537C735.909 318.844 734.777 318.925 733.644 318.941C732.512 318.925 731.38 318.86 730.247 318.537C731.38 318.214 732.512 318.15 733.644 318.134C734.777 318.15 735.909 318.214 737.042 318.537Z" fill="white"/>
<path d="M779.653 313.938C778.521 314.245 777.388 314.325 776.256 314.341C775.123 314.325 773.991 314.261 772.858 313.938C773.991 313.615 775.123 313.551 776.256 313.534C777.388 313.551 778.521 313.631 779.653 313.938Z" fill="#04413C"/>
<path d="M731.946 231.893C730.813 232.199 729.681 232.28 728.548 232.296C727.416 232.28 726.284 232.215 725.151 231.893C726.284 231.57 727.416 231.505 728.548 231.489C729.681 231.505 730.813 231.57 731.946 231.893Z" fill="white"/>
<path d="M743.771 236.282C744.791 236.863 745.648 237.605 746.457 238.396C747.25 239.203 747.994 240.058 748.576 241.075C747.557 240.494 746.7 239.752 745.891 238.961C745.098 238.154 744.338 237.299 743.771 236.282Z" fill="white"/>
<path d="M779.119 274.029C780.138 274.61 780.996 275.352 781.805 276.143C782.597 276.95 783.342 277.805 783.924 278.822C782.905 278.241 782.047 277.498 781.238 276.708C780.446 275.885 779.685 275.045 779.119 274.029Z" fill="#04413C"/>
<path d="M722.579 278.063C723.598 278.644 724.456 279.387 725.264 280.177C726.057 280.984 726.801 281.84 727.384 282.856C726.365 282.275 725.507 281.533 724.698 280.742C723.906 279.935 723.161 279.08 722.579 278.063Z" fill="white"/>
<path d="M755.015 305.336C756.034 305.917 756.891 306.66 757.7 307.45C758.493 308.257 759.237 309.113 759.819 310.129C758.8 309.548 757.943 308.806 757.134 308.015C756.341 307.208 755.597 306.353 755.015 305.336Z" fill="white"/>
<path d="M713.228 245.642C714.247 246.223 715.105 246.966 715.914 247.756C716.706 248.563 717.451 249.418 718.033 250.435C717.014 249.854 716.156 249.112 715.348 248.321C714.555 247.514 713.794 246.675 713.228 245.642Z" fill="#04413C"/>
<path d="M710.349 271.64C710.931 270.624 711.675 269.768 712.468 268.961C713.277 268.171 714.134 267.428 715.154 266.847C714.571 267.864 713.827 268.719 713.034 269.526C712.225 270.317 711.368 271.059 710.349 271.64Z" fill="#04413C"/>
<path d="M787.111 300.479C787.693 299.462 788.437 298.607 789.23 297.8C790.039 297.009 790.896 296.267 791.916 295.686C791.333 296.703 790.589 297.558 789.796 298.365C788.988 299.156 788.13 299.898 787.111 300.479Z" fill="#04413C"/>
<path d="M714.539 312.017C715.121 311.001 715.865 310.145 716.658 309.339C717.467 308.548 718.324 307.805 719.343 307.224C718.761 308.241 718.017 309.096 717.224 309.903C716.415 310.71 715.558 311.453 714.539 312.017Z" fill="white"/>
<path d="M757.862 256.406C758.444 255.39 759.189 254.534 759.981 253.727C760.79 252.937 761.647 252.194 762.667 251.613C762.084 252.63 761.34 253.485 760.547 254.292C759.738 255.083 758.881 255.825 757.862 256.406Z" fill="#04413C"/>
<path d="M747.12 328.865C747.703 327.849 748.447 326.993 749.24 326.187C750.048 325.396 750.906 324.653 751.925 324.073C751.343 325.089 750.598 325.945 749.806 326.751C748.997 327.542 748.139 328.284 747.12 328.865Z" fill="#04413C"/>
<path d="M747.153 285.245C747.735 284.228 748.479 283.373 749.272 282.566C750.081 281.775 750.938 281.033 751.957 280.452C751.375 281.468 750.631 282.324 749.838 283.131C749.029 283.921 748.188 284.664 747.153 285.245Z" fill="white"/>
<path d="M734.275 228.149C734.049 229.714 727.61 240.236 720.573 240.51C718.292 240.591 717.257 228.165 717.257 228.165L716.965 227.261L712.97 214.657L727.27 203.667L729.341 202.199C729.341 202.199 730.199 205.717 731.234 210.123C731.282 210.332 731.331 210.526 731.38 210.752C731.444 210.994 731.509 211.236 731.557 211.462C731.719 212.124 731.881 212.785 732.027 213.463C732.14 213.98 732.253 214.464 732.366 215.012C732.48 215.545 732.577 216.077 732.706 216.61C733.758 221.919 734.372 227.487 734.275 228.149Z" fill="#EFBFA5"/>
<path d="M731.266 210.122C728.451 220.677 720.621 225.55 716.982 227.277L712.986 214.673L727.287 203.683L729.357 202.215C729.373 202.199 730.231 205.717 731.266 210.122Z" fill="#EFBFA5"/>
<path d="M695.255 195.631C695.142 218.837 709.071 221.516 714.086 221.548C718.632 221.564 734.146 221.048 736.67 197.971C739.177 174.893 728.403 167.518 717.985 166.921C707.566 166.324 695.368 172.424 695.255 195.631Z" fill="#EFBFA5"/>
<path d="M735.392 199.585C731.59 199.972 730.506 192.016 730.506 192.016C730.506 192.016 722.757 192.226 719.926 181.171C719.926 181.171 720.217 186.351 723.582 190.289C723.582 190.289 709.88 189.176 703.845 177.911C703.845 177.911 706.288 183.673 708.488 185.674C708.488 185.674 702.713 184.221 699.801 179.638C699.801 179.638 697.568 186.287 695.773 188.143C695.773 188.143 693.12 176.443 697.989 170.359C708.246 157.545 725.086 168.68 725.086 168.68C725.086 168.68 734.502 170.101 737.867 177.137C743.044 188.014 735.392 199.585 735.392 199.585Z" fill="#17222F"/>
<path d="M732.949 199.73C732.949 199.73 737.414 192.096 740.843 193.63C744.273 195.163 741.329 205.943 737.592 207.686C733.855 209.429 732.172 206.007 732.172 206.007L732.949 199.73Z" fill="#EFBFA5"/>
<path d="M730.862 225.373C733.709 225.357 738.498 226.083 744.952 230.989C744.952 230.989 731.477 241.801 718.907 241.817C714.425 241.817 713.083 235.572 713.083 235.572C713.083 235.572 719.133 225.47 730.862 225.373Z" fill="#EFBFA5"/>
<path d="M944 690H891.148C852.743 690 829.269 663.518 825.031 615.443C822.944 591.752 821.666 563.059 820.323 532.671C816.182 439.362 810.504 311.566 774.088 311.566H732.237V301.883H774.088C819.773 301.883 824.982 418.996 830.014 532.252C831.356 562.527 832.634 591.123 834.689 614.604C837.326 644.588 849.265 680.317 891.132 680.317H943.984V690H944Z" fill="#D3D3D3"/>
<path d="M762.974 301.883L760.903 311.566H732.237V301.883H762.974Z" fill="#696352"/>
<path d="M653.356 248.773H636.434V366.725H653.356V248.773Z" fill="#EF6167"/>
<path d="M636.45 257.487H572.112V356.8H636.45V257.487Z" fill="#BE373D"/>
<path d="M636.434 257.487V356.816H620.451L613.284 257.487H636.434Z" fill="#EB5757"/>
<path d="M572.112 290.167H522.755C519.228 290.167 516.381 287.31 516.381 283.808V281.694C516.381 278.176 519.244 275.336 522.755 275.336H572.112V290.167Z" fill="#D3D3D3"/>
<path d="M572.096 275.32H554.77V290.151H572.096V275.32Z" fill="#999999"/>
<path d="M572.112 338.968H522.755C519.228 338.968 516.381 336.111 516.381 332.609V330.495C516.381 326.977 519.244 324.137 522.755 324.137H572.112V338.968Z" fill="#D3D3D3"/>
<path d="M572.096 324.137H554.77V338.968H572.096V324.137Z" fill="#999999"/>
<path d="M753.348 297.671H703.085V317.472H753.348V297.671Z" fill="#FFC727"/>
<path d="M753.348 297.687H703.085V317.488H753.348V297.687Z" fill="#787878"/>
<path d="M720.735 297.687L719.085 317.472L703.085 317.472V297.687H720.735Z" fill="#6B4A4C"/>
<path d="M693.136 353.056H653.356V261.215H693.136C698.636 261.215 703.085 265.653 703.085 271.14V343.131C703.085 348.618 698.62 353.056 693.136 353.056Z" fill="#BE373D"/>
<path d="M674.516 261.231L667.365 353.072H653.356V261.231H674.516Z" fill="#EB5757"/>
<path d="M670.811 279.79H667.64V334.498H670.811V279.79Z" fill="#BB9022"/>
<path d="M679.806 279.79H676.635V334.498H679.806V279.79Z" fill="#BB9022"/>
<path d="M688.8 279.79H685.63V334.498H688.8V279.79Z" fill="#BB9022"/>
<path d="M748.69 242.269C754.255 257.842 746.295 314.938 736.864 326.977C722.838 344.874 695.174 361.367 684.578 366.499C679.968 368.742 659.228 335.692 663.758 332.593C673.448 325.961 704.379 310.129 707 306.982C709.621 303.836 723.728 273.609 729.374 256.616C736.945 233.813 745.859 234.394 748.69 242.269Z" fill="#EFBFA5"/>
<path d="M684.546 366.612C669.857 374.971 640.672 373.745 636.677 372.519C633.279 371.502 631.532 370.937 631.532 370.937C625.401 369.226 623.751 365.837 623.751 365.837C623.751 365.837 616.083 365.934 615.258 361.319C614.319 356.139 625.271 357.026 631.597 353.831C646.076 346.504 664.615 332.061 668.579 329.543L684.546 366.612Z" fill="#EFBFA5"/>
<path d="M648.502 343.906C650.007 342.212 649.133 341.405 645.154 342.131C641.125 342.857 626.048 349.07 624.317 343.632C622.57 338.161 644.07 329.705 650.783 329.011C657.497 328.301 668.967 329.543 668.967 329.543C665.1 332.028 655.976 338.936 648.502 343.906Z" fill="#EFBFA5"/>
<path d="M733.078 246.191C742.865 225.647 751.795 231.086 752.653 251.403C753.446 270.398 750.776 293.653 750.776 293.653L715.299 283.502C715.283 283.502 726.817 259.343 733.078 246.191Z" fill="#00665F"/>
<path d="M741.911 234.217C742.93 234.797 743.788 235.54 744.596 236.331C745.389 237.137 746.133 237.993 746.716 239.009C745.697 238.429 744.839 237.686 744.03 236.895C743.238 236.088 742.493 235.233 741.911 234.217Z" fill="#04413C"/>
<path d="M728.257 256.81C728.565 257.939 728.646 259.069 728.662 260.199C728.646 261.328 728.581 262.458 728.257 263.588C727.934 262.458 727.869 261.328 727.853 260.199C727.869 259.069 727.95 257.939 728.257 256.81Z" fill="#04413C"/>
<path d="M749.563 264.588C748.43 264.895 747.298 264.975 746.166 264.992C745.033 264.975 743.901 264.911 742.768 264.588C743.901 264.265 745.033 264.201 746.166 264.185C747.298 264.201 748.43 264.281 749.563 264.588Z" fill="#04413C"/>
<path d="M722.579 278.063C723.598 278.644 724.456 279.387 725.264 280.177C726.057 280.984 726.801 281.84 727.384 282.856C726.365 282.275 725.507 281.533 724.698 280.742C723.906 279.935 723.161 279.08 722.579 278.063Z" fill="#04413C"/>
<path d="M747.153 285.245C747.735 284.228 748.479 283.373 749.272 282.566C750.081 281.775 750.938 281.033 751.957 280.452C751.375 281.468 750.631 282.324 749.838 283.131C749.029 283.921 748.188 284.664 747.153 285.245Z" fill="#04413C"/>
<path d="M575.38 282.727C580.282 284.212 579.23 277.611 579.23 277.611C579.23 277.611 583.032 286.778 588.678 286.358C594.114 285.955 592.577 277.999 592.48 277.434C592.69 277.918 596.395 286.245 602.024 285.245C607.881 284.212 604.952 276.498 604.775 275.998C605.114 276.385 609.66 281.549 613.769 279.822C620.823 276.853 609.563 263.362 610.388 257.229L620.305 257.52C620.628 257.471 620.968 257.439 621.276 257.374L621.664 252.323C618.833 251.323 615.63 249.467 612.507 247.724C608.77 245.626 605.163 243.722 602.477 243.673C598.061 243.593 596.896 247.369 596.896 247.369C596.896 247.369 593.984 242.786 589.535 243.431C587.254 243.77 585.75 247.724 585.75 247.724C585.75 247.724 583.275 244.157 579.344 244.98C576.205 245.626 575.186 249.483 575.186 249.483C575.186 249.483 571.206 247.159 568.214 248.854C562.147 252.259 564.897 279.532 575.38 282.727Z" fill="#EFBFA5"/>
<path d="M611.666 256.729L620.305 257.52C620.628 257.471 620.968 257.439 621.276 257.374C632.195 255.406 638.974 242.947 631.079 242.06C625.061 241.366 618.574 249.322 612.507 247.724L612.507 247.74L611.666 256.729Z" fill="#EFBFA5"/>
<path d="M468.771 644.378C465.406 645.492 369.538 645.217 365.882 642.893C364.507 642.022 363.73 628.079 363.277 611.231C363.18 607.584 363.099 603.84 363.035 599.999C362.954 595.48 362.905 590.897 362.873 586.443C362.76 566.464 363.035 548.874 363.035 548.874H425.447L425.399 599.999L425.075 611.231C425.075 611.231 461.733 627.724 465.454 630.693C469.191 633.646 472.119 643.281 468.771 644.378Z" fill="#AD6359"/>
<path d="M468.771 644.378C465.406 645.492 369.538 645.217 365.882 642.893C364.507 642.022 363.73 628.079 363.277 611.231C363.18 607.584 363.099 603.84 363.035 599.999C362.954 595.48 362.905 590.897 362.873 586.443L425.431 586.443L425.415 599.999L425.091 611.231C425.091 611.231 461.75 627.724 465.47 630.693C469.191 633.646 472.119 643.281 468.771 644.378Z" fill="white"/>
<path d="M469.062 644.523C466.878 645.233 426.03 645.395 396.296 644.765C389.42 644.62 383.127 644.426 378.047 644.217C371.042 643.894 366.351 643.507 365.591 643.039C363.908 641.957 363.099 621.494 362.711 599.918H425.431L425.108 611.199C425.108 611.199 461.976 627.772 465.729 630.758C469.482 633.743 472.427 643.394 469.062 644.523Z" fill="#2D4054"/>
<path d="M467.687 640.666C451.525 640.231 386.298 639.956 370.298 640.747C370.169 640.747 370.169 640.844 370.298 640.844C386.314 641.635 451.525 641.36 467.687 640.925C468.026 640.925 468.043 640.682 467.687 640.666Z" fill="#17222F"/>
<path d="M434.329 595.512L356.968 596.9C356.968 596.9 346.437 528.621 339.496 486.13C336.876 470.169 334.805 457.856 333.964 454.128C331.958 445.268 292.744 304.642 292.744 304.642L368.195 304.546C368.195 304.546 366.966 328.059 367.694 330.528C377.724 364.563 398.221 424.918 404.627 445.946C414.479 478.319 434.329 595.512 434.329 595.512Z" fill="#283B50"/>
<path d="M372.822 659.612C369.457 660.726 273.589 660.452 269.933 658.128C268.558 657.272 267.782 643.313 267.329 626.465C267.232 622.818 267.151 619.074 267.086 615.233C267.005 610.714 266.957 606.131 266.924 601.677C266.811 581.698 267.086 564.108 267.086 564.108H329.499L329.45 615.233L329.127 626.465C329.127 626.465 365.785 642.958 369.506 645.927C373.243 648.881 376.171 658.515 372.822 659.612Z" fill="#AD6359"/>
<path d="M372.822 659.612C369.457 660.726 273.589 660.452 269.933 658.128C268.558 657.272 267.782 643.313 267.329 626.465C267.232 622.818 267.151 619.074 267.086 615.233C267.005 610.714 266.957 606.131 266.924 601.677H329.483L329.466 615.233L329.143 626.465C329.143 626.465 365.801 642.958 369.522 645.927C373.243 648.881 376.171 658.515 372.822 659.612Z" fill="white"/>
<path d="M373.113 659.758C370.929 660.468 330.081 660.613 300.347 660C293.471 659.854 287.178 659.661 282.099 659.451C275.094 659.128 270.402 658.741 269.642 658.273C267.96 657.192 267.151 636.729 266.763 615.152H329.483L329.159 626.433C329.159 626.433 366.027 643.006 369.781 645.992C373.518 648.961 376.478 658.628 373.113 659.758Z" fill="#2D4054"/>
<path d="M371.738 655.901C355.577 655.465 290.349 655.191 274.35 655.981C274.22 655.981 274.22 656.078 274.35 656.078C290.365 656.869 355.577 656.595 371.738 656.159C372.078 656.159 372.078 655.917 371.738 655.901Z" fill="#17222F"/>
<path d="M338.267 609.811H262.524C262.524 609.811 278.96 375.698 276.307 362.561C271.955 341.082 274.867 316.407 285.043 304.529H352.39C352.39 304.529 353.733 323.379 346.776 334.643C346.776 334.643 340.467 338.629 337.393 340.388L338.267 609.811Z" fill="#2D4054"/>
<path d="M342.408 330.673C342.004 331.964 341.713 333.303 341.486 334.643C341.308 335.676 341.049 336.805 341.276 337.838C341.324 338.032 341.599 338.032 341.697 337.87C342.295 336.934 342.473 335.724 342.748 334.659C343.072 333.432 343.411 332.206 343.703 330.963C343.913 330.14 342.667 329.866 342.408 330.673Z" fill="#263238"/>
<path d="M341.81 324.202C341.988 323.072 342.166 321.958 342.376 320.845C342.586 319.683 342.878 318.537 342.991 317.359C343.007 317.182 343.314 317.23 343.282 317.424C343.104 318.553 343.088 319.699 342.991 320.845C342.894 321.991 342.797 323.12 342.683 324.25C342.473 326.364 342.101 328.494 341.68 330.592C342.78 330.334 343.897 330.027 344.77 329.317C345.725 328.543 346.129 327.236 346.42 326.09C346.744 324.799 347.035 323.508 347.375 322.233C347.763 320.813 348.232 319.409 348.362 317.94C348.378 317.763 348.669 317.811 348.653 318.005C348.281 321.055 347.925 324.105 346.938 327.058C346.55 328.22 346.291 329.398 345.239 330.043C344.107 330.754 342.764 330.963 341.47 331.157C341.324 331.238 341.098 331.173 341.114 330.979C341.26 328.704 341.454 326.412 341.81 324.202Z" fill="#263238"/>
<path d="M342.813 226.148C344.204 237.121 365.752 277.902 388.692 295.992C397.104 302.625 441.706 306.547 452.852 305.691C465.923 304.691 467.881 273.674 460.552 271.253C451.412 268.235 409.14 264.507 400.825 261.506C390.73 257.859 372.353 234.442 354.897 219.951C345.919 212.495 341.745 217.707 342.813 226.148Z" fill="#AD6359"/>
<path d="M452.868 305.691C456.993 305.578 475.889 303.416 481.001 301.641C486.129 299.866 500.479 293.685 499.524 289.634C498.553 285.584 494.202 287.052 494.202 287.052C494.202 287.052 499.848 283.486 498.505 279.5C497.162 275.513 490.465 278.031 490.465 278.031C490.465 278.031 495.997 273.948 494.38 270.059C492.762 266.17 486.453 269.833 486.453 269.833C486.453 269.833 491.694 266.331 488.992 263.701C485.757 260.521 476.843 268.074 471.035 269.607C469.725 269.962 443.841 274.787 443.841 274.787L452.868 305.691Z" fill="#AD6359"/>
<path d="M487.003 269.542C480.435 275.062 476.601 276.353 468.204 277.515C468.043 277.531 468.043 277.789 468.204 277.773C476.52 277.385 481.567 276.466 487.278 269.849C487.569 269.51 487.31 269.268 487.003 269.542Z" fill="#263238"/>
<path d="M490.982 277.595C483.654 282.743 479.496 284.163 470.809 286.019C470.68 286.052 470.712 286.261 470.841 286.245C479.529 285.132 484.527 284.115 491.176 278.015C491.484 277.724 491.322 277.353 490.982 277.595Z" fill="#263238"/>
<path d="M493.749 287.149C486.291 291.619 481.81 293.378 473.139 294.104C472.928 294.12 472.944 294.427 473.139 294.427C482.052 294.556 487.65 292.394 493.846 287.391C494.282 287.052 494.218 286.858 493.749 287.149Z" fill="#263238"/>
<path d="M437.791 271.398C437.791 271.398 446.882 265.621 451.428 263.959C455.974 262.296 475.225 262.345 475.452 266.492C475.743 271.85 464.629 273.996 459.048 274.352C459.048 274.352 459.727 286.745 452.092 290.005C444.456 293.265 437.791 271.398 437.791 271.398Z" fill="#AD6359"/>
<path d="M475.064 267.993C471.796 273.06 464.435 273.044 459.048 273.787C458.644 273.835 458.546 274.19 458.643 274.497C458.579 279.709 456.977 287.036 452.415 290.134C452.286 290.231 452.399 290.425 452.545 290.36C457.883 287.714 460.051 280.629 459.76 274.916C465.292 274.239 472.686 273.932 475.128 268.025C475.128 267.993 475.08 267.961 475.064 267.993Z" fill="#263238"/>
<path d="M414.333 305.094C414.333 305.094 391.491 298.865 388.708 296.686C385.683 294.314 382.787 291.748 380.037 289.037C359.265 268.655 346.695 240.898 343.298 231.134C339.723 220.822 343.023 210.962 352.649 217.611C353.361 218.111 354.105 218.692 354.881 219.37C366.222 229.214 396.49 259.15 400.146 260.699C403.802 262.216 421.629 264.54 421.629 264.54L414.333 305.094Z" fill="#00665F"/>
<path d="M414.236 263.862C413.088 266.912 412.376 270.188 411.599 273.351C410.807 276.546 410.014 279.742 409.318 282.953C407.943 289.279 406.665 295.702 406.018 302.157C406.002 302.319 406.261 302.367 406.309 302.206C408.057 295.88 409.351 289.408 410.693 282.985C411.357 279.822 411.955 276.643 412.619 273.48C413.282 270.317 414.075 267.106 414.43 263.894C414.414 263.797 414.269 263.781 414.236 263.862Z" fill="#263238"/>
<path d="M367.548 315.519C364.345 318.424 360.365 322.668 337.652 324.25C336.229 324.347 334.789 324.379 333.317 324.331C311.445 323.717 280.756 306.531 278.928 305.223C278.928 305.223 302.499 241.608 333.673 217.191C338.121 213.705 347.666 215.432 353.636 219.015C355.771 220.306 362.824 232.07 364.232 242.786C365.639 253.485 370.767 312.631 367.548 315.519Z" fill="#06847B"/>
<path d="M349.834 234.894C344.333 235.33 336.471 225.841 333.883 218.74C333.705 218.256 335.128 213.625 336.584 207.912C337.458 204.442 338.348 200.553 338.898 196.954C339.011 196.212 341.324 197.955 341.324 197.955L345.822 199.794L360.705 205.894C360.705 205.894 357.324 213.108 356.386 219.386C356.321 219.918 356.289 220.402 356.321 220.887C356.321 220.951 356.321 221.048 356.321 221.129C356.321 224.033 355.14 234.475 349.834 234.894Z" fill="#C1796B"/>
<path d="M356.305 220.903C356.305 220.967 356.305 221.064 356.305 221.145C355.577 221.145 354.8 221.064 353.959 220.919C338.768 218.24 339.836 198.616 339.836 198.616L345.822 199.794L360.705 205.894C360.705 205.894 357.324 213.108 356.386 219.386C356.305 219.934 356.272 220.435 356.305 220.903Z" fill="#C1796B"/>
<path d="M337.345 173.344C334.449 181.316 337.539 204.91 343.039 210.413C351.015 218.401 364.669 219.821 371.625 210.106C378.355 200.698 373.793 170.02 367.597 164.953C358.456 157.497 341.616 161.58 337.345 173.344Z" fill="#C1796B"/>
<path d="M339.06 193.016C343.136 192.726 342.619 182.785 342.619 182.785C342.619 182.785 348.831 181.591 351.759 173.054C351.759 173.054 359.815 177.96 366.513 176.669C377.012 174.635 376.559 161.015 372.596 158.271C366.966 154.398 357.098 160.256 357.098 160.256C357.098 160.256 342.004 156.254 337.652 166.453C337.652 166.453 330.955 166.825 330.583 174.216C330.211 181.607 336.034 193.226 339.06 193.016Z" fill="#17222F"/>
<path d="M341.179 183.963C344.156 183.334 346.987 181.93 348.976 179.59C351.031 177.169 352.196 173.489 351.257 170.375C351.209 170.213 351.484 170.133 351.532 170.31C352.325 173.764 352.163 177.33 349.979 180.284C347.99 182.995 344.592 184.689 341.195 184.253C341.049 184.253 341.001 184.011 341.179 183.963Z" fill="#17222F"/>
<path d="M330 169.907C332.039 167.26 335.193 166.808 338.315 166.889C338.493 166.889 338.477 167.18 338.299 167.163C335.226 166.857 332.152 168.939 330.566 171.472C329.03 173.958 329.418 177.056 330.081 179.767C331.359 184.964 334.498 189.644 338.963 192.645C339.043 192.694 338.963 192.807 338.882 192.758C333.818 189.627 330.097 184.512 328.916 178.67C328.382 175.797 328.124 172.344 330 169.907Z" fill="#17222F"/>
<path d="M356.693 160.757C358.084 158.594 359.961 157.013 362.42 156.27C365.251 155.415 368.503 155.754 371.156 157.045C373.404 158.142 374.666 160.402 374.86 162.887C375.087 165.727 373.776 168.422 372.207 170.665C372.159 170.73 372.062 170.665 372.11 170.601C373.388 168.471 374.359 166.082 374.181 163.549C374.003 161.031 372.644 158.933 370.347 157.965C366.011 156.109 359.702 156.496 356.936 160.918C356.839 161.047 356.596 160.902 356.693 160.757Z" fill="#263238"/>
<path d="M341.373 192.645C341.373 192.645 336.309 184.915 332.799 186.69C329.305 188.465 332.945 199.568 336.94 201.182C340.936 202.812 342.522 199.149 342.522 199.149L341.373 192.645Z" fill="#C1796B"/>
<path d="M188.852 690H136V680.317H188.852C230.735 680.317 242.658 644.572 245.295 614.604C247.366 591.123 248.628 562.51 249.97 532.236C255.001 418.98 260.211 301.867 305.896 301.867H347.747V311.549H305.896C269.496 311.549 263.818 439.346 259.661 532.655C258.318 563.043 257.04 591.736 254.953 615.427C250.731 663.534 227.257 690 188.852 690Z" fill="#D3D3D3"/>
<path d="M347.763 301.883V311.566H314.373L312.302 301.883H347.763Z" fill="#747474"/>
<path d="M493.012 369.264H510.84V245.034H493.012V369.264Z" fill="#EF6167"/>
<path d="M493.004 250.935H425.253V362.093H493.004V250.935Z" fill="#BE373D"/>
<path d="M493.004 250.935V362.093H476.18L468.625 250.935H493.004Z" fill="#EB5757"/>
<path d="M322.623 316.63H372.886V296.829H322.623V316.63Z" fill="#FFC61A"/>
<path d="M372.887 296.816H322.623V316.617H372.887V296.816Z" fill="#787878"/>
<path d="M382.836 258.794H425.253V355.525H382.836C377.336 355.525 372.887 351.087 372.887 345.6V268.719C372.887 263.232 377.336 258.794 382.836 258.794Z" fill="#BE373D"/>
<path d="M402.961 355.509L410.516 258.778H425.253V355.509H402.961Z" fill="#EB5757"/>
<path d="M406.864 335.965H410.213V278.352H406.864V335.965Z" fill="#F1BB1B"/>
<path d="M397.4 335.965H400.749V278.352H397.4V335.965Z" fill="#F1BB1B"/>
<path d="M387.92 335.965H391.269V278.352H387.92V335.965Z" fill="#F1BB1B"/>
<path d="M319.533 239.477C317.835 262.781 316.071 310.258 326.393 324.169C339.933 342.437 378.128 353.524 389.42 356.849C394.338 358.301 405.905 326.235 403.025 321.571C400.146 316.923 360.689 306.999 357.583 304.336C354.477 301.673 344.706 263.797 339.966 244.529C333.98 220.241 320.197 230.295 319.533 239.477Z" fill="#C1796B"/>
<path d="M432.242 333.9C438.486 335.385 447.934 332.206 448.241 336.951C448.516 341.179 441.754 342.76 441.754 342.76C441.754 342.76 449.94 343.438 448.937 348.07C447.934 352.701 440.169 352.927 440.169 352.927C440.169 352.927 447.675 353.944 446.332 358.511C444.99 363.062 437.775 363.691 437.775 363.691C437.775 363.691 439.684 365.111 437.289 367.903C433.86 371.905 422.487 371.437 416.598 369.775C410.71 368.129 390.391 357.736 387.317 356.09L397.622 318.327C397.622 318.327 409.448 316.455 415.563 316.229C421.678 316.004 442.013 320.845 441.156 325.961C440.298 331.076 425.981 327.413 422.293 327.284C418.588 327.155 417.941 327.978 419.559 329.333C420.594 330.205 429.476 333.255 432.242 333.9Z" fill="#C1796B"/>
<path d="M359.637 349.296C359.637 349.296 328.787 333.852 324.112 321.991C318.288 307.208 315.91 264.104 318.174 241.995C320.439 219.886 335.873 222.565 340.904 242.189C345.789 261.248 356.709 299.365 357.842 301.14C359.298 303.448 376.883 307.789 376.883 307.789" fill="#00665F"/>
<path d="M540.696 224.259C540.243 224.259 539.887 223.904 539.887 223.453V200.746C539.887 200.295 540.243 199.94 540.696 199.94C541.149 199.94 541.505 200.295 541.505 200.746V223.453C541.505 223.888 541.149 224.259 540.696 224.259Z" fill="#FFDCDE"/>
<path d="M499.508 235.12C499.233 235.12 498.958 234.975 498.812 234.717L487.423 215.061C487.197 214.673 487.326 214.189 487.714 213.963C488.103 213.737 488.588 213.867 488.814 214.254L500.203 233.91C500.43 234.297 500.3 234.781 499.912 235.007C499.783 235.088 499.637 235.12 499.508 235.12Z" fill="#FFDCDE"/>
<path d="M487.666 397.032C487.537 397.032 487.391 397 487.262 396.919C486.873 396.693 486.744 396.209 486.97 395.822L498.359 376.166C498.586 375.778 499.071 375.649 499.459 375.875C499.847 376.101 499.977 376.585 499.75 376.973L488.362 396.629C488.216 396.887 487.941 397.032 487.666 397.032Z" fill="#FFDCDE"/>
<path d="M540.178 411.201C539.725 411.201 539.369 410.846 539.369 410.394V387.688C539.369 387.236 539.725 386.881 540.178 386.881C540.631 386.881 540.987 387.236 540.987 387.688V410.394C540.987 410.846 540.615 411.201 540.178 411.201Z" fill="#FFDCDE"/>
<path d="M592.755 397.29C592.48 397.29 592.205 397.145 592.059 396.887L580.686 377.231C580.46 376.843 580.589 376.359 580.978 376.133C581.366 375.907 581.851 376.037 582.078 376.424L593.45 396.08C593.677 396.467 593.547 396.951 593.159 397.177C593.03 397.258 592.884 397.29 592.755 397.29Z" fill="#FFDCDE"/>
<path d="M581.819 235.395C581.673 235.395 581.544 235.362 581.414 235.282C581.026 235.056 580.897 234.572 581.123 234.184L592.512 214.528C592.739 214.141 593.224 214.012 593.612 214.238C594.001 214.464 594.13 214.948 593.903 215.335L582.514 234.991C582.369 235.249 582.094 235.395 581.819 235.395Z" fill="#FFDCDE"/>
</svg>
