<svg width="50" height="51" viewBox="0 0 50 51" fill="none" xmlns="http://www.w3.org/2000/svg">
<path d="M45 36.5468C45 36.9322 44.8456 37.3018 44.5709 37.5744C44.2962 37.8469 43.9235 38 43.535 38H6.46502C6.07647 38 5.70384 37.8469 5.4291 37.5744C5.15435 37.3018 5 36.9322 5 36.5468V14.4532C5 14.0678 5.15435 13.6982 5.4291 13.4256C5.70384 13.1531 6.07647 13 6.46502 13H43.5154C43.904 13 44.2766 13.1531 44.5514 13.4256C44.8261 13.6982 44.9805 14.0678 44.9805 14.4532V36.5468" fill="#286CB4"/>
<path d="M26.7871 25.1986H27.2478H27.7084V23.4807V21.75H27.2478H26.7871V23.4743V25.1986Z" fill="white"/>
<path d="M24.9644 23.228H24.0046V22.5338H24.9644C25.2395 22.5338 25.377 22.6969 25.377 22.8825C25.377 23.068 25.2395 23.228 24.9644 23.228ZM26.3144 22.8633C26.3144 22.2043 25.8313 21.75 25.0731 21.75H23.0769V25.1986H23.9982V23.9893H24.3341L25.3834 25.1986H26.5255L25.3834 23.951C25.6442 23.9137 25.8826 23.7827 26.0539 23.5826C26.2252 23.3824 26.3178 23.1267 26.3144 22.8633Z" fill="white"/>
<path d="M29.1158 23.5031V23.4391C29.1045 23.3209 29.1194 23.2017 29.1594 23.0899C29.1994 22.9781 29.2634 22.8765 29.3471 22.7922C29.4307 22.7079 29.5319 22.6431 29.6434 22.6023C29.7549 22.5615 29.874 22.5458 29.9923 22.5562H31.016V21.75H29.9155C28.7767 21.75 28.1976 22.4794 28.1976 23.4391V23.5063C28.1976 24.5748 28.8566 25.1954 29.8707 25.1954H30.1906L30.5617 24.4148H30.0179C29.896 24.4266 29.7729 24.4109 29.6578 24.369C29.5427 24.3271 29.4384 24.26 29.3525 24.1726C29.2667 24.0852 29.2014 23.9798 29.1616 23.8639C29.1217 23.7481 29.1082 23.6248 29.1222 23.5031" fill="white"/>
<path d="M11.6187 23.7398L12.1018 22.5882L12.5848 23.7398H11.6187ZM11.5228 21.75L10 25.1954H11.0141L11.3052 24.498H12.9047L13.1991 25.1954H14.2388L12.7128 21.75H11.5228Z" fill="white"/>
<path d="M16.6416 23.9222L15.8546 21.75H14.4087V25.1954H15.314V22.7161L16.2225 25.1954H17.0415L17.9532 22.7161V25.1954H18.8586V21.75H17.4254L16.6416 23.9222Z" fill="white"/>
<path d="M19.5654 25.1986H22.4798V24.4148H20.4868V23.8614H22.4318V23.0808H20.4868V22.5338H22.4798V21.75H19.5654V25.1986Z" fill="white"/>
<path d="M32.2323 23.7398L32.7121 22.5882L33.1952 23.7398H32.2323ZM32.1331 21.75L30.6104 25.1954H31.6245L31.9156 24.498H33.5151L33.8094 25.1954H34.8491L33.3232 21.75H32.1331Z" fill="white"/>
<path d="M37.5864 23.8518L36.182 21.75H35.0208V25.1986H35.9357V23.0168L37.3817 25.1986H38.495V21.75H37.5864V23.8518Z" fill="white"/>
<path d="M34.5484 27.508H33.7007C33.6623 27.5122 33.6234 27.5082 33.5866 27.4963C33.5499 27.4845 33.516 27.465 33.4873 27.4392C33.4585 27.4134 33.4355 27.3819 33.4198 27.3466C33.404 27.3113 33.3959 27.2731 33.3959 27.2345C33.3959 27.1959 33.404 27.1577 33.4198 27.1224C33.4355 27.0871 33.4585 27.0555 33.4873 27.0297C33.516 27.0039 33.5499 26.9845 33.5866 26.9726C33.6234 26.9608 33.6623 26.9568 33.7007 26.961H35.233L35.5881 26.1836H33.6975C32.9137 26.1836 32.4658 26.6475 32.4658 27.2681C32.4658 27.8887 32.9009 28.2982 33.5727 28.2982H34.4204C34.4601 28.2921 34.5006 28.2947 34.5391 28.3057C34.5777 28.3168 34.6134 28.336 34.6438 28.3621C34.6743 28.3883 34.6987 28.4207 34.7154 28.4571C34.7322 28.4936 34.7408 28.5332 34.7408 28.5733C34.7408 28.6134 34.7322 28.653 34.7154 28.6895C34.6987 28.7259 34.6743 28.7583 34.6438 28.7844C34.6134 28.8106 34.5777 28.8298 34.5391 28.8409C34.5006 28.8519 34.4601 28.8545 34.4204 28.8484H32.5746V29.6322H34.4268C35.1978 29.6322 35.6553 29.1779 35.6553 28.5125C35.6553 27.8471 35.2682 27.508 34.5484 27.508Z" fill="white"/>
<path d="M27.3432 27.6616H26.3835V26.9674H27.3432C27.6215 26.9674 27.7591 27.1305 27.7591 27.3161C27.7591 27.5016 27.6215 27.6616 27.3432 27.6616ZM28.6836 27.2969C28.6836 26.6379 28.2102 26.1836 27.452 26.1836H25.459V29.6322H26.3803V28.4261H26.7002L27.7495 29.6322H28.9044L27.7623 28.3845C28.0211 28.3445 28.2567 28.2125 28.426 28.0127C28.5952 27.8129 28.6867 27.5587 28.6836 27.2969Z" fill="white"/>
<path d="M29.1702 29.6322H32.0846V28.8484H30.0916V28.2982H32.0366V27.5144H30.0916V26.9674H32.0846V26.1836H29.1702V29.6322Z" fill="white"/>
<path d="M23.7262 27.7257H22.7377V26.9675H23.7262C23.7796 26.9615 23.8336 26.9671 23.8846 26.9838C23.9356 27.0005 23.9824 27.028 24.0219 27.0644C24.0613 27.1009 24.0925 27.1453 24.1132 27.1948C24.134 27.2444 24.1438 27.2977 24.1421 27.3514C24.143 27.4044 24.1324 27.457 24.1113 27.5056C24.0901 27.5542 24.0587 27.5977 24.0193 27.6332C23.9799 27.6686 23.9334 27.6952 23.8828 27.7112C23.8323 27.7272 23.7789 27.7321 23.7262 27.7257ZM23.835 26.1837H21.8164V29.6323H22.7377V28.5095H23.8062C23.9672 28.5247 24.1295 28.506 24.2827 28.4544C24.4359 28.4028 24.5765 28.3195 24.6954 28.2099C24.8143 28.1004 24.9088 27.9671 24.9728 27.8186C25.0367 27.6701 25.0687 27.5099 25.0666 27.3482C25.0728 27.1878 25.0447 27.028 24.984 26.8793C24.9234 26.7307 24.8317 26.5968 24.715 26.4865C24.5984 26.3763 24.4595 26.2922 24.3078 26.24C24.156 26.1878 23.9948 26.1686 23.835 26.1837Z" fill="white"/>
<path d="M37.9403 27.5095H37.0925C37.0541 27.5137 37.0153 27.5097 36.9785 27.4979C36.9417 27.486 36.9079 27.4665 36.8791 27.4407C36.8504 27.4149 36.8274 27.3834 36.8117 27.3481C36.7959 27.3128 36.7878 27.2746 36.7878 27.236C36.7878 27.1974 36.7959 27.1592 36.8117 27.1239C36.8274 27.0886 36.8504 27.0571 36.8791 27.0313C36.9079 27.0055 36.9417 26.986 36.9785 26.9741C37.0153 26.9623 37.0541 26.9583 37.0925 26.9625H38.6217L38.9832 26.1787H37.0861C36.3056 26.1787 35.8545 26.6426 35.8545 27.2632C35.8545 27.8838 36.2896 28.2933 36.9646 28.2933H37.8091C37.8488 28.2872 37.8893 28.2898 37.9278 28.3008C37.9664 28.3119 38.0021 28.3311 38.0325 28.3573C38.0629 28.3834 38.0874 28.4158 38.1041 28.4522C38.1208 28.4887 38.1295 28.5283 38.1295 28.5684C38.1295 28.6085 38.1208 28.6481 38.1041 28.6846C38.0874 28.721 38.0629 28.7534 38.0325 28.7796C38.0021 28.8057 37.9664 28.8249 37.9278 28.836C37.8893 28.847 37.8488 28.8496 37.8091 28.8435H35.9633V29.6273H37.8315C38.6057 29.6273 39.0631 29.173 39.0631 28.5076C39.0631 27.8422 38.6441 27.5095 37.9403 27.5095Z" fill="white"/>
<path d="M14.4087 29.6322H17.323V28.8484H15.3268V28.2982H17.2718V27.5144H15.3268V26.9674H17.323V26.1836H14.4087V29.6322Z" fill="white"/>
<path d="M21.6483 26.1836H20.4743L19.5785 27.2233L18.6828 26.1836H17.48L18.9995 27.8887L17.4512 29.6322H18.6252L19.5658 28.5381L20.5063 29.6322H21.7059L20.1512 27.8695L21.6483 26.1836Z" fill="white"/>
</svg>
