<svg width="50" height="51" viewBox="0 0 50 51" fill="none" xmlns="http://www.w3.org/2000/svg">
<path d="M45 36.5468C45 36.9322 44.8456 37.3018 44.5709 37.5744C44.2962 37.8469 43.9235 38 43.535 38H6.46502C6.07647 38 5.70384 37.8469 5.4291 37.5744C5.15435 37.3018 5 36.9322 5 36.5468V14.4532C5 14.0678 5.15435 13.6982 5.4291 13.4256C5.70384 13.1531 6.07647 13 6.46502 13H43.5154C43.904 13 44.2766 13.1531 44.5514 13.4256C44.8261 13.6982 44.9805 14.0678 44.9805 14.4532V36.5468" fill="#2C328C"/>
<path fill-rule="evenodd" clip-rule="evenodd" d="M39.0329 27.9083C33.7968 26.1559 24.4891 23.53 10 27.2513V24.4548C24.4077 20.4791 35.5593 23.6739 39.0641 25.0025L39.0329 27.9083Z" fill="white"/>
<path fill-rule="evenodd" clip-rule="evenodd" d="M19.2528 22.9313C19.9712 20.9457 21.6154 19.2312 24.4722 19.2502C27.329 19.2691 29.2343 20.9011 29.7485 23.0361C26.0674 22.6535 23.6133 22.5866 19.2528 22.9313Z" fill="white"/>
<path fill-rule="evenodd" clip-rule="evenodd" d="M31.9332 30.6139C31.5983 30.6817 31.2592 30.7268 30.9181 30.7488C30.7361 30.76 30.5549 30.7835 30.376 30.8191C30.2868 30.8362 30.2031 30.8745 30.1317 30.9307C30.1056 30.9507 30.0842 30.9764 30.0692 31.0057C30.0542 31.035 30.0458 31.0673 30.0447 31.1002C30.0447 31.195 30.1083 31.2742 30.2321 31.3367C30.4065 31.4087 30.5947 31.4411 30.7832 31.4315C30.9996 31.4349 31.2153 31.4044 31.4223 31.3412C31.5796 31.2996 31.7218 31.2146 31.8328 31.0957C31.9073 30.9927 31.9429 30.8667 31.9332 30.7399V30.6139ZM31.9857 31.4081C31.7728 31.5136 31.5481 31.5933 31.3164 31.6457C31.0907 31.6924 30.8608 31.7153 30.6303 31.7137C30.2277 31.7137 29.9187 31.658 29.7011 31.5453C29.4836 31.4326 29.3776 31.2887 29.3776 31.1147C29.3781 31.0618 29.3892 31.0096 29.4103 30.9611C29.4314 30.9126 29.462 30.8689 29.5004 30.8325C29.5904 30.7413 29.6998 30.6716 29.8205 30.6284C29.9646 30.5735 30.1142 30.5342 30.2667 30.5112C30.3883 30.4934 30.5723 30.4744 30.8189 30.4577C31.1906 30.4392 31.5609 30.3982 31.9277 30.335C31.9277 30.2859 31.9277 30.2558 31.9277 30.2424C31.9322 30.1797 31.9178 30.117 31.8864 30.0625C31.855 30.0081 31.808 29.9642 31.7514 29.9368C31.5278 29.8437 31.286 29.8025 31.0442 29.8163C30.8247 29.8055 30.605 29.835 30.3961 29.9033C30.2565 29.9628 30.1456 30.0745 30.0871 30.2145L29.4803 30.1677C29.5326 30.0229 29.6275 29.8973 29.7525 29.8074C29.9186 29.6991 30.1055 29.6269 30.3013 29.5954C30.5755 29.5431 30.8543 29.5185 31.1334 29.5218C31.3892 29.517 31.6448 29.5379 31.8964 29.5843C32.0493 29.6101 32.1961 29.6642 32.3292 29.7438C32.4166 29.803 32.4839 29.8875 32.5222 29.9858C32.5474 30.0932 32.5575 30.2036 32.5523 30.3138V30.7879C32.5426 30.9977 32.5561 31.2079 32.5925 31.4148C32.6234 31.5104 32.6775 31.597 32.7498 31.6669H32.1006C32.0393 31.5928 31.9995 31.5033 31.9857 31.4081ZM26.6904 31.6669V29.5698H27.2482V29.8866C27.3582 29.7617 27.4936 29.6617 27.6453 29.5932C27.7722 29.5441 27.9074 29.5199 28.0435 29.5218C28.261 29.5225 28.4768 29.5602 28.6816 29.6333L28.4674 29.968C28.321 29.9174 28.1672 29.8914 28.0123 29.891C27.8868 29.889 27.7622 29.9129 27.6464 29.9613C27.5495 29.9982 27.468 30.0671 27.4155 30.1565C27.3454 30.2834 27.3096 30.4265 27.3118 30.5715V31.6691L26.6904 31.6669ZM24.6268 31.6669V31.359C24.3401 31.5966 23.9575 31.7137 23.4622 31.7137C23.2582 31.7151 23.0548 31.6915 22.8565 31.6435C22.7067 31.613 22.5647 31.5523 22.4393 31.465C22.3511 31.3973 22.2845 31.3054 22.2474 31.2006C22.2172 31.0917 22.2044 30.9788 22.2095 30.866V29.5698H22.8308V30.7321C22.8235 30.8586 22.8363 30.9855 22.8688 31.108C22.9189 31.2124 23.0083 31.2926 23.1175 31.3311C23.2674 31.3878 23.4269 31.4147 23.5871 31.4103C23.7652 31.4118 23.9422 31.3843 24.1114 31.3289C24.2474 31.2923 24.3687 31.2144 24.4583 31.1058C24.5341 30.9828 24.57 30.8394 24.561 30.6953V29.5698H25.1812V31.6669H24.6268ZM17.9494 30.4778H19.6662L19.1374 29.6757C19.0062 29.4826 18.8867 29.2818 18.7794 29.0745C18.71 29.2705 18.6179 29.4576 18.505 29.6322L17.9494 30.4778ZM16.4893 31.6669L18.4336 28.7666H19.1497L21.2223 31.6669H20.4626L19.8725 30.7901H17.7531L17.1954 31.6669H16.4893Z" fill="white"/>
</svg>
