<svg width="50" height="51" viewBox="0 0 50 51" fill="none" xmlns="http://www.w3.org/2000/svg">
<path d="M45 36.5468C45 36.9322 44.8456 37.3018 44.5709 37.5744C44.2962 37.8469 43.9235 38 43.535 38H6.46502C6.07647 38 5.70384 37.8469 5.4291 37.5744C5.15435 37.3018 5 36.9322 5 36.5468V14.4532C5 14.0678 5.15435 13.6982 5.4291 13.4256C5.70384 13.1531 6.07647 13 6.46502 13H43.5154C43.904 13 44.2766 13.1531 44.5514 13.4256C44.8261 13.6982 44.9805 14.0678 44.9805 14.4532V36.5468" fill="#006398"/>
<path fill-rule="evenodd" clip-rule="evenodd" d="M29.1732 25.957C30.2419 25.957 30.7814 25.795 30.7814 26.5014C30.7814 27.3871 30.6515 27.2517 29.1736 27.2517L29.1732 25.957V25.957ZM29.1843 23.9733C30.4145 23.9733 30.6039 23.829 30.6036 24.6086C30.6033 25.3709 30.2255 25.2238 29.1729 25.2237L29.1843 23.9732V23.9733ZM28.1903 27.9991L30.3255 28.0105C31.0995 28.0105 31.7546 27.7088 31.7546 26.9302C31.7546 26.3319 31.8505 25.7195 31.0605 25.5174C31.5589 25.0972 31.5845 25.3238 31.5845 24.2863C31.5845 23.5375 31.1487 23.2679 30.4297 23.2216C29.8705 23.1856 28.736 23.1718 28.1902 23.223V27.9991H28.1903Z" fill="white"/>
<path fill-rule="evenodd" clip-rule="evenodd" d="M14.3537 23.6439C14.4205 23.7985 15.978 25.266 16.0659 25.3985C16.2739 25.712 15.8397 26.0091 15.7079 26.1412C15.3147 26.5352 14.927 26.8949 14.5275 27.2833C14.3791 27.4276 14.3505 27.396 14.3518 27.6791C14.3536 28.0603 14.3293 29.197 14.3689 29.4168L17.6718 26.1755C17.8146 26.0433 18.0443 25.8953 18.0586 25.6054C18.0762 25.2484 17.573 24.935 17.2269 24.558C16.6566 23.9369 15.9227 23.2926 15.3142 22.6836C15.1515 22.5207 15.0141 22.3662 14.8588 22.2099C14.7554 22.1059 14.4565 21.8106 14.3559 21.75L14.3538 23.6439L14.3537 23.6439Z" fill="white"/>
<path fill-rule="evenodd" clip-rule="evenodd" d="M13.6959 29.4168C13.7327 29.1198 13.7113 27.9244 13.711 27.5383C13.7108 27.3758 12.5297 26.3151 12.339 26.1234C12.2222 26.0061 11.9383 25.7991 11.9453 25.5739C11.9517 25.3674 12.5699 24.8436 12.8156 24.5707C12.9666 24.403 13.1182 24.2642 13.2781 24.1043C13.5221 23.8602 13.711 23.7555 13.711 23.5724L13.7093 21.75C13.5454 21.8484 11.7358 23.7086 11.3352 24.0559C10.9755 24.3678 10.7651 24.6635 10.3912 25.0038C9.68204 25.6491 9.99834 25.8256 10.8484 26.6134C11.4908 27.2089 12.1152 27.9228 12.7535 28.4957C12.9315 28.6555 13.0549 28.7911 13.2253 28.9532C13.3684 29.0894 13.5886 29.2711 13.6959 29.4167V29.4168Z" fill="white"/>
<path fill-rule="evenodd" clip-rule="evenodd" d="M25.4922 24.0126L26.1846 26.2261L24.7949 26.2082L25.4922 24.0126H25.4922ZM23.1877 27.9979L24.2154 28.0127L24.5379 27.0242L26.3948 27.021C26.5172 27.1241 26.7051 27.8153 26.7519 28.0065L27.7818 28.0112L26.1679 23.2215C24.5389 23.1384 24.8205 23.1222 24.1652 25.0964C23.942 25.7689 23.3246 27.4731 23.1877 27.9978L23.1877 27.9979Z" fill="white"/>
<path fill-rule="evenodd" clip-rule="evenodd" d="M34.2745 24.013L34.9686 26.2239L33.5717 26.2195L34.2745 24.013ZM31.9704 28.0083L32.9331 28.0105C33.0341 27.9863 33.0996 27.6802 33.1473 27.537C33.2024 27.3718 33.272 27.1871 33.311 27.0198H35.2309L35.5412 28.0085L36.5623 28.007L35.3506 24.405C35.2783 24.1933 35.2127 23.9986 35.1425 23.7914C35.0889 23.6331 35.04 23.2962 34.8982 23.2142C34.212 23.2142 33.669 23.1192 33.4299 23.6755L31.9704 28.0083V28.0083Z" fill="white"/>
<path fill-rule="evenodd" clip-rule="evenodd" d="M19.6339 24.4282V26.6076C19.6339 27.6316 20.3933 28.0011 21.3931 28.0011L22.7698 27.9885C22.7692 27.1184 22.5716 27.1701 21.7503 27.1708C20.3682 27.1721 20.6156 26.929 20.6156 24.6069C20.6156 24.0903 20.8777 23.9009 21.3931 23.9009H22.8043C22.8637 22.922 22.5639 23.0706 21.3216 23.0706C20.3835 23.0706 19.6339 23.4692 19.6339 24.4283V24.4282Z" fill="white"/>
<path fill-rule="evenodd" clip-rule="evenodd" d="M36.8969 28.0126C37.3893 28.0126 39.6989 28.0725 39.9879 27.9891C39.9879 27.8419 40.0092 27.4049 39.9896 27.2918C39.9625 27.1348 39.7676 27.1996 39.3621 27.1996C38.868 27.1996 38.374 27.1996 37.8799 27.1996V23.1623C36.6089 22.8926 36.8968 24.0305 36.8968 25.0743C36.8968 26.0537 36.8968 27.0332 36.8968 28.0125L36.8969 28.0126Z" fill="white"/>
</svg>
