<svg width="54" height="54" viewBox="0 0 54 54" fill="none" xmlns="http://www.w3.org/2000/svg">
<path d="M48.3019 26.9391C48.5771 27.6052 48.2544 28.374 47.5843 28.648L15.7504 41.6574C15.0813 41.9307 14.307 41.6098 14.0322 40.9441L6.17307 21.9405C5.89775 21.2753 6.2206 20.5064 6.89062 20.2328L38.724 7.22297C39.394 6.94883 40.1675 7.2701 40.4426 7.93627L48.3018 26.9391H48.3019Z" fill="#EF6167"/>
<path d="M44.5534 17.9772L10.3545 31.4931L7.35828 24.4877L41.5577 10.9717L44.5534 17.9772Z" fill="#2D4054"/>
<path d="M23.9251 34.0951C24.2147 34.7351 23.8745 35.4726 23.1675 35.736L17.7017 37.7671C16.9951 38.0297 16.1789 37.7221 15.888 37.0822L13.8716 32.6482C13.581 32.0095 13.9216 31.2707 14.6283 31.0085L20.0946 28.9765C20.8012 28.714 21.6174 29.0223 21.9078 29.6611L23.9251 34.0951Z" fill="#EEEEEE"/>
<path d="M45.8337 41.5796C45.8337 42.3579 45.1968 42.9953 44.4177 42.9953H7.41668C6.63804 42.9953 6.0002 42.3579 6.0002 41.5796V19.3603C6.0002 18.5813 6.63804 17.9443 7.41668 17.9443H44.4177C45.1968 17.9443 45.8337 18.5813 45.8337 19.3603V41.5796Z" fill="#06BAB2"/>
<path d="M41.572 26.3884C41.572 26.9638 41.0468 27.4349 40.4039 27.4349H35.4358C34.7933 27.4349 34.2673 26.9638 34.2673 26.3884V22.3942C34.2673 21.8189 34.7933 21.3477 35.4358 21.3477H40.4039C41.0468 21.3477 41.572 21.8189 41.572 22.3942V26.3884Z" fill="#F5F5F5"/>
<path d="M13.7 35.6778C13.7 36.023 13.3498 36.3057 12.9212 36.3057H9.60914C9.18077 36.3057 8.83012 36.023 8.83012 35.6778V33.2812C8.83012 32.9361 9.18077 32.6533 9.60914 32.6533H12.9212C13.3498 32.6533 13.7 32.9361 13.7 33.2812V35.6778Z" fill="#F5F5F5"/>
<path d="M19.7906 35.6778C19.7906 36.023 19.4404 36.3057 19.0118 36.3057H15.6998C15.2714 36.3057 14.9208 36.023 14.9208 35.6778V33.2812C14.9208 32.9361 15.2714 32.6533 15.6998 32.6533H19.0118C19.4404 32.6533 19.7906 32.9361 19.7906 33.2812V35.6778Z" fill="#F5F5F5"/>
<path d="M25.8688 35.6778C25.8688 36.023 25.5186 36.3057 25.0901 36.3057H21.778C21.3497 36.3057 20.999 36.023 20.999 35.6778V33.2812C20.999 32.9361 21.3497 32.6533 21.778 32.6533H25.0901C25.5186 32.6533 25.8688 32.9361 25.8688 33.2812V35.6778Z" fill="#F5F5F5"/>
<path d="M31.9636 35.6778C31.9636 36.023 31.6135 36.3057 31.1849 36.3057H27.8728C27.4445 36.3057 27.0938 36.023 27.0938 35.6778V33.2812C27.0938 32.9361 27.4445 32.6533 27.8728 32.6533H31.1849C31.6135 32.6533 31.9636 32.9361 31.9636 33.2812V35.6778Z" fill="#F5F5F5"/>
<rect width="8.5222" height="1.21746" rx="0.5" transform="matrix(1 0 0 -1 8.83012 39.957)" fill="#F5F5F5"/>
<rect width="13.392" height="1.21746" rx="0.5" transform="matrix(1 0 0 -1 18.5768 39.957)" fill="#F5F5F5"/>
</svg>
