<svg width="50" height="51" viewBox="0 0 50 51" fill="none" xmlns="http://www.w3.org/2000/svg">
<path d="M45 36.5468C45 36.9322 44.8456 37.3018 44.5709 37.5744C44.2962 37.8469 43.9235 38 43.535 38H6.46502C6.07647 38 5.70384 37.8469 5.4291 37.5744C5.15435 37.3018 5 36.9322 5 36.5468V14.4532C5 14.0678 5.15435 13.6982 5.4291 13.4256C5.70384 13.1531 6.07647 13 6.46502 13H43.5154C43.904 13 44.2766 13.1531 44.5514 13.4256C44.8261 13.6982 44.9805 14.0678 44.9805 14.4532V36.5468" fill="#303030"/>
<path d="M27.9114 31.3312H21.3509V19.5947H27.9114V31.3312Z" fill="#6C6BBD"/>
<path d="M21.7673 25.4646C21.7673 23.0838 22.8871 20.9631 24.6309 19.5964C23.3557 18.597 21.7463 18.0005 19.9973 18.0005C15.8565 18.0005 12.5 21.3422 12.5 25.4646C12.5 29.587 15.8565 32.9287 19.9973 32.9287C21.7463 32.9287 23.3557 32.3322 24.6309 31.3328C22.8871 29.9661 21.7673 27.8454 21.7673 25.4646Z" fill="#D32011"/>
<path d="M36.7636 25.4646C36.7636 29.587 33.4071 32.9287 29.2663 32.9287C27.5173 32.9287 25.9079 32.3322 24.6322 31.3328C26.3765 29.9661 27.4963 27.8454 27.4963 25.4646C27.4963 23.0838 26.3765 20.9631 24.6322 19.5964C25.9079 18.597 27.5173 18.0005 29.2663 18.0005C33.4071 18.0005 36.7636 21.3422 36.7636 25.4646Z" fill="#0099DF"/>
</svg>
