<svg width="50" height="51" viewBox="0 0 50 51" fill="none" xmlns="http://www.w3.org/2000/svg">
<path d="M45 36.5468C45 36.9322 44.8456 37.3018 44.5709 37.5744C44.2962 37.8469 43.9235 38 43.535 38H6.46502C6.07647 38 5.70384 37.8469 5.4291 37.5744C5.15435 37.3018 5 36.9322 5 36.5468V14.4532C5 14.0678 5.15435 13.6982 5.4291 13.4256C5.70384 13.1531 6.07647 13 6.46502 13H43.5154C43.904 13 44.2766 13.1531 44.5514 13.4256C44.8261 13.6982 44.9805 14.0678 44.9805 14.4532V36.5468" fill="#004A98"/>
<path d="M24.0332 33.5007C21.9892 33.5157 20.0225 32.716 18.5641 31.2767C17.1056 29.8374 16.2742 27.8759 16.252 25.8218C16.2283 24.7883 16.4133 23.7608 16.7959 22.8013C17.1785 21.8417 17.7508 20.9701 18.4782 20.2392C19.2055 19.5082 20.0728 18.9331 21.0276 18.5486C21.9824 18.1641 23.0049 17.9782 24.0332 18.002H26.0346C30.2503 18.002 34.096 21.1964 34.096 25.8218C34.096 30.0471 30.2503 33.5007 26.0346 33.5007H24.0332ZM24.0332 18.6443C22.6377 18.6465 21.2743 19.0644 20.1151 19.8452C18.9558 20.6259 18.053 21.7344 17.5205 23.0307C16.988 24.327 16.8498 25.7528 17.1234 27.1279C17.397 28.5031 18.0701 29.7659 19.0576 30.7567C20.0451 31.7476 21.3028 32.422 22.6716 32.6948C24.0404 32.9675 25.4589 32.8264 26.748 32.2892C28.037 31.7521 29.1386 30.8429 29.9137 29.6767C30.6887 28.5106 31.1024 27.1396 31.1024 25.7373C31.1024 24.8049 30.9195 23.8816 30.5641 23.0203C30.2087 22.159 29.6878 21.3766 29.0312 20.7178C28.3746 20.059 27.5952 19.5368 26.7376 19.181C25.88 18.8252 24.961 18.6428 24.0332 18.6443ZM22.4355 29.9119V21.5457C21.5972 21.877 20.8776 22.4543 20.3704 23.2024C19.8632 23.9506 19.592 24.8348 19.592 25.7401C19.592 26.6453 19.8632 27.5296 20.3704 28.2777C20.8776 29.0259 21.5972 29.6032 22.4355 29.9345V29.9119ZM28.518 25.7373C28.5149 24.8287 28.2386 23.9423 27.7254 23.1943C27.2122 22.4463 26.486 21.8717 25.6421 21.5457V29.9345C26.4869 29.6082 27.2137 29.0327 27.727 28.2835C28.2403 27.5344 28.516 26.6468 28.518 25.7373Z" fill="white"/>
</svg>
