<svg width="50" height="51" viewBox="0 0 50 51" fill="none" xmlns="http://www.w3.org/2000/svg">
<path d="M45 36.5468C45 36.9322 44.8456 37.3018 44.5709 37.5744C44.2962 37.8469 43.9235 38 43.535 38H6.46502C6.07647 38 5.70384 37.8469 5.4291 37.5744C5.15435 37.3018 5 36.9322 5 36.5468V14.4532C5 14.0678 5.15435 13.6982 5.4291 13.4256C5.70384 13.1531 6.07647 13 6.46502 13H43.5154C43.904 13 44.2766 13.1531 44.5514 13.4256C44.8261 13.6982 44.9805 14.0678 44.9805 14.4532V36.5468" fill="#EE7623"/>
<path d="M11.3718 23.166H10V27.9674H11.3718C11.9943 28.0022 12.6074 27.8043 13.092 27.4121C13.3642 27.1862 13.5835 26.9035 13.7346 26.5837C13.8857 26.2639 13.9649 25.9149 13.9666 25.5612C13.9666 24.1423 12.9033 23.166 11.3718 23.166ZM12.4606 26.7952C12.0978 27.0714 11.6443 27.201 11.1904 27.1581H10.9399V23.9681H11.1904C11.4201 23.9447 11.6522 23.967 11.8733 24.0337C12.0944 24.1003 12.3001 24.21 12.4787 24.3564C12.6432 24.5093 12.7743 24.6947 12.8636 24.9008C12.953 25.1069 12.9986 25.3293 12.9977 25.554C12.9989 25.7814 12.9535 26.0066 12.8642 26.2157C12.775 26.4248 12.6438 26.6134 12.4787 26.7697L12.4606 26.7952Z" fill="white"/>
<path d="M15.3394 23.1514H14.3994V27.9709H15.3394V23.1514Z" fill="white"/>
<path d="M17.6356 24.9997C17.0731 24.7928 16.9098 24.6549 16.9098 24.3936C16.9098 24.1323 17.2074 23.8601 17.6102 23.8601C17.7578 23.8644 17.9025 23.9023 18.0333 23.9708C18.1641 24.0394 18.2775 24.1368 18.3651 24.2557L18.855 23.6133C18.4664 23.2651 17.9615 23.0748 17.4396 23.0799C17.2496 23.0681 17.0591 23.0948 16.8796 23.1583C16.7002 23.2219 16.5353 23.321 16.3951 23.4498C16.2548 23.5786 16.1419 23.7343 16.0633 23.9077C15.9846 24.0811 15.9417 24.2686 15.9372 24.4589C15.9372 25.1231 16.242 25.4642 17.1239 25.7799C17.3485 25.8517 17.5659 25.944 17.7735 26.0557C17.8601 26.1066 17.9318 26.1793 17.9815 26.2665C18.0312 26.3538 18.0571 26.4525 18.0566 26.5529C18.0558 26.6459 18.0361 26.7376 17.9987 26.8227C17.9613 26.9078 17.907 26.9844 17.8392 27.0479C17.7713 27.1113 17.6912 27.1603 17.6038 27.1919C17.5164 27.2235 17.4235 27.237 17.3308 27.2316C17.1157 27.2359 16.904 27.1775 16.7216 27.0634C16.5392 26.9493 16.394 26.7845 16.3037 26.5892L15.694 27.159C15.8635 27.4477 16.1077 27.6853 16.4008 27.8469C16.694 28.0085 17.0253 28.088 17.3598 28.0772C17.5752 28.0924 17.7914 28.0625 17.9946 27.9894C18.1979 27.9163 18.3836 27.8017 18.54 27.6528C18.6964 27.5039 18.8201 27.324 18.903 27.1246C18.986 26.9253 19.0265 26.7108 19.0219 26.4949C19.0219 25.7364 18.7062 25.3916 17.6356 24.9997Z" fill="white"/>
<path d="M19.3206 25.5628C19.3176 25.8961 19.3815 26.2265 19.5084 26.5347C19.6354 26.8428 19.8228 27.1224 20.0596 27.3569C20.2965 27.5913 20.5779 27.7759 20.8873 27.8998C21.1967 28.0236 21.5278 28.0841 21.861 28.0778C22.2694 28.0781 22.6722 27.9824 23.0368 27.7984V26.6915C22.8965 26.8567 22.7219 26.9894 22.5251 27.0803C22.3283 27.1712 22.1141 27.2181 21.8973 27.2177C21.6793 27.2241 21.4623 27.1851 21.2602 27.1032C21.058 27.0214 20.875 26.8984 20.7229 26.7422C20.5707 26.5859 20.4527 26.3998 20.3762 26.1955C20.2997 25.9912 20.2665 25.7733 20.2787 25.5556C20.2709 25.3416 20.3061 25.1282 20.3821 24.9281C20.4581 24.7279 20.5734 24.545 20.7212 24.3901C20.869 24.2352 21.0463 24.1114 21.2427 24.0261C21.439 23.9408 21.6505 23.8957 21.8646 23.8934C22.088 23.8956 22.3084 23.9452 22.5111 24.0391C22.7138 24.1329 22.8943 24.2689 23.0405 24.4378V23.3382C22.6896 23.1471 22.2968 23.0461 21.8973 23.0442C21.5625 23.0394 21.23 23.1009 20.919 23.225C20.608 23.3492 20.3246 23.5336 20.0852 23.7677C19.8457 24.0017 19.6549 24.2808 19.5237 24.5889C19.3924 24.897 19.3234 25.228 19.3206 25.5628Z" fill="white"/>
<path d="M30.4954 26.3849L29.2106 23.1514H28.1836L30.2268 28.0906H30.7312L32.8144 23.1514H31.7946L30.4954 26.3849Z" fill="white"/>
<path d="M33.2373 27.9672H35.9011V27.1507H34.1772V25.8514H35.8394V25.0349H34.1772V23.9679H35.9011V23.1514H33.2373V27.9672Z" fill="white"/>
<path d="M39.6276 24.574C39.6276 23.6703 39.0034 23.1514 37.9219 23.1514H36.5283V27.9672H37.4683V26.0329H37.588L38.8909 27.9672H40.045L38.528 25.9385C38.8499 25.8925 39.1425 25.7261 39.3466 25.4729C39.5507 25.2196 39.6511 24.8984 39.6276 24.574ZM37.7405 25.3688H37.4683V23.9171H37.755C38.3429 23.9171 38.6586 24.1603 38.6586 24.6429C38.6586 25.1256 38.3429 25.3688 37.7405 25.3688Z" fill="white"/>
<path d="M28.4642 25.5622C28.4642 26.0685 28.3142 26.5634 28.0331 26.9845C27.7521 27.4056 27.3526 27.734 26.885 27.9283C26.4175 28.1225 25.9029 28.1739 25.4061 28.0759C24.9094 27.9779 24.4529 27.735 24.0941 27.3777C23.7354 27.0205 23.4905 26.565 23.3904 26.0687C23.2903 25.5724 23.3395 25.0576 23.5318 24.5892C23.724 24.1209 24.0507 23.7199 24.4706 23.4371C24.8906 23.1543 25.3848 23.0022 25.8911 23C26.2285 22.9986 26.5629 23.0638 26.875 23.1919C27.1871 23.32 27.4708 23.5085 27.7099 23.7466C27.949 23.9847 28.1387 24.2676 28.2681 24.5792C28.3976 24.8907 28.4642 25.2248 28.4642 25.5622Z" fill="white"/>
<path d="M40.294 23.3748C40.294 23.2913 40.2359 23.2441 40.1343 23.2441H40V23.6688H40.098V23.5054L40.2178 23.6688H40.3411L40.2032 23.4946C40.2301 23.4886 40.254 23.4733 40.2706 23.4513C40.2872 23.4294 40.2955 23.4023 40.294 23.3748ZM40.1161 23.4329V23.324C40.1669 23.324 40.1923 23.3421 40.1923 23.3784C40.1923 23.4147 40.1669 23.4329 40.1161 23.4329Z" fill="white"/>
<path d="M40.1578 23.0928C40.0861 23.0928 40.0159 23.1141 39.9562 23.1539C39.8965 23.1938 39.85 23.2505 39.8225 23.3168C39.7951 23.3831 39.7879 23.4561 39.8019 23.5265C39.8159 23.5969 39.8505 23.6616 39.9012 23.7123C39.952 23.7631 40.0166 23.7976 40.087 23.8116C40.1574 23.8256 40.2304 23.8184 40.2967 23.791C40.363 23.7635 40.4197 23.717 40.4596 23.6573C40.4995 23.5976 40.5207 23.5275 40.5207 23.4557C40.5207 23.3594 40.4825 23.2671 40.4145 23.1991C40.3464 23.131 40.2541 23.0928 40.1578 23.0928ZM40.1578 23.7642C40.097 23.7663 40.0369 23.7502 39.9852 23.7179C39.9336 23.6856 39.8928 23.6386 39.8682 23.5829C39.8436 23.5272 39.8362 23.4654 39.847 23.4054C39.8578 23.3455 39.8863 23.2902 39.9288 23.2466C39.9713 23.203 40.0259 23.1732 40.0856 23.1609C40.1453 23.1486 40.2072 23.1545 40.2635 23.1778C40.3198 23.2011 40.3678 23.2407 40.4013 23.2915C40.4349 23.3423 40.4525 23.402 40.4518 23.4629C40.4523 23.5023 40.4449 23.5414 40.4302 23.5779C40.4155 23.6145 40.3936 23.6477 40.3659 23.6757C40.3382 23.7037 40.3053 23.726 40.2689 23.7412C40.2326 23.7564 40.1936 23.7642 40.1542 23.7642H40.1578Z" fill="white"/>
</svg>
