<svg width="50" height="51" viewBox="0 0 50 51" fill="none" xmlns="http://www.w3.org/2000/svg">
<path d="M45 36.5468C45 36.9322 44.8456 37.3018 44.5709 37.5744C44.2962 37.8469 43.9235 38 43.535 38H6.46502C6.07647 38 5.70384 37.8469 5.4291 37.5744C5.15435 37.3018 5 36.9322 5 36.5468V14.4532C5 14.0678 5.15435 13.6982 5.4291 13.4256C5.70384 13.1531 6.07647 13 6.46502 13H43.5154C43.904 13 44.2766 13.1531 44.5514 13.4256C44.8261 13.6982 44.9805 14.0678 44.9805 14.4532V36.5468" fill="#1D1D1B"/>
<path d="M14.6758 21.7908C15.13 21.6401 15.6109 21.5873 16.0869 21.6358C16.563 21.6843 17.0233 21.8331 17.4378 22.0723C17.8522 22.3115 18.2113 22.6357 18.4914 23.0237C18.7715 23.4116 18.9663 23.8544 19.063 24.3231L21.3803 23.8506C21.2177 23.0534 20.8878 22.2997 20.4123 21.6395C19.9368 20.9792 19.3266 20.4274 18.6219 20.0205C17.9173 19.6137 17.1344 19.361 16.3249 19.2791C15.5153 19.1973 14.6977 19.2883 13.9259 19.5459L14.6758 21.7908Z" fill="#FFCC00"/>
<path d="M11.9395 29.3032L13.4994 27.5309C13.141 27.2135 12.854 26.8237 12.6574 26.3871C12.4609 25.9506 12.3592 25.4773 12.3592 24.9986C12.3592 24.5198 12.4609 24.0465 12.6574 23.61C12.854 23.1735 13.141 22.7836 13.4994 22.4663L11.9395 20.6914C11.3298 21.2309 10.8416 21.8937 10.5073 22.636C10.1729 23.3783 10 24.1832 10 24.9973C10 25.8115 10.1729 26.6163 10.5073 27.3586C10.8416 28.1009 11.3298 28.7638 11.9395 29.3032Z" fill="#00A0DE"/>
<path d="M19.063 25.6807C18.966 26.1491 18.771 26.5916 18.4907 26.9793C18.2105 27.3669 17.8514 27.6909 17.437 27.9298C17.0226 28.1688 16.5623 28.3173 16.0865 28.3657C15.6106 28.4141 15.1298 28.3612 14.6758 28.2105L13.9259 30.4603C14.6975 30.7184 15.5151 30.8099 16.3246 30.7286C17.1341 30.6473 17.9172 30.3951 18.622 29.9887C19.3269 29.5823 19.9374 29.0309 20.4133 28.371C20.8892 27.7111 21.2197 26.9577 21.3828 26.1606L19.063 25.6807Z" fill="#E63312"/>
<path d="M23.4091 27.6086C23.3157 27.4592 23.2322 27.3039 23.1591 27.1437C22.7966 26.326 22.7697 25.3987 23.0841 24.5614C23.2366 24.1205 23.4779 23.7155 23.793 23.3715C24.1082 23.0276 24.4905 22.7519 24.9165 22.5615C25.4374 22.3371 26.0047 22.2415 26.5704 22.2828C27.1361 22.3242 27.6835 22.5012 28.1662 22.799C28.8316 23.2031 29.3414 23.8195 29.6136 24.5489C29.6586 24.6514 29.6961 24.7613 29.7361 24.8538L23.4091 27.6086ZM25.5214 23.9289C25.1656 24.0779 24.8691 24.3404 24.6779 24.6754C24.4866 25.0103 24.4114 25.3991 24.464 25.7813L27.6463 24.4114C27.4059 24.0932 27.0608 23.8702 26.672 23.7819C26.2831 23.6937 25.8756 23.7457 25.5214 23.9289ZM28.0437 26.9087L27.9787 26.8637C27.7721 27.1857 27.4721 27.4369 27.1188 27.5836C26.4063 27.8936 25.7464 27.8136 25.2739 27.3986L25.2289 27.4636L24.4215 28.671C24.6218 28.8115 24.8373 28.9289 25.0639 29.021C25.8073 29.3205 26.6308 29.3558 27.397 29.121C28.1632 28.8862 28.8257 28.3956 29.2736 27.7311L28.0437 26.9087Z" fill="white"/>
<path d="M31.949 20.7812V27.5007L32.9989 27.9182L32.4065 29.3031L31.2491 28.8231C31.0172 28.7231 30.8198 28.557 30.6816 28.3457C30.5267 28.0962 30.4485 27.8068 30.4566 27.5132V20.7812H31.949Z" fill="white"/>
<path d="M34.6514 25.7875C34.6523 25.5157 34.7109 25.2472 34.8234 24.9999C34.9359 24.7525 35.0997 24.5318 35.3039 24.3526L34.2465 23.1602C33.8741 23.4886 33.5758 23.8925 33.3715 24.345C33.1672 24.7976 33.0616 25.2884 33.0616 25.785C33.0616 26.2815 33.1672 26.7723 33.3715 27.2249C33.5758 27.6774 33.8741 28.0813 34.2465 28.4097L35.3164 27.2123C35.1103 27.0361 34.9443 26.8177 34.8296 26.5719C34.7149 26.3261 34.6541 26.0587 34.6514 25.7875Z" fill="white"/>
<path d="M36.5603 27.6886C36.3548 27.6885 36.1505 27.6556 35.9554 27.5911L35.4554 29.111C35.9251 29.2691 36.4229 29.3257 36.9161 29.2769C37.4092 29.2282 37.8864 29.0753 38.3161 28.8283C38.7457 28.5814 39.118 28.246 39.4083 27.8444C39.6986 27.4428 39.9003 26.9841 40.0001 26.4987L38.4277 26.1787C38.3374 26.6067 38.1025 26.9905 37.7624 27.2655C37.4222 27.5406 36.9977 27.69 36.5603 27.6886Z" fill="white"/>
<path d="M36.5628 22.2783C36.1849 22.2777 35.8093 22.3376 35.4504 22.4558L35.9503 23.9782C36.1456 23.9139 36.3498 23.8809 36.5553 23.8807C36.9945 23.8817 37.4198 24.0342 37.7596 24.3125C38.0993 24.5907 38.3327 24.9777 38.4202 25.4081L39.9975 25.0881C39.838 24.2949 39.4086 23.5815 38.7824 23.0692C38.1562 22.557 37.3719 22.2775 36.5628 22.2783Z" fill="white"/>
</svg>
