<svg width="50" height="51" viewBox="0 0 50 51" fill="none" xmlns="http://www.w3.org/2000/svg">
<path d="M45 36.5468C45 36.9322 44.8456 37.3018 44.5709 37.5744C44.2962 37.8469 43.9235 38 43.535 38H6.46502C6.07647 38 5.70384 37.8469 5.4291 37.5744C5.15435 37.3018 5 36.9322 5 36.5468V14.4532C5 14.0678 5.15435 13.6982 5.4291 13.4256C5.70384 13.1531 6.07647 13 6.46502 13H43.5154C43.904 13 44.2766 13.1531 44.5514 13.4256C44.8261 13.6982 44.9805 14.0678 44.9805 14.4532V36.5468" fill="#FBB81A"/>
<path fill-rule="evenodd" clip-rule="evenodd" d="M10 33.9896H35.6199C36.1449 33.978 36.6476 33.775 37.0336 33.4189C37.4195 33.0628 37.6622 32.578 37.7159 32.0556C38.1727 26.9574 38.6221 21.8556 39.0641 16.75H13.9894C13.3125 16.765 12.6643 17.0261 12.166 17.4844C11.6677 17.9427 11.3534 18.5669 11.2819 19.2402L10 33.9748" fill="white"/>
<path fill-rule="evenodd" clip-rule="evenodd" d="M11.2061 28.3801H35.6582C36.1183 28.3744 36.5602 28.1997 36.8998 27.8892C37.2395 27.5788 37.4531 27.1544 37.5001 26.6966C37.7604 23.6171 38.0244 20.5376 38.2921 17.458H14.002C13.5001 17.4697 13.0198 17.6639 12.6509 18.0043C12.282 18.3447 12.0499 18.8079 11.998 19.3072C11.7279 22.3303 11.4639 25.3546 11.2061 28.3801Z" fill="#10447F"/>
<path fill-rule="evenodd" clip-rule="evenodd" d="M10.7764 33.2742H35.6153C35.9657 33.2661 36.301 33.1301 36.5581 32.892C36.8153 32.6539 36.9765 32.33 37.0114 31.9812L37.273 28.9717H12.4377C12.0873 28.9788 11.7515 29.1138 11.4937 29.3513C11.2359 29.5888 11.0738 29.9123 11.0379 30.261L10.7764 33.2742Z" fill="#10447F"/>
<path fill-rule="evenodd" clip-rule="evenodd" d="M33.0737 30.9159L33.1952 30.2381C33.0382 30.2185 32.8789 30.2425 32.7347 30.3075C32.5904 30.3725 32.4668 30.4759 32.3775 30.6064L32.4253 30.308H31.7218L31.416 32.4593H32.2154C32.2669 32.0136 32.3075 31.7226 32.3332 31.5679C32.3996 31.1995 32.5359 30.9085 32.9632 30.9085H33.0737" fill="white"/>
<path fill-rule="evenodd" clip-rule="evenodd" d="M34.4233 32.343C34.2488 32.4838 34.0284 32.555 33.8045 32.5427C33.5807 32.5305 33.3694 32.4357 33.2113 32.2767C33.1378 32.1751 33.0853 32.06 33.0569 31.9379C33.0284 31.8158 33.0246 31.6893 33.0456 31.5657C33.0682 31.2081 33.2279 30.873 33.4913 30.6301C33.6574 30.4845 33.8548 30.3793 34.0682 30.3224C34.2815 30.2655 34.5051 30.2586 34.7216 30.3022L34.799 29.6797H35.5726L35.2042 32.4793H34.4048L34.4233 32.343ZM34.6516 30.8695C34.5469 30.8306 34.433 30.8234 34.3242 30.849C34.2154 30.8745 34.1166 30.9317 34.0402 31.0132C33.9265 31.1495 33.8594 31.3186 33.8486 31.4957C33.8486 31.6983 33.8781 31.9672 34.1359 31.9672C34.3938 31.9672 34.5338 31.6762 34.5706 31.4331L34.6516 30.8695Z" fill="white"/>
<path fill-rule="evenodd" clip-rule="evenodd" d="M29.2236 30.3535L29.2531 29.7125C28.5974 29.5578 27.7796 29.5615 27.2639 30.0256C26.7482 30.4898 26.4683 31.6317 27.0208 32.1879C27.4702 32.6373 28.2954 32.5931 28.8811 32.4605L29.0358 31.8048C28.6674 31.9006 28.0485 31.9927 27.7539 31.7054C27.4592 31.4181 27.6102 30.7366 27.9012 30.475C28.0925 30.3427 28.3148 30.262 28.5465 30.2407C28.7781 30.2194 29.0114 30.2582 29.2236 30.3535Z" fill="white"/>
<path fill-rule="evenodd" clip-rule="evenodd" d="M30.4179 32.4329C30.0938 32.5139 29.6591 32.6391 29.3865 32.3702C29.3311 32.3137 29.2898 32.2448 29.2661 32.1693C29.2424 32.0937 29.237 32.0136 29.2502 31.9356C29.2944 31.4788 29.6517 31.302 30.0606 31.1988C30.2043 31.1583 30.6279 31.1104 30.6463 30.9336C30.6497 30.914 30.6473 30.8938 30.6395 30.8755C30.6316 30.8572 30.6187 30.8415 30.6021 30.8305C30.3811 30.6978 29.8654 30.8857 29.637 30.9704L29.788 30.3589C30.1564 30.2448 30.8931 30.1416 31.2615 30.3847C31.3279 30.4304 31.3797 30.4945 31.4104 30.569C31.4411 30.6436 31.4496 30.7254 31.4346 30.8047L31.2099 32.466H30.4179C30.4195 32.4501 30.4195 32.434 30.4179 32.4181V32.4329ZM30.4916 31.965C30.3516 32.0203 30.0827 32.1271 29.9575 32.0092C29.9429 31.9904 29.9321 31.9689 29.9259 31.9459C29.9197 31.9229 29.918 31.8989 29.9211 31.8752C29.9242 31.8516 29.9319 31.8288 29.9439 31.8082C29.9558 31.7876 29.9717 31.7695 29.9906 31.7551C30.0392 31.7139 30.0976 31.6859 30.1601 31.674C30.2922 31.6445 30.4226 31.6076 30.5506 31.5635C30.5321 31.6998 30.5137 31.8324 30.4916 31.965Z" fill="white"/>
<path fill-rule="evenodd" clip-rule="evenodd" d="M34.7909 19.9287C34.7467 20.4444 34.6878 20.9601 34.6067 21.4722C34.1028 21.3697 33.5815 21.391 33.0875 21.534C32.5935 21.6771 32.1415 21.9377 31.7703 22.2936C30.831 23.2219 30.2674 25.2406 31.1294 26.3899C31.7629 27.2261 33.1812 27.2482 33.9216 26.5519L33.8847 26.8872H35.6197C35.9181 24.5664 36.2496 22.2457 36.5996 19.9287H34.7909ZM34.2605 24.2386C34.1831 24.8059 33.9621 25.5758 33.2622 25.5758C32.6433 25.5758 32.5549 24.8685 32.5991 24.4007C32.6839 23.4687 33.3359 22.4152 34.441 22.8462L34.2605 24.2386Z" fill="white"/>
<path fill-rule="evenodd" clip-rule="evenodd" d="M30.0771 22.0789C29.8404 21.8338 29.5528 21.6438 29.2345 21.5222C28.9162 21.4006 28.5751 21.3505 28.2353 21.3753C27.8502 21.3601 27.4659 21.4217 27.1048 21.5564C26.7437 21.6911 26.413 21.8963 26.1319 22.16C25.5645 22.7354 25.23 23.5003 25.1926 24.3075C25.1332 24.659 25.1467 25.0189 25.2323 25.3648C25.3178 25.7108 25.4736 26.0355 25.6899 26.3188C25.9299 26.5657 26.2213 26.7567 26.5434 26.8783C26.8656 26.9999 27.2105 27.0491 27.5538 27.0224C27.9373 27.038 28.32 26.9766 28.6794 26.8418C29.0387 26.7071 29.3674 26.5017 29.6461 26.2378C30.2095 25.6548 30.5398 24.8855 30.5744 24.0755C30.633 23.7264 30.6191 23.3689 30.5335 23.0255C30.448 22.682 30.2926 22.3598 30.0771 22.0789ZM28.401 25.2174C28.1174 25.6152 27.4101 25.7479 27.1449 25.2542C26.8797 24.7606 27.0307 23.6408 27.3512 23.1693C27.6238 22.7604 28.3642 22.6094 28.6184 23.1214C28.7297 23.4667 28.7679 23.8314 28.7305 24.1923C28.6931 24.5532 28.5809 24.9023 28.401 25.2174Z" fill="white"/>
<path fill-rule="evenodd" clip-rule="evenodd" d="M24.3417 22.0794C24.1057 21.8335 23.8181 21.6429 23.4997 21.5212C23.1812 21.3996 22.8398 21.3499 22.4999 21.3758C22.1142 21.3605 21.7294 21.422 21.3676 21.5567C21.0059 21.6914 20.6746 21.8966 20.3928 22.1604C19.8254 22.7355 19.4919 23.5009 19.4572 24.308C19.3798 25.1774 19.5419 25.8515 19.9508 26.3193C20.1914 26.5664 20.4835 26.7576 20.8062 26.8792C21.129 27.0008 21.4746 27.0498 21.8184 27.0229C22.2014 27.0386 22.5836 26.9773 22.9423 26.8425C23.3011 26.7077 23.6292 26.5022 23.9071 26.2383C24.4701 25.6547 24.8014 24.886 24.839 24.076C24.8976 23.7268 24.8837 23.3694 24.7982 23.0259C24.7126 22.6824 24.5572 22.3602 24.3417 22.0794ZM22.6804 25.2326C22.3968 25.6305 21.6895 25.7631 21.428 25.2695C21.1664 24.7758 21.3138 23.656 21.6342 23.1845C21.9068 22.7793 22.6472 22.6246 22.9014 23.1366C23.0131 23.482 23.0512 23.847 23.0131 24.208C22.975 24.5691 22.8617 24.9181 22.6804 25.2326Z" fill="white"/>
<path fill-rule="evenodd" clip-rule="evenodd" d="M18.6889 26.6974C17.127 27.1284 14.8174 27.4083 13.576 26.1669C12.1799 24.7782 12.8393 21.9749 14.1617 20.7851C15.5652 19.5437 17.477 19.68 19.1752 19.9673L19.131 21.6029C17.9706 21.2971 16.5524 21.0208 15.5799 21.9381C14.8726 22.5938 14.4232 24.1483 15.1305 24.9734C15.5762 25.4854 16.3866 25.5223 17.0055 25.3418L17.1565 24.3214H16.3719L16.5819 22.8148H19.1899L18.6889 26.6974Z" fill="white"/>
</svg>
