<svg width="50" height="51" viewBox="0 0 50 51" fill="none" xmlns="http://www.w3.org/2000/svg">
<path d="M45 36.5468C45 36.9322 44.8456 37.3018 44.5709 37.5744C44.2962 37.8469 43.9235 38 43.535 38H6.46502C6.07647 38 5.70384 37.8469 5.4291 37.5744C5.15435 37.3018 5 36.9322 5 36.5468V14.4532C5 14.0678 5.15435 13.6982 5.4291 13.4256C5.70384 13.1531 6.07647 13 6.46502 13H43.5154C43.904 13 44.2766 13.1531 44.5514 13.4256C44.8261 13.6982 44.9805 14.0678 44.9805 14.4532V36.5468" fill="#0EA039"/>
<path d="M22.108 31.6166C22.108 31.085 22.6141 30.882 23.2659 30.882C23.5523 30.882 23.8286 30.9033 24.0756 30.9145C24.0756 31.5639 23.6191 32.2244 22.8965 32.2244C22.4501 32.2244 22.1111 32.0002 22.1111 31.6156L22.108 31.6166ZM14.2166 29.6878C14.2166 32.4994 16.5009 33.5009 18.4766 33.5009C19.2198 33.5019 19.9597 33.4016 20.6759 33.2026L20.6506 32.7855C21.0271 33.2736 21.687 33.5009 22.3955 33.5009C23.1819 33.5009 23.7112 33.1965 24.1697 32.4994C24.1697 32.7876 24.2011 33.0747 24.2122 33.373H25.9652C25.8877 32.9408 25.8521 32.5022 25.8589 32.0631V29.9983C25.8589 28.3048 24.6373 27.697 23.2274 27.697C22.4722 27.681 21.7212 27.8151 21.018 28.0917L21.0494 29.3905C21.5923 29.1041 22.1991 28.9612 22.8125 28.9755C23.5037 28.9755 24.0665 29.1784 24.0766 29.9344C23.7818 29.8855 23.4837 29.8604 23.1849 29.8593C22.1667 29.8593 20.3358 30.0622 20.3267 31.7435C19.814 31.9271 19.2749 32.0261 18.7306 32.0367C17.2853 32.0367 16.255 31.154 16.255 29.6939C16.255 28.3099 17.1659 27.2871 18.5707 27.2871C19.2497 27.2889 19.9165 27.4687 20.5048 27.8087L20.6637 26.2004C19.9553 25.9884 19.2194 25.8169 18.4654 25.8169C16.0212 25.8169 14.2145 27.1065 14.2145 29.6939L14.2166 29.6878ZM20.6647 21.5168C21.2973 21.5168 21.5433 21.9714 21.5433 22.5264H19.7883C19.8237 21.9714 20.0919 21.5168 20.6658 21.5168H20.6647ZM18.2073 22.9759C18.2073 24.5689 19.3581 25.5044 20.8682 25.5044C21.4417 25.514 22.0115 25.4106 22.5453 25.2V24.021C22.1193 24.263 21.6382 24.3906 21.1485 24.3913C20.3763 24.3913 19.8935 24.1316 19.8055 23.4649H22.9663V23.1605C22.9663 21.7238 22.3519 20.4555 20.6577 20.4555C19.2346 20.4565 18.2073 21.3829 18.2073 22.9759ZM17.6881 18.0345L16.0272 23.9489L14.4433 18.0639H12.5L14.8592 25.4709H17.1173L19.5666 18.0345H17.6881ZM31.6877 30.5411C31.6877 29.8065 32.1027 29.1673 32.8466 29.1673C33.547 29.1673 34.0146 29.7761 34.0146 30.6162C34.0146 31.4279 33.4832 32.0316 32.8466 32.0316C32.1239 32.0316 31.6877 31.4229 31.6877 30.5411ZM27.7101 22.9312C27.7101 22.292 28.0714 21.736 28.7222 21.736C29.3295 21.736 29.7343 22.2646 29.7343 22.9962C29.7323 23.6983 29.2728 24.2239 28.7202 24.2239C28.0917 24.2239 27.7081 23.6953 27.7081 22.9261L27.7101 22.9312ZM33.9245 21.5056C34.5905 21.5056 34.8486 21.9602 34.8486 22.5152H33.0025C33.0399 21.9602 33.3263 21.5056 33.9265 21.5056H33.9245ZM29.7252 18.0041L29.707 21.188C29.2819 20.632 28.7182 20.4565 28.0522 20.4565C27.7608 20.4539 27.4728 20.5197 27.2112 20.6487C26.9497 20.7776 26.722 20.9662 26.5462 21.1992L26.5877 20.5113C26.4015 20.4782 26.213 20.4599 26.0239 20.4565C25.3023 20.4565 24.8873 20.8451 24.5816 21.4559V20.5711H23.0635V25.3938H24.7264V23.3553C24.7264 22.4107 25.1616 21.8455 25.9409 21.8455C26.0229 21.8455 26.1028 21.8455 26.1828 21.8455C26.0545 22.1797 25.9883 22.5346 25.9875 22.8927C25.9875 24.3193 26.7547 25.5044 28.1868 25.5044C28.954 25.5044 29.6291 25.0691 29.8598 24.5323V25.3938H31.3942V23.5573C31.6361 24.6977 32.7504 25.3907 33.9832 25.4922V28.5362C33.4943 27.8969 32.8466 27.694 32.0814 27.694C31.7462 27.6911 31.415 27.767 31.1142 27.9155C30.8135 28.064 30.5517 28.2811 30.3497 28.5494L30.3973 27.7589C30.1831 27.7196 29.9662 27.6979 29.7485 27.694C28.9196 27.694 28.4419 28.1415 28.0917 28.8446V27.8259H26.3488V33.374H28.2617V31.0312C28.2617 29.9445 28.7607 29.2951 29.6534 29.2951C29.7475 29.2951 29.8406 29.2951 29.9317 29.2951C29.7867 29.6779 29.7123 30.084 29.7121 30.4934C29.7121 32.1341 30.5936 33.4968 32.2424 33.4968C33.1239 33.4968 33.9002 32.9966 34.1654 32.3807V33.371H35.9366L35.9062 25.199V24.021C35.4546 24.2638 34.9501 24.391 34.4376 24.3913C33.6279 24.3913 33.1158 24.1316 33.0207 23.4649H36.3475V23.1605C36.3475 21.7238 35.7008 20.4555 33.9184 20.4555C32.6249 20.4555 31.6422 21.1464 31.3993 22.363V18L29.7252 18.0041Z" fill="white"/>
</svg>
