<svg width="50" height="51" viewBox="0 0 50 51" fill="none" xmlns="http://www.w3.org/2000/svg">
<path d="M45 36.5468C45 36.9322 44.8456 37.3018 44.5709 37.5744C44.2962 37.8469 43.9235 38 43.535 38H6.46502C6.07647 38 5.70384 37.8469 5.4291 37.5744C5.15435 37.3018 5 36.9322 5 36.5468V14.4532C5 14.0678 5.15435 13.6982 5.4291 13.4256C5.70384 13.1531 6.07647 13 6.46502 13H43.5154C43.904 13 44.2766 13.1531 44.5514 13.4256C44.8261 13.6982 44.9805 14.0678 44.9805 14.4532V36.5468" fill="#BA1319"/>
<path fill-rule="evenodd" clip-rule="evenodd" d="M16.6138 23.5953C16.7663 23.4918 16.9628 23.0039 16.737 22.8058C16.6851 22.7717 16.6265 22.7494 16.5653 22.7402C16.5041 22.731 16.4416 22.7352 16.3822 22.7526C16.3251 22.7589 16.2698 22.7765 16.2195 22.8044C16.1692 22.8323 16.1248 22.87 16.089 22.9152C15.9922 23.0482 15.9042 23.4474 16.0538 23.5953C16.1385 23.646 16.2352 23.6728 16.3338 23.6728C16.4324 23.6728 16.5291 23.646 16.6138 23.5953ZM14.444 22.8058C14.3355 23.5214 14.2123 24.2222 14.0892 24.923C13.2946 24.923 12.4853 24.9644 11.7229 24.9052C11.8666 24.2192 11.9692 23.4947 12.1129 22.8058H11.2508C10.9576 24.5563 10.6644 26.3334 10.3271 28.0455H11.2068C11.3417 27.1584 11.4707 26.2713 11.6496 25.4434C12.4312 25.4064 13.2143 25.4123 13.9954 25.4611C13.8487 26.3305 13.6699 27.1673 13.535 28.0455H14.4147C14.6932 26.2713 15.0011 24.5119 15.3383 22.8058H14.444ZM26.7593 24.3138C26.0819 24.0388 25.5483 24.5031 25.2932 24.9407C25.3518 24.7485 25.3724 24.5179 25.4193 24.3138H24.7507C24.5865 25.606 24.3431 26.8184 24.1115 28.0455H24.8768C24.9824 27.3181 25.0293 26.3364 25.2668 25.6415C25.4574 25.0856 25.9559 24.6125 26.6743 24.8697C26.6831 24.6657 26.7417 24.509 26.7622 24.3168L26.7593 24.3138ZM27.1845 27.1673C27.1154 26.9346 27.0915 26.6906 27.1141 26.4487C27.1354 25.9285 27.3156 25.4276 27.6302 25.0146C28.0289 24.6184 28.803 24.6834 29.4452 24.9052C29.4657 24.6923 29.5068 24.5031 29.5332 24.2961C28.504 24.1275 27.5275 24.231 27.0085 24.781C26.7269 25.1336 26.5265 25.545 26.422 25.9854C26.3176 26.4257 26.3116 26.884 26.4045 27.327C26.6772 28.2348 27.9117 28.285 28.9115 27.9361C28.9555 27.7557 28.979 27.5517 29.0171 27.3624C28.4746 27.6493 27.4308 27.7971 27.1874 27.1673H27.1845ZM35.7788 24.3316C35.1014 23.9915 34.5385 24.5622 34.3127 24.9052C34.3743 24.7308 34.3801 24.4942 34.4388 24.3138H33.7702C33.5884 25.5952 33.3695 26.8391 33.1134 28.0455H33.8963C33.9183 27.5929 33.9771 27.1429 34.0722 26.7001C34.2364 25.6652 34.4769 24.5297 35.6732 24.8697C35.7143 24.6953 35.7289 24.4972 35.7817 24.3316H35.7788ZM15.8221 24.3168C15.8016 24.3168 15.8016 24.3464 15.8045 24.37C15.6374 25.6415 15.4087 26.8539 15.1653 28.0485H15.9277C16.1124 26.7651 16.3206 25.4996 16.5874 24.3168H15.8221ZM22.5457 24.2458C22.0414 24.251 21.558 24.4498 21.1939 24.8017C20.6962 25.4416 20.4668 26.2525 20.5547 27.0608C20.6925 28.3028 22.2261 28.2584 23.4547 27.9479C23.4752 27.7321 23.528 27.5458 23.5602 27.3388C23.0559 27.531 22.1762 27.7971 21.6572 27.4659C21.2643 27.2146 21.2614 26.5789 21.3904 26.0289C22.2144 26.0022 23.0735 26.0082 23.8974 26.0289C23.9502 25.6385 24.0998 25.2127 23.9678 24.8283C23.7948 24.3168 23.1761 24.1926 22.5457 24.2429V24.2458ZM23.2758 25.609H21.4784C21.5207 25.3661 21.6447 25.1453 21.8294 24.9837C22.0142 24.8222 22.2485 24.7297 22.4929 24.7219C23.0442 24.6864 23.4371 24.9082 23.2758 25.606V25.609ZM19.6457 24.3168C19.3449 24.228 19.0276 24.2112 18.7192 24.2677C18.4107 24.3242 18.1196 24.4523 17.8688 24.642C17.8688 24.642 17.8688 24.6568 17.8512 24.6568L17.8688 24.642C17.8688 24.5238 17.9157 24.438 17.9216 24.3197H17.2618C16.9891 26.159 16.6754 27.9479 16.3206 29.7191H17.0859C17.1973 29.0302 17.2677 28.3028 17.4231 27.6493C17.599 28.3294 18.7397 28.1993 19.2206 27.945C20.2117 27.395 20.9799 24.8195 19.6457 24.3168ZM19.0417 27.3447C18.6341 27.7823 17.6254 27.7764 17.5492 27.049C17.5507 26.7148 17.5981 26.3825 17.6899 26.0614C17.7486 25.7273 17.7926 25.4049 17.8512 25.1122C18.2529 24.6154 19.4375 24.5563 19.5578 25.3813C19.6433 26.0784 19.4584 26.7818 19.0417 27.3447ZM38.626 22.6993C38.5653 23.2595 38.4763 23.8161 38.3591 24.3671C36.4825 23.7757 35.3331 25.1595 35.3536 26.8775C35.3363 27.1957 35.4308 27.5098 35.6205 27.7646C35.9753 28.1697 36.9927 28.2673 37.5059 27.9243C37.6082 27.8492 37.6982 27.7584 37.7727 27.6552C37.8225 27.5931 37.9017 27.4305 37.9164 27.4778C37.8787 27.6611 37.8542 27.8468 37.8431 28.0337H38.538C38.67 26.0998 39.0834 24.4469 39.3913 22.6875L38.626 22.6993ZM36.9194 27.6315C36.4034 27.6315 36.1483 27.3211 36.1365 26.7888C36.116 25.8574 36.5206 24.8195 37.3446 24.7189C37.6661 24.6882 37.9901 24.7369 38.2888 24.8609C38.019 25.9195 38.1246 27.6049 36.9194 27.6315ZM30.319 24.3168C30.2809 24.5297 30.2252 24.7219 30.1783 24.9259C30.6298 24.8136 32.0344 24.4617 32.1692 25.0708C32.1926 25.2665 32.1621 25.465 32.0813 25.6445C30.8087 25.5232 29.7736 25.7361 29.5009 26.6498C29.3191 27.259 29.5214 27.8622 29.9114 28.0307C30.2556 28.167 30.6344 28.1864 30.9904 28.0861C31.3465 27.9858 31.6605 27.7712 31.8848 27.4748C31.8433 27.663 31.8255 27.8558 31.832 28.0485H32.4888C32.5073 27.4694 32.573 26.8928 32.6853 26.3246C32.8041 25.867 32.8758 25.3983 32.8994 24.9259C32.8436 23.9383 31.2251 24.2872 30.319 24.3168ZM31.5681 27.327C31.1723 27.7173 30.0668 27.8267 30.1812 26.8982C30.275 26.1235 31.1078 25.9609 32.0109 26.0703C31.9435 26.4931 31.8613 27.0313 31.5681 27.327Z" fill="white"/>
</svg>
