<svg width="50" height="51" viewBox="0 0 50 51" fill="none" xmlns="http://www.w3.org/2000/svg">
<path d="M45 36.5468C45 36.9322 44.8456 37.3018 44.5709 37.5744C44.2962 37.8469 43.9235 38 43.535 38H6.46502C6.07647 38 5.70384 37.8469 5.4291 37.5744C5.15435 37.3018 5 36.9322 5 36.5468V14.4532C5 14.0678 5.15435 13.6982 5.4291 13.4256C5.70384 13.1531 6.07647 13 6.46502 13H43.5154C43.904 13 44.2766 13.1531 44.5514 13.4256C44.8261 13.6982 44.9805 14.0678 44.9805 14.4532V36.5468" fill="white"/>
<path d="M30.1098 27.41H31.5568C31.5978 27.41 31.6953 27.3968 31.7364 27.3968C31.8838 27.3638 32.0156 27.2791 32.1091 27.1572C32.2027 27.0353 32.2523 26.8838 32.2495 26.7284C32.2486 26.5741 32.1976 26.4244 32.1046 26.3033C32.0116 26.1823 31.882 26.0966 31.7364 26.0601C31.6772 26.0485 31.6169 26.0441 31.5568 26.0469H30.1098V27.41Z" fill="#56AF34"/>
<path d="M31.3917 18C30.7262 18 30.088 18.2722 29.6175 18.7567C29.1469 19.2412 28.8826 19.8983 28.8826 20.5835V23.2673H32.4256C32.511 23.2598 32.5968 23.2598 32.6821 23.2673C33.4826 23.3096 34.0752 23.7349 34.0752 24.4745C34.0752 25.0557 33.675 25.5523 32.931 25.6527V25.6818C33.7443 25.7372 34.3651 26.2101 34.3651 26.9312C34.3651 27.7237 33.675 28.223 32.7668 28.223H28.8672V33.4877H32.5487C33.2142 33.4877 33.8524 33.2155 34.3229 32.731C34.7935 32.2465 35.0578 31.5894 35.0578 30.9042V18H31.3917Z" fill="#56AF34"/>
<path d="M32.0679 24.6576C32.0709 24.5086 32.0201 24.3637 31.9253 24.2509C31.8305 24.1382 31.6985 24.0657 31.5548 24.0474C31.5265 24.0474 31.4573 24.0342 31.4162 24.0342H30.1104V25.2837H31.4188C31.4598 25.2837 31.5445 25.2837 31.5573 25.2678C31.7006 25.249 31.832 25.1762 31.9262 25.0635C32.0205 24.9509 32.0709 24.8063 32.0679 24.6576Z" fill="#56AF34"/>
<path d="M17.5219 18C16.8565 18 16.2183 18.2722 15.7477 18.7567C15.2772 19.2412 15.0128 19.8983 15.0128 20.5835V26.9576C15.6824 27.3182 16.4229 27.5169 17.1781 27.5388C18.0479 27.5388 18.5148 27.0105 18.5148 26.2629V23.2515H20.6673V26.2471C20.6673 27.412 19.9643 28.3603 17.5886 28.3603C16.7161 28.3634 15.8466 28.2552 15 28.0381L15 33.4745H18.6815C19.3468 33.4738 19.9846 33.2013 20.455 32.717C20.9254 32.2327 21.19 31.5759 21.1906 30.891V18H17.5219Z" fill="#0C6CB4"/>
<path d="M24.4599 18C24.1302 17.9997 23.8036 18.0662 23.4989 18.1959C23.1942 18.3256 22.9173 18.5158 22.684 18.7558C22.4508 18.9957 22.2657 19.2806 22.1395 19.5942C22.0132 19.9078 21.9482 20.244 21.9482 20.5835V23.9621C22.5845 23.4073 23.6877 23.0534 25.4656 23.1379C26.1302 23.1812 26.7897 23.2864 27.4359 23.4522V24.5432C26.8475 24.2199 26.2 24.0265 25.5349 23.9753C24.1828 23.8775 23.3695 24.5591 23.3695 25.7504C23.3695 26.9418 24.1828 27.6392 25.5349 27.5256C26.1989 27.4682 26.8452 27.2751 27.4359 26.9576V28.0513C26.7898 28.2169 26.1302 28.3212 25.4656 28.363C23.6877 28.4475 22.5845 28.0988 21.9482 27.5388V33.5009H25.6298C26.2952 33.5009 26.9334 33.2287 27.404 32.7442C27.8745 32.2597 28.1389 31.6026 28.1389 30.9174V18H24.4599Z" fill="#DF0637"/>
</svg>
