<svg width="50" height="51" viewBox="0 0 50 51" fill="none" xmlns="http://www.w3.org/2000/svg">
<path d="M45 36.5468C45 36.9322 44.8456 37.3018 44.5709 37.5744C44.2962 37.8469 43.9235 38 43.535 38H6.46502C6.07647 38 5.70384 37.8469 5.4291 37.5744C5.15435 37.3018 5 36.9322 5 36.5468V14.4532C5 14.0678 5.15435 13.6982 5.4291 13.4256C5.70384 13.1531 6.07647 13 6.46502 13H43.5154C43.904 13 44.2766 13.1531 44.5514 13.4256C44.8261 13.6982 44.9805 14.0678 44.9805 14.4532V36.5468" fill="#4D4D4F"/>
<path d="M27.9091 19.5771H21.3466V31.3701H27.9091V19.5771Z" fill="#FF5F00"/>
<path d="M21.7692 25.5C21.7681 24.3642 22.0255 23.2432 22.5218 22.2216C23.0181 21.2 23.7403 20.3047 24.6337 19.6035C23.5273 18.7338 22.1986 18.193 20.7993 18.0428C19.4001 17.8927 17.9868 18.1392 16.7211 18.7542C15.4553 19.3693 14.3881 20.328 13.6415 21.5209C12.8949 22.7138 12.499 24.0927 12.499 25.5C12.499 26.9073 12.8949 28.2862 13.6415 29.4791C14.3881 30.672 15.4553 31.6307 16.7211 32.2458C17.9868 32.8608 19.4001 33.1073 20.7993 32.9572C22.1986 32.807 23.5273 32.2662 24.6337 31.3965C23.7403 30.6953 23.0181 29.8 22.5218 28.7784C22.0255 27.7568 21.7682 26.6357 21.7692 25.5Z" fill="#EB001B"/>
<path d="M36.7623 25.5C36.7623 26.9073 36.3664 28.2861 35.6199 29.479C34.8733 30.6719 33.8061 31.6307 32.5404 32.2458C31.2747 32.8608 29.8614 33.1073 28.4622 32.9572C27.063 32.807 25.7342 32.2662 24.6279 31.3965C25.5205 30.6946 26.2422 29.7992 26.7384 28.7777C27.2346 27.7563 27.4924 26.6356 27.4924 25.5C27.4924 24.3644 27.2346 23.2437 26.7384 22.2223C26.2422 21.2008 25.5205 20.3054 24.6279 19.6035C25.7342 18.7338 27.063 18.193 28.4622 18.0428C29.8614 17.8927 31.2747 18.1392 32.5404 18.7542C33.8061 19.3693 34.8733 20.3281 35.6199 21.521C36.3664 22.7139 36.7623 24.0927 36.7623 25.5Z" fill="#F79E1B"/>
<path d="M36.0239 30.127V29.8856H36.1213V29.8364H35.8734V29.8856H35.9707V30.127H36.0239ZM36.5053 30.127V29.8359H36.4293L36.3419 30.0362L36.2544 29.8359H36.1784V30.127H36.2321V29.9075L36.314 30.0968H36.3697L36.4517 29.907V30.127H36.5053Z" fill="#F79E1B"/>
</svg>
