<svg width="59" height="60" viewBox="0 0 59 60" fill="none" xmlns="http://www.w3.org/2000/svg">
<path d="M52.9598 41.4227C52.9599 41.9749 52.5123 42.4227 51.9601 42.4229L7.00584 42.4364C6.45353 42.4365 6.00567 41.9889 6.00554 41.4366L6.00023 18.0136C6.0001 17.4613 6.44768 17.0135 6.99994 17.0133L51.9542 17.0003C52.5065 17.0001 52.9543 17.4478 52.9545 18.0001L52.9598 41.4227Z" fill="#7EAF3E"/>
<path d="M51.0034 34.1097L51.0014 25.3142C48.1544 24.8939 45.931 22.2439 45.735 18.957L13.2207 18.9667C13.0243 22.253 10.8024 24.9059 7.9567 25.3269L7.9588 34.1217C10.8063 34.5423 13.0292 37.1927 13.2266 40.4804L45.7394 40.4694C45.9349 37.1814 48.1574 34.5307 51.0034 34.1097Z" fill="#A0D468"/>
<path d="M38.3903 29.7535C38.3913 34.6748 34.4034 38.6647 29.4835 38.6663C24.5622 38.6673 20.5722 34.6796 20.5711 29.7591C20.569 24.8378 24.5578 20.8479 29.4772 20.8457C34.3981 20.8447 38.3879 24.8326 38.3903 29.7535Z" fill="#7EAF3E"/>
<path d="M29.8599 33.3485C30.2421 33.2996 30.5204 33.2111 30.6941 33.0844C30.9991 32.8587 31.151 32.4696 31.1521 31.9166C31.1511 31.4948 31.0086 31.1625 30.7231 30.9173C30.5527 30.7758 30.266 30.6284 29.8589 30.477L29.8599 33.3483V33.3485ZM29.145 25.6747C28.7195 25.6853 28.4045 25.7988 28.1978 26.0165C27.9927 26.2347 27.8897 26.532 27.8907 26.9086C27.8907 27.3204 28.0436 27.6459 28.3528 27.8853C28.5232 28.0183 28.7873 28.1403 29.146 28.253L29.145 25.6747ZM29.8599 36.4617L29.1482 36.4627V35.0015C28.1814 34.8942 27.4636 34.6834 26.9875 34.371C26.1508 33.8076 25.7405 32.8478 25.7553 31.4913H27.7366C27.8054 32.1083 27.9001 32.5221 28.0243 32.7321C28.214 33.0602 28.588 33.2733 29.148 33.371L29.146 30.2347L28.5523 30.0591C27.6155 29.7861 26.9571 29.4037 26.5715 28.914C26.1886 28.4248 25.9955 27.8348 25.9945 27.1436C25.9955 26.6892 26.0692 26.2759 26.2186 25.9034C26.3685 25.5321 26.5767 25.2108 26.8471 24.9414C27.1953 24.5926 27.5813 24.3534 28.0068 24.2209C28.2667 24.1376 28.6447 24.0767 29.145 24.0372V23.0611L29.8573 23.0605V24.0516C30.6519 24.1151 31.2747 24.3109 31.7297 24.6386C32.5529 25.163 32.9777 26.0124 33.0087 27.1862L31.0774 27.1868C31.0385 26.7507 30.9665 26.4331 30.8587 26.2327C30.6746 25.8846 30.3406 25.6946 29.8577 25.6601V28.4577C31.0192 28.8584 31.7985 29.2141 32.1982 29.5223C32.8568 30.0362 33.1855 30.7603 33.1855 31.6956C33.1865 32.9301 32.7331 33.8256 31.8275 34.3832C31.2747 34.7272 30.6183 34.9276 29.8599 34.9865V36.4618V36.4617Z" fill="white"/>
</svg>
