<svg width="50" height="51" viewBox="0 0 50 51" fill="none" xmlns="http://www.w3.org/2000/svg">
<path d="M45 36.5468C45 36.9322 44.8456 37.3018 44.5709 37.5744C44.2962 37.8469 43.9235 38 43.535 38H6.46502C6.07647 38 5.70384 37.8469 5.4291 37.5744C5.15435 37.3018 5 36.9322 5 36.5468V14.4532C5 14.0678 5.15435 13.6982 5.4291 13.4256C5.70384 13.1531 6.07647 13 6.46502 13H43.5154C43.904 13 44.2766 13.1531 44.5514 13.4256C44.8261 13.6982 44.9805 14.0678 44.9805 14.4532V36.5468" fill="#2A2A6C"/>
<path d="M21.0844 21.4977L17.6551 29.5825H15.4278L13.7451 23.1184C13.7287 22.9668 13.674 22.8217 13.586 22.6967C13.4981 22.5716 13.3797 22.4706 13.2418 22.4031C12.5776 22.0914 11.8776 21.8612 11.1572 21.7176L11.2061 21.4977H14.8006C15.0335 21.4961 15.2594 21.5764 15.4382 21.7244C15.617 21.8725 15.7371 22.0786 15.7771 22.3062L16.6673 26.9969L18.8646 21.4977H21.0844ZM29.8359 26.9373C29.8359 24.7987 26.8536 24.6832 26.8761 23.7257C26.8761 23.4351 27.1616 23.1259 27.7738 23.0476C28.4885 22.9861 29.2068 23.1147 29.8546 23.4202L30.2302 21.7026C29.5992 21.4632 28.9302 21.337 28.2546 21.3301C26.1662 21.3301 24.6939 22.4478 24.6826 24.0089C24.6826 25.175 25.7305 25.8233 26.5343 26.2145C27.3381 26.6057 27.6311 26.8665 27.6273 27.2204C27.6273 27.7644 26.9738 28.0028 26.3653 28.014C25.6093 28.029 24.862 27.852 24.1943 27.4999L23.8187 29.277C24.5685 29.5652 25.3659 29.7118 26.17 29.7092C28.3898 29.7092 29.8396 28.6176 29.8471 26.9336L29.8359 26.9373ZM35.361 29.5788H37.3178L35.6013 21.4977H33.806C33.6138 21.4962 33.4255 21.5518 33.2655 21.6574C33.1055 21.763 32.9811 21.9137 32.9083 22.0901L29.7269 29.5825H31.9467L32.3862 28.3717H35.098L35.361 29.5788ZM32.9947 26.7137L34.1215 23.6698L34.745 26.7137H32.9947ZM24.1042 21.4977L22.3576 29.5825H20.243L21.9933 21.4977H24.1042Z" fill="white"/>
</svg>
